{"glyphs":{"0":{"ha":897,"x_min":88,"x_max":810,"o":"m 449 -22 q 255 40 336 -22 q 131 217 174 101 q 88 496 88 333 q 183 878 88 740 q 449 1015 279 1015 q 714 878 618 1015 q 810 496 810 740 q 767 217 810 333 q 643 40 724 101 q 449 -22 563 -22 m 449 68 q 635 179 569 68 q 701 496 701 290 q 635 814 701 703 q 449 925 569 925 q 262 814 328 925 q 196 496 196 703 q 262 179 196 290 q 449 68 328 68 z "},"1":{"ha":633,"x_min":111,"x_max":468,"o":"m 365 993 l 468 993 l 468 0 l 365 0 l 365 879 l 111 678 l 111 792 l 365 993 z "},"2":{"ha":831,"x_min":65,"x_max":722,"o":"m 722 0 l 72 0 l 72 89 l 417 417 q 561 579 511 507 q 611 728 611 651 q 586 827 611 782 q 515 899 561 872 q 407 925 469 925 q 255 878 322 925 q 139 753 188 832 l 65 821 q 222 967 135 918 q 411 1015 308 1015 q 572 976 504 1015 q 678 872 640 938 q 717 724 717 806 q 690 602 717 660 q 609 483 663 544 q 474 346 556 422 q 382 260 428 303 q 291 174 336 217 q 200 89 246 132 l 722 89 l 722 0 z "},"3":{"ha":832,"x_min":54,"x_max":761,"o":"m 54 158 l 128 226 q 253 111 181 154 q 417 68 325 68 q 588 126 524 68 q 653 274 653 185 q 620 381 653 336 q 531 449 588 425 q 404 474 475 474 l 307 474 l 307 564 l 404 564 q 517 586 467 564 q 596 649 567 608 q 625 743 625 689 q 568 874 625 824 q 418 925 511 925 q 269 883 335 925 q 156 767 204 840 l 82 835 q 231 967 146 919 q 418 1015 315 1015 q 582 980 511 1015 q 693 883 653 944 q 733 743 733 821 q 691 618 733 674 q 573 531 649 563 q 397 499 497 499 l 411 550 q 594 514 515 550 q 717 416 674 478 q 761 274 761 354 q 717 123 761 190 q 597 17 674 56 q 417 -22 519 -22 q 214 26 306 -22 q 54 158 122 74 z "},"4":{"ha":897,"x_min":60,"x_max":843,"o":"m 688 0 l 585 0 l 585 254 l 60 254 l 60 340 l 585 993 l 688 993 l 688 340 l 843 340 l 843 254 l 688 254 l 688 0 m 585 860 l 169 340 l 585 340 l 585 860 z "},"5":{"ha":822,"x_min":57,"x_max":758,"o":"m 131 240 q 247 116 179 164 q 407 68 315 68 q 533 102 479 68 q 619 195 588 136 q 650 326 650 254 q 619 449 650 396 q 535 533 589 503 q 413 564 482 564 q 280 528 338 564 q 181 432 222 493 l 138 436 q 197 553 156 504 q 297 628 238 601 q 428 654 356 654 q 598 612 524 654 q 715 495 672 569 q 758 326 758 421 q 713 147 758 226 q 588 23 667 68 q 407 -22 508 -22 q 206 28 294 -22 q 57 175 118 79 l 131 240 m 692 904 l 201 904 l 236 929 l 181 432 l 85 432 l 149 993 l 692 993 l 692 904 z "},"6":{"ha":864,"x_min":74,"x_max":793,"o":"m 433 -22 q 244 25 325 -22 q 119 156 164 72 q 74 346 74 239 q 118 556 74 449 q 255 772 163 663 q 493 993 347 882 l 642 993 q 408 797 500 886 q 266 626 317 707 q 194 465 215 546 l 168 479 q 283 605 207 557 q 453 653 358 653 q 621 610 543 653 q 746 494 699 568 q 793 322 793 419 q 747 147 793 225 q 619 24 700 69 q 433 -22 538 -22 m 433 69 q 563 103 506 69 q 653 192 619 136 q 686 319 686 249 q 653 445 686 390 q 563 532 619 500 q 433 564 506 564 q 304 532 361 564 q 215 445 247 500 q 182 319 182 390 q 215 192 182 249 q 304 103 247 136 q 433 69 361 69 z "},"7":{"ha":825,"x_min":76,"x_max":749,"o":"m 749 993 l 749 901 l 250 0 l 132 0 l 633 901 l 76 901 l 76 993 l 749 993 z "},"8":{"ha":867,"x_min":71,"x_max":796,"o":"m 433 -22 q 247 15 329 -22 q 118 119 165 53 q 71 269 71 185 q 118 415 71 351 q 247 516 165 479 q 433 553 329 553 q 620 516 539 553 q 749 415 701 479 q 796 269 796 351 q 749 119 796 185 q 620 15 701 53 q 433 -22 539 -22 m 433 494 q 265 526 339 494 q 149 615 192 558 q 107 740 107 671 q 149 883 107 821 q 265 980 192 944 q 433 1015 339 1015 q 601 980 528 1015 q 717 883 675 944 q 760 740 760 821 q 717 615 760 671 q 601 526 675 558 q 433 494 528 494 m 433 68 q 562 94 504 68 q 653 167 619 121 q 688 269 688 213 q 653 373 688 328 q 562 444 619 418 q 433 471 504 471 q 305 444 363 471 q 213 373 247 418 q 179 269 179 328 q 213 167 179 213 q 305 94 247 121 q 433 68 363 68 m 433 561 q 544 585 494 561 q 622 649 593 608 q 651 740 651 690 q 622 835 651 793 q 544 901 593 876 q 433 925 494 925 q 324 901 374 925 q 244 835 274 876 q 215 740 215 793 q 244 649 215 690 q 324 585 274 608 q 433 561 374 561 z "},"9":{"ha":864,"x_min":71,"x_max":790,"o":"m 431 1015 q 619 968 539 1015 q 745 838 700 921 q 790 647 790 756 q 747 438 790 544 q 610 222 703 331 q 371 0 517 113 l 222 0 q 456 197 365 107 q 598 367 547 286 q 669 528 649 449 l 696 514 q 581 388 657 436 q 411 340 506 340 q 243 383 321 340 q 118 499 165 425 q 71 671 71 574 q 117 846 71 768 q 245 969 164 924 q 431 1015 326 1015 m 431 924 q 301 891 358 924 q 211 801 244 858 q 178 674 178 744 q 211 549 178 604 q 301 461 244 493 q 431 429 358 429 q 560 461 504 429 q 649 549 617 493 q 682 674 682 604 q 649 801 682 744 q 560 891 617 858 q 431 924 504 924 z "},"\u0000":{"ha":0,"x_min":0,"x_max":0,"o":""},"\r":{"ha":271,"x_min":0,"x_max":0,"o":""}," ":{"ha":271,"x_min":0,"x_max":0,"o":""},".":{"ha":308,"x_min":76,"x_max":232,"o":"m 232 64 q 209 9 232 32 q 154 -14 186 -14 q 99 9 122 -14 q 76 64 76 32 q 99 119 76 96 q 154 142 122 142 q 209 119 186 142 q 232 64 232 96 z "},":":{"ha":308,"x_min":76,"x_max":232,"o":"m 232 64 q 209 9 232 32 q 154 -14 186 -14 q 99 9 122 -14 q 76 64 76 32 q 99 119 76 96 q 154 142 122 142 q 209 119 186 142 q 232 64 232 96 m 232 606 q 209 551 232 574 q 154 528 186 528 q 99 551 122 528 q 76 606 76 574 q 99 660 76 638 q 154 683 122 683 q 209 660 186 683 q 232 606 232 638 z "},",":{"ha":308,"x_min":76,"x_max":232,"o":"m 147 -168 l 78 -168 q 126 -73 108 -124 q 142 14 144 -22 l 153 -10 q 99 12 121 -10 q 76 65 76 33 q 98 119 76 97 q 150 142 119 142 q 209 117 186 142 q 232 51 232 92 q 220 -22 232 18 q 189 -99 208 -61 q 147 -168 169 -137 z "},";":{"ha":308,"x_min":76,"x_max":232,"o":"m 147 -168 l 78 -168 q 126 -73 108 -124 q 142 14 144 -22 l 153 -10 q 99 12 121 -10 q 76 65 76 33 q 98 119 76 97 q 150 142 119 142 q 209 117 186 142 q 232 51 232 92 q 220 -22 232 18 q 189 -99 208 -61 q 147 -168 169 -137 m 232 606 q 209 551 232 574 q 154 528 186 528 q 99 551 122 528 q 76 606 76 574 q 99 660 76 638 q 154 683 122 683 q 209 660 186 683 q 232 606 232 638 z "},"?":{"ha":779,"x_min":51,"x_max":689,"o":"m 394 283 l 308 283 q 319 395 303 344 q 374 490 335 446 q 476 572 414 533 q 555 651 529 610 q 581 743 581 693 q 525 875 581 825 q 381 925 469 925 q 240 885 304 925 q 125 767 175 844 l 51 835 q 201 969 117 924 q 382 1015 285 1015 q 540 980 471 1015 q 649 884 608 944 q 689 746 689 824 q 647 610 689 671 q 514 493 604 550 q 422 404 449 451 q 394 283 394 357 m 428 64 q 405 9 428 32 q 350 -14 382 -14 q 295 9 318 -14 q 272 64 272 32 q 295 119 272 96 q 350 142 318 142 q 405 119 382 142 q 428 64 428 96 z "},"!":{"ha":308,"x_min":76,"x_max":232,"o":"m 232 64 q 209 9 232 32 q 154 -14 186 -14 q 99 9 122 -14 q 76 64 76 32 q 99 119 76 96 q 154 142 122 142 q 209 119 186 142 q 232 64 232 96 m 186 283 l 122 283 q 118 365 121 308 q 112 494 115 421 q 105 645 108 568 q 99 790 101 722 q 94 903 96 858 q 92 954 92 947 q 110 998 92 981 q 154 1015 128 1015 q 199 998 181 1015 q 217 954 217 981 q 215 903 217 947 q 210 790 213 858 q 203 645 207 722 q 197 494 200 568 q 190 365 193 421 q 186 283 188 308 z "},"¿":{"ha":779,"x_min":90,"x_max":728,"o":"m 385 386 l 471 386 q 460 275 476 326 q 406 180 444 224 q 303 97 367 136 q 224 18 250 60 q 199 -74 199 -24 q 254 -205 199 -154 q 399 -256 310 -256 q 540 -215 475 -256 q 654 -97 604 -175 l 728 -165 q 580 -300 664 -254 q 397 -346 496 -346 q 240 -310 310 -346 q 131 -214 171 -275 q 90 -76 90 -153 q 133 59 90 -1 q 265 176 176 119 q 358 266 331 218 q 385 386 385 314 m 351 606 q 374 660 351 638 q 429 683 397 683 q 484 660 461 683 q 507 606 507 638 q 484 551 507 574 q 429 528 461 528 q 374 551 397 528 q 351 606 351 574 z "},"¡":{"ha":308,"x_min":76,"x_max":232,"o":"m 76 606 q 99 660 76 638 q 154 683 122 683 q 209 660 186 683 q 232 606 232 638 q 209 551 232 574 q 154 528 186 528 q 99 551 122 528 q 76 606 76 574 m 122 386 l 186 386 q 190 306 188 363 q 197 175 193 249 q 203 24 200 101 q 210 -121 207 -53 q 215 -233 213 -189 q 217 -285 217 -278 q 199 -328 217 -311 q 154 -346 181 -346 q 110 -328 128 -346 q 92 -285 92 -311 q 94 -233 92 -278 q 99 -121 96 -189 q 105 24 101 -53 q 112 175 108 101 q 118 306 115 249 q 122 386 121 363 z "},"'":{"ha":308,"x_min":94,"x_max":214,"o":"m 178 713 l 131 713 q 113 813 121 763 q 99 903 104 864 q 94 958 94 942 q 112 1004 94 986 q 154 1022 129 1022 q 197 1004 179 1022 q 214 958 214 986 q 209 903 214 942 q 196 813 204 864 q 178 713 188 763 z "},"\"":{"ha":489,"x_min":94,"x_max":394,"o":"m 178 713 l 131 713 q 113 813 121 763 q 99 903 104 864 q 94 958 94 942 q 112 1004 94 986 q 154 1022 129 1022 q 197 1004 179 1022 q 214 958 214 986 q 209 903 214 942 q 196 813 204 864 q 178 713 188 763 m 358 713 l 311 713 q 293 813 301 763 q 280 903 285 864 q 275 958 275 942 q 292 1004 275 986 q 335 1022 310 1022 q 377 1004 360 1022 q 394 958 394 986 q 390 903 394 942 q 376 813 385 864 q 358 713 368 763 z "},"…":{"ha":1389,"x_min":153,"x_max":1235,"o":"m 308 64 q 285 9 308 32 q 231 -14 263 -14 q 176 9 199 -14 q 153 64 153 32 q 176 119 153 96 q 231 142 199 142 q 285 119 263 142 q 308 64 308 96 m 772 64 q 749 9 772 32 q 694 -14 726 -14 q 640 9 663 -14 q 617 64 617 32 q 640 119 617 96 q 694 142 663 142 q 749 119 726 142 q 772 64 772 96 m 1235 64 q 1212 9 1235 32 q 1157 -14 1189 -14 q 1102 9 1125 -14 q 1079 64 1079 32 q 1102 119 1079 96 q 1157 142 1125 142 q 1212 119 1189 142 q 1235 64 1235 96 z "}," ":{"ha":271,"x_min":0,"x_max":0,"o":""}," ":{"ha":694,"x_min":0,"x_max":0,"o":""}," ":{"ha":1389,"x_min":0,"x_max":0,"o":""}," ":{"ha":694,"x_min":0,"x_max":0,"o":""}," ":{"ha":1389,"x_min":0,"x_max":0,"o":""}," ":{"ha":463,"x_min":0,"x_max":0,"o":""}," ":{"ha":347,"x_min":0,"x_max":0,"o":""}," ":{"ha":232,"x_min":0,"x_max":0,"o":""}," ":{"ha":917,"x_min":0,"x_max":0,"o":""}," ":{"ha":308,"x_min":0,"x_max":0,"o":""}," ":{"ha":278,"x_min":0,"x_max":0,"o":""}," ":{"ha":174,"x_min":0,"x_max":0,"o":""},"​":{"ha":0,"x_min":0,"x_max":0,"o":""},"﻿":{"ha":0,"x_min":0,"x_max":0,"o":""},"₀":{"ha":618,"x_min":88,"x_max":531,"o":"m 310 -151 q 146 -73 204 -151 q 88 144 88 6 q 146 363 88 285 q 310 440 204 440 q 472 363 414 440 q 531 144 531 285 q 472 -73 531 6 q 310 -151 414 -151 m 310 -71 q 403 -16 371 -71 q 436 144 436 39 q 403 305 436 250 q 310 360 371 360 q 215 305 247 360 q 182 144 182 250 q 215 -16 182 39 q 310 -71 247 -71 z "},"₁":{"ha":508,"x_min":111,"x_max":343,"o":"m 263 432 l 343 432 l 343 -139 l 250 -139 l 250 321 l 111 214 l 111 314 l 263 432 z "},"₂":{"ha":594,"x_min":65,"x_max":486,"o":"m 486 -139 l 72 -139 l 72 -69 l 274 113 q 353 195 325 158 q 381 271 381 232 q 353 333 381 307 q 282 360 326 360 q 200 333 239 360 q 133 258 161 306 l 65 319 q 165 410 108 379 q 285 440 221 440 q 385 418 342 440 q 451 358 428 396 q 475 271 475 319 q 438 164 475 214 q 331 50 401 114 q 251 -21 283 7 q 186 -76 219 -49 l 179 -58 l 486 -58 l 486 -139 z "},"₃":{"ha":563,"x_min":54,"x_max":492,"o":"m 54 -39 l 119 21 q 189 -48 149 -24 q 278 -72 229 -72 q 365 -44 332 -72 q 397 25 397 -17 q 363 92 397 65 q 268 118 329 118 l 226 118 l 226 196 l 268 196 q 351 219 318 196 q 383 279 383 242 q 355 338 383 314 q 281 361 326 361 q 200 338 238 361 q 135 269 163 314 l 71 328 q 163 410 104 379 q 288 440 221 440 q 385 419 343 440 q 453 363 428 397 q 478 285 478 328 q 419 181 478 221 q 261 140 361 140 l 261 179 q 430 135 368 179 q 492 18 492 90 q 465 -67 492 -28 q 392 -128 439 -106 q 282 -151 344 -151 q 151 -121 211 -151 q 54 -39 90 -90 z "},"₄":{"ha":607,"x_min":60,"x_max":553,"o":"m 464 -139 l 372 -139 l 372 -4 l 60 -4 l 60 75 l 372 428 l 464 428 l 464 75 l 553 75 l 553 -4 l 464 -4 l 464 -139 m 372 315 l 161 75 l 372 75 l 372 315 z "},"₅":{"ha":553,"x_min":57,"x_max":489,"o":"m 57 -39 l 122 21 q 190 -50 154 -28 q 272 -72 225 -72 q 360 -37 325 -72 q 394 47 394 -3 q 360 124 394 93 q 276 156 326 156 q 210 143 238 156 q 161 107 182 131 l 124 110 q 182 201 139 168 q 285 235 225 235 q 431 182 374 235 q 489 47 489 129 q 460 -55 489 -10 q 383 -126 432 -100 q 272 -151 335 -151 q 57 -39 133 -151 m 447 349 l 174 349 l 194 392 l 161 107 l 74 107 l 114 428 l 447 428 l 447 349 z "},"₆":{"ha":586,"x_min":74,"x_max":515,"o":"m 294 -151 q 178 -124 228 -151 q 101 -50 129 -97 q 74 58 74 -3 q 101 178 74 117 q 185 301 128 239 q 331 428 242 364 l 464 428 q 264 266 333 336 q 175 126 194 196 l 158 135 q 217 206 178 179 q 306 233 256 233 q 409 209 361 233 q 486 142 457 185 q 515 44 515 100 q 486 -56 515 -11 q 408 -126 457 -100 q 294 -151 358 -151 m 294 -71 q 385 -37 349 -71 q 422 43 422 -4 q 385 124 422 92 q 294 156 349 156 q 203 124 239 156 q 167 43 167 92 q 203 -37 167 -4 q 294 -71 239 -71 z "},"₇":{"ha":565,"x_min":76,"x_max":489,"o":"m 489 428 l 489 347 l 186 -139 l 85 -139 l 390 347 l 76 347 l 76 428 l 489 428 z "},"₈":{"ha":588,"x_min":71,"x_max":517,"o":"m 294 -151 q 134 -105 197 -151 q 71 15 71 -58 q 133 134 71 89 q 294 179 196 179 q 455 134 393 179 q 517 15 517 89 q 454 -105 517 -58 q 294 -151 392 -151 m 294 140 q 149 183 206 140 q 93 289 93 225 q 150 397 93 354 q 294 440 207 440 q 438 397 381 440 q 494 289 494 354 q 439 183 494 225 q 294 140 383 140 m 294 -72 q 385 -47 349 -72 q 422 19 422 -22 q 385 88 422 60 q 294 115 349 115 q 203 88 240 115 q 165 18 165 60 q 203 -47 165 -22 q 294 -72 240 -72 m 294 194 q 369 219 339 194 q 400 281 400 244 q 369 339 400 317 q 294 361 339 361 q 219 338 250 361 q 188 279 188 315 q 219 219 188 244 q 294 194 250 194 z "},"₉":{"ha":586,"x_min":71,"x_max":513,"o":"m 292 440 q 408 413 358 440 q 485 339 457 386 q 513 231 513 292 q 485 111 513 172 q 402 -12 458 50 q 256 -139 346 -75 l 122 -139 q 324 24 254 -47 q 411 163 393 94 l 428 154 q 369 83 408 110 q 281 56 331 56 q 177 80 225 56 q 100 147 129 104 q 71 244 71 189 q 100 344 71 300 q 179 415 129 389 q 292 440 229 440 m 292 360 q 201 327 238 360 q 164 246 164 294 q 201 166 164 199 q 292 133 238 133 q 383 166 347 133 q 419 246 419 199 q 383 327 419 294 q 292 360 347 360 z "},"⁰":{"ha":618,"x_min":88,"x_max":531,"o":"m 310 549 q 146 627 204 549 q 88 844 88 706 q 146 1063 88 985 q 310 1140 204 1140 q 472 1063 414 1140 q 531 844 531 985 q 472 627 531 706 q 310 549 414 549 m 310 629 q 403 684 371 629 q 436 844 436 739 q 403 1005 436 950 q 310 1060 371 1060 q 215 1005 247 1060 q 182 844 182 950 q 215 684 182 739 q 310 629 247 629 z "},"¹":{"ha":508,"x_min":111,"x_max":343,"o":"m 263 1132 l 343 1132 l 343 561 l 250 561 l 250 1021 l 111 914 l 111 1014 l 263 1132 z "},"²":{"ha":594,"x_min":65,"x_max":486,"o":"m 486 561 l 72 561 l 72 631 l 274 813 q 353 895 325 858 q 381 971 381 932 q 353 1033 381 1007 q 282 1060 326 1060 q 200 1033 239 1060 q 133 958 161 1006 l 65 1019 q 165 1110 108 1079 q 285 1140 221 1140 q 385 1118 342 1140 q 451 1058 428 1096 q 475 971 475 1019 q 438 864 475 914 q 331 750 401 814 q 251 679 283 707 q 186 624 219 651 l 179 642 l 486 642 l 486 561 z "},"³":{"ha":563,"x_min":54,"x_max":492,"o":"m 54 661 l 119 721 q 189 652 149 676 q 278 628 229 628 q 365 656 332 628 q 397 725 397 683 q 363 792 397 765 q 268 818 329 818 l 226 818 l 226 896 l 268 896 q 351 919 318 896 q 383 979 383 942 q 355 1038 383 1014 q 281 1061 326 1061 q 200 1038 238 1061 q 135 969 163 1014 l 71 1028 q 163 1110 104 1079 q 288 1140 221 1140 q 385 1119 343 1140 q 453 1063 428 1097 q 478 985 478 1028 q 419 881 478 921 q 261 840 361 840 l 261 879 q 430 835 368 879 q 492 718 492 790 q 465 633 492 672 q 392 572 439 594 q 282 549 344 549 q 151 579 211 549 q 54 661 90 610 z "},"⁴":{"ha":607,"x_min":60,"x_max":553,"o":"m 464 561 l 372 561 l 372 696 l 60 696 l 60 775 l 372 1128 l 464 1128 l 464 775 l 553 775 l 553 696 l 464 696 l 464 561 m 372 1015 l 161 775 l 372 775 l 372 1015 z "},"⁵":{"ha":553,"x_min":57,"x_max":489,"o":"m 57 661 l 122 721 q 190 650 154 672 q 272 628 225 628 q 360 663 325 628 q 394 747 394 697 q 360 824 394 793 q 276 856 326 856 q 210 843 238 856 q 161 807 182 831 l 124 810 q 182 901 139 868 q 285 935 225 935 q 431 882 374 935 q 489 747 489 829 q 460 645 489 690 q 383 574 432 600 q 272 549 335 549 q 57 661 133 549 m 447 1049 l 174 1049 l 194 1092 l 161 807 l 74 807 l 114 1128 l 447 1128 l 447 1049 z "},"⁶":{"ha":586,"x_min":74,"x_max":515,"o":"m 294 549 q 178 576 228 549 q 101 650 129 603 q 74 758 74 697 q 101 878 74 817 q 185 1001 128 939 q 331 1128 242 1064 l 464 1128 q 264 966 333 1036 q 175 826 194 896 l 158 835 q 217 906 178 879 q 306 933 256 933 q 409 909 361 933 q 486 842 457 885 q 515 744 515 800 q 486 644 515 689 q 408 574 457 600 q 294 549 358 549 m 294 629 q 385 663 349 629 q 422 743 422 696 q 385 824 422 792 q 294 856 349 856 q 203 824 239 856 q 167 743 167 792 q 203 663 167 696 q 294 629 239 629 z "},"⁷":{"ha":565,"x_min":76,"x_max":489,"o":"m 489 1128 l 489 1047 l 186 561 l 85 561 l 390 1047 l 76 1047 l 76 1128 l 489 1128 z "},"⁸":{"ha":588,"x_min":71,"x_max":517,"o":"m 294 549 q 134 595 197 549 q 71 715 71 642 q 133 834 71 789 q 294 879 196 879 q 455 834 393 879 q 517 715 517 789 q 454 595 517 642 q 294 549 392 549 m 294 840 q 149 883 206 840 q 93 989 93 925 q 150 1097 93 1054 q 294 1140 207 1140 q 438 1097 381 1140 q 494 989 494 1054 q 439 883 494 925 q 294 840 383 840 m 294 628 q 385 653 349 628 q 422 719 422 678 q 385 788 422 760 q 294 815 349 815 q 203 788 240 815 q 165 718 165 760 q 203 653 165 678 q 294 628 240 628 m 294 894 q 369 919 339 894 q 400 981 400 944 q 369 1039 400 1017 q 294 1061 339 1061 q 219 1038 250 1061 q 188 979 188 1015 q 219 919 188 944 q 294 894 250 894 z "},"⁹":{"ha":586,"x_min":71,"x_max":513,"o":"m 292 1140 q 408 1113 358 1140 q 485 1039 457 1086 q 513 931 513 992 q 485 811 513 872 q 402 688 458 750 q 256 561 346 625 l 122 561 q 324 724 254 653 q 411 863 393 794 l 428 854 q 369 783 408 810 q 281 756 331 756 q 177 780 225 756 q 100 847 129 804 q 71 944 71 889 q 100 1044 71 1000 q 179 1115 129 1089 q 292 1140 229 1140 m 292 1060 q 201 1027 238 1060 q 164 946 164 994 q 201 866 164 899 q 292 833 238 833 q 383 866 347 833 q 419 946 419 899 q 383 1027 419 994 q 292 1060 347 1060 z "},"⁄":{"ha":286,"x_min":-243,"x_max":529,"o":"m -129 0 l -243 0 l 415 993 l 529 993 l -129 0 z "},"%":{"ha":1050,"x_min":44,"x_max":1006,"o":"m 253 0 l 139 0 l 797 993 l 911 993 l 253 0 m 789 -8 q 678 20 728 -8 q 601 98 629 49 q 572 208 572 147 q 601 319 572 269 q 678 397 629 368 q 789 425 728 425 q 900 397 851 425 q 977 319 949 368 q 1006 208 1006 269 q 977 98 1006 147 q 900 20 949 49 q 789 -8 851 -8 m 789 78 q 877 115 843 78 q 911 208 911 151 q 877 302 911 265 q 789 339 843 339 q 701 302 735 339 q 667 208 667 265 q 701 115 667 151 q 789 78 735 78 m 261 568 q 151 597 200 568 q 73 674 101 625 q 44 785 44 724 q 73 895 44 846 q 151 973 101 944 q 261 1001 200 1001 q 372 973 324 1001 q 449 895 421 944 q 478 785 478 846 q 449 674 478 724 q 372 597 421 625 q 261 568 324 568 m 261 654 q 349 691 315 654 q 383 785 383 728 q 349 878 383 842 q 261 915 315 915 q 173 878 207 915 q 139 785 139 842 q 173 691 139 728 q 261 654 207 654 z "},"‰":{"ha":1535,"x_min":44,"x_max":1490,"o":"m 253 0 l 139 0 l 797 993 l 911 993 l 253 0 m 789 -8 q 678 20 728 -8 q 601 98 629 49 q 572 208 572 147 q 601 319 572 269 q 678 397 629 368 q 789 425 728 425 q 900 397 851 425 q 977 319 949 368 q 1006 208 1006 269 q 977 98 1006 147 q 900 20 949 49 q 789 -8 851 -8 m 789 78 q 877 115 843 78 q 911 208 911 151 q 877 302 911 265 q 789 339 843 339 q 701 302 735 339 q 667 208 667 265 q 701 115 667 151 q 789 78 735 78 m 1274 -8 q 1163 20 1213 -8 q 1085 98 1114 49 q 1057 208 1057 147 q 1085 319 1057 269 q 1163 397 1114 368 q 1274 425 1213 425 q 1385 397 1336 425 q 1462 319 1433 368 q 1490 208 1490 269 q 1462 98 1490 147 q 1385 20 1433 49 q 1274 -8 1336 -8 m 1274 78 q 1362 115 1328 78 q 1396 208 1396 151 q 1362 302 1396 265 q 1274 339 1328 339 q 1185 302 1219 339 q 1151 208 1151 265 q 1185 115 1151 151 q 1274 78 1219 78 m 261 568 q 151 597 200 568 q 73 674 101 625 q 44 785 44 724 q 73 895 44 846 q 151 973 101 944 q 261 1001 200 1001 q 372 973 324 1001 q 449 895 421 944 q 478 785 478 846 q 449 674 478 724 q 372 597 421 625 q 261 568 324 568 m 261 654 q 349 691 315 654 q 383 785 383 728 q 349 878 383 842 q 261 915 315 915 q 173 878 207 915 q 139 785 139 842 q 173 691 139 728 q 261 654 207 654 z "},"½":{"ha":1361,"x_min":111,"x_max":1253,"o":"m 365 0 l 251 0 l 910 993 l 1024 993 l 365 0 m 1253 0 l 839 0 l 839 69 l 1040 251 q 1119 334 1092 297 q 1147 410 1147 371 q 1120 472 1147 446 q 1049 499 1093 499 q 967 472 1006 499 q 900 397 928 444 l 832 458 q 931 549 875 518 q 1051 579 988 579 q 1151 557 1108 579 q 1218 497 1194 535 q 1242 410 1242 458 q 1205 303 1242 353 q 1097 189 1168 253 q 1018 118 1050 146 q 953 63 986 90 l 946 81 l 1253 81 l 1253 0 m 263 993 l 343 993 l 343 422 l 250 422 l 250 882 l 111 775 l 111 875 l 263 993 z "},"¼":{"ha":1304,"x_min":111,"x_max":1250,"o":"m 365 0 l 251 0 l 910 993 l 1024 993 l 365 0 m 1161 0 l 1069 0 l 1069 135 l 757 135 l 757 214 l 1069 567 l 1161 567 l 1161 214 l 1250 214 l 1250 135 l 1161 135 l 1161 0 m 1069 454 l 858 214 l 1069 214 l 1069 454 m 263 993 l 343 993 l 343 422 l 250 422 l 250 882 l 111 775 l 111 875 l 263 993 z "},"¾":{"ha":1357,"x_min":54,"x_max":1303,"o":"m 418 0 l 304 0 l 963 993 l 1076 993 l 418 0 m 1214 0 l 1122 0 l 1122 135 l 810 135 l 810 214 l 1122 567 l 1214 567 l 1214 214 l 1303 214 l 1303 135 l 1214 135 l 1214 0 m 1122 454 l 911 214 l 1122 214 l 1122 454 m 54 522 l 119 582 q 189 513 149 538 q 278 489 229 489 q 365 517 332 489 q 397 586 397 544 q 363 653 397 626 q 268 679 329 679 l 226 679 l 226 757 l 268 757 q 351 780 318 757 q 383 840 383 803 q 355 899 383 875 q 281 922 326 922 q 200 899 238 922 q 135 831 163 875 l 71 889 q 163 971 104 940 q 288 1001 221 1001 q 385 980 343 1001 q 453 924 428 958 q 478 846 478 889 q 419 742 478 782 q 261 701 361 701 l 261 740 q 430 696 368 740 q 492 579 492 651 q 465 494 492 533 q 392 433 439 456 q 282 410 344 410 q 151 440 211 410 q 54 522 90 471 z "},"$":{"ha":917,"x_min":85,"x_max":833,"o":"m 85 172 l 158 240 q 288 124 211 168 q 467 81 365 81 q 603 106 542 81 q 699 176 664 131 q 735 281 735 221 q 707 369 735 333 q 619 430 679 406 q 465 468 560 454 q 201 557 281 496 q 121 732 121 618 q 165 871 121 810 q 287 967 210 932 q 461 1001 364 1001 q 653 953 564 1001 q 806 821 742 906 l 732 753 q 614 869 683 826 q 461 913 544 913 q 286 863 353 913 q 219 732 219 813 q 245 649 219 683 q 324 594 271 615 q 460 560 376 572 q 748 465 663 531 q 833 281 833 400 q 783 131 833 196 q 650 28 733 65 q 467 -8 567 -8 q 249 40 344 -8 q 85 172 153 88 m 513 522 l 424 522 l 424 1154 l 513 1154 l 513 522 m 513 -161 l 424 -161 l 424 508 l 513 508 l 513 -161 z "},"¢":{"ha":917,"x_min":138,"x_max":778,"o":"m 704 178 l 778 110 q 659 13 731 49 q 497 -22 588 -22 q 312 25 393 -22 q 184 154 231 72 q 138 342 138 236 q 184 529 138 447 q 313 658 231 611 q 499 706 394 706 q 660 670 589 706 q 778 574 731 635 l 704 506 q 621 585 671 556 q 499 615 571 615 q 367 581 424 615 q 278 484 310 546 q 246 342 246 422 q 278 199 246 261 q 367 103 310 138 q 499 68 424 68 q 621 98 571 68 q 704 178 671 128 m 538 -161 l 449 -161 l 449 844 l 538 844 l 538 -161 z "},"£":{"ha":917,"x_min":90,"x_max":850,"o":"m 850 0 l 90 0 l 90 89 l 850 89 l 850 0 m 697 444 l 104 444 l 104 533 l 697 533 l 697 444 m 850 849 l 776 781 q 678 890 729 856 q 561 925 626 925 q 412 860 464 925 q 360 685 360 794 l 360 46 l 257 46 l 257 682 q 293 857 257 782 q 398 974 329 932 q 561 1015 467 1015 q 726 972 654 1015 q 850 849 799 929 z "},"¥":{"ha":917,"x_min":39,"x_max":878,"o":"m 510 0 l 407 0 l 407 443 l 39 993 l 161 993 l 479 497 l 442 497 l 760 993 l 878 993 l 510 440 l 510 0 m 749 158 l 169 158 l 169 247 l 749 247 l 749 158 m 749 381 l 169 381 l 169 469 l 749 469 l 749 381 z "},"€":{"ha":917,"x_min":26,"x_max":894,"o":"m 818 226 l 892 158 q 739 26 828 74 q 547 -22 650 -22 q 328 44 424 -22 q 178 227 232 110 q 124 496 124 344 q 178 767 124 650 q 330 949 233 883 q 550 1015 426 1015 q 742 967 653 1015 q 894 835 831 919 l 821 767 q 703 878 772 836 q 550 921 633 921 q 319 810 407 921 q 232 496 232 699 q 272 269 232 364 q 383 123 311 174 q 549 72 454 72 q 700 115 631 72 q 818 226 769 158 m 640 343 l 26 343 l 26 432 l 657 432 l 640 343 m 682 565 l 26 565 l 26 654 l 699 654 l 682 565 z "},"₺":{"ha":917,"x_min":39,"x_max":871,"o":"m 193 0 l 193 993 l 296 993 l 296 90 l 403 90 q 675 182 582 90 q 768 469 768 274 l 768 490 l 871 483 l 871 469 q 751 115 871 231 q 403 0 632 0 l 193 0 m 576 522 l 39 296 l 39 390 l 576 617 l 576 522 m 576 750 l 39 524 l 39 618 l 576 844 l 576 750 z "},"₹":{"ha":917,"x_min":72,"x_max":875,"o":"m 72 899 l 72 965 l 411 965 q 583 934 510 965 q 697 847 656 903 q 738 715 738 790 q 697 569 738 632 q 583 472 656 507 q 411 438 510 438 l 74 438 l 74 532 l 411 532 q 570 581 513 532 q 628 715 628 629 q 570 850 628 801 q 411 899 513 899 l 72 899 m 849 0 l 669 0 l 74 438 l 226 447 l 849 0 m 815 668 l 72 668 l 72 763 l 833 763 l 815 668 m 857 899 l 72 899 l 72 993 l 875 993 l 857 899 z "},"₽":{"ha":917,"x_min":49,"x_max":876,"o":"m 326 0 l 224 0 l 224 993 l 550 993 q 722 958 649 993 q 835 861 794 924 q 876 715 876 799 q 835 569 876 632 q 722 472 794 507 q 550 438 649 438 l 49 438 l 49 526 l 550 526 q 713 576 653 526 q 772 715 772 626 q 713 854 772 804 q 550 904 653 904 l 326 904 l 326 0 m 660 278 l 660 189 l 49 189 l 49 278 l 660 278 z "},"¤":{"ha":878,"x_min":97,"x_max":781,"o":"m 439 306 q 545 334 499 306 q 619 411 592 363 q 646 522 646 460 q 619 634 646 585 q 545 711 592 683 q 439 739 499 739 q 333 711 381 739 q 259 634 286 683 q 232 522 232 585 q 259 411 232 460 q 333 334 286 363 q 439 306 381 306 m 439 224 q 342 240 388 224 q 258 283 296 256 l 156 181 l 97 239 l 200 342 q 158 425 174 379 q 142 522 142 471 q 158 619 142 574 q 200 703 174 665 l 97 806 l 156 864 l 258 761 q 342 805 296 789 q 439 821 388 821 q 536 805 490 821 q 619 761 582 789 l 722 864 l 781 806 l 678 703 q 721 619 706 665 q 736 522 736 574 q 721 425 736 471 q 678 342 706 379 l 781 239 l 722 181 l 619 283 q 536 240 582 256 q 439 224 490 224 z "},"₫":{"ha":907,"x_min":135,"x_max":814,"o":"m 413 183 q 271 221 333 183 q 172 324 208 258 q 135 474 135 389 q 171 622 135 557 q 269 726 207 688 q 410 764 331 764 q 563 713 500 764 q 639 579 625 663 l 613 579 l 613 993 l 715 993 l 715 201 l 614 201 l 614 342 l 613 346 l 613 461 q 560 616 613 556 q 426 676 508 676 q 294 619 346 676 q 242 474 242 561 q 294 328 242 385 q 431 272 347 272 q 561 317 506 272 q 622 435 617 363 l 644 413 q 623 297 651 349 q 540 214 594 244 q 413 183 486 183 m 150 1 l 150 86 l 715 86 l 715 1 l 150 1 m 450 833 l 450 908 l 814 908 l 814 833 l 450 833 z "},"^":{"ha":917,"x_min":143,"x_max":774,"o":"m 425 993 l 518 993 l 774 492 l 671 492 l 425 993 m 399 993 l 486 993 l 239 492 l 143 492 l 399 993 z "},"+":{"ha":917,"x_min":174,"x_max":743,"o":"m 743 453 l 174 453 l 174 539 l 743 539 l 743 453 m 501 211 l 415 211 l 415 781 l 501 781 l 501 211 z "},"−":{"ha":917,"x_min":174,"x_max":743,"o":"m 743 453 l 174 453 l 174 539 l 743 539 l 743 453 z "},"±":{"ha":917,"x_min":174,"x_max":743,"o":"m 743 453 l 174 453 l 174 539 l 743 539 l 743 453 m 501 211 l 415 211 l 415 781 l 501 781 l 501 211 m 743 0 l 174 0 l 174 86 l 743 86 l 743 0 z "},"=":{"ha":917,"x_min":188,"x_max":729,"o":"m 729 311 l 188 311 l 188 397 l 729 397 l 729 311 m 729 594 l 188 594 l 188 681 l 729 681 l 729 594 z "},"÷":{"ha":917,"x_min":146,"x_max":771,"o":"m 771 453 l 146 453 l 146 539 l 771 539 l 771 453 m 458 636 q 406 658 428 636 q 383 710 383 679 q 406 763 383 742 q 458 785 428 785 q 512 763 490 785 q 533 710 533 742 q 512 658 533 679 q 458 636 490 636 m 458 207 q 406 228 428 207 q 383 281 383 250 q 406 334 383 313 q 458 356 428 356 q 512 334 490 356 q 533 281 533 313 q 512 228 533 250 q 458 207 490 207 z "},"<":{"ha":917,"x_min":172,"x_max":744,"o":"m 172 532 l 744 292 l 744 192 l 172 440 l 172 532 m 172 560 l 744 807 l 744 711 l 172 472 l 172 560 z "},">":{"ha":917,"x_min":172,"x_max":744,"o":"m 172 707 l 172 807 l 744 558 l 744 467 l 172 707 m 172 192 l 172 288 l 744 526 l 744 439 l 172 192 z "},"~":{"ha":917,"x_min":136,"x_max":779,"o":"m 694 608 l 779 578 q 716 424 758 472 q 601 376 674 376 q 535 393 575 376 q 440 454 496 410 q 377 502 400 486 q 340 524 354 518 q 314 529 326 529 q 253 491 275 529 q 221 383 231 453 l 136 414 q 199 567 157 519 q 314 615 242 615 q 380 599 340 615 q 475 538 419 582 q 538 490 515 506 q 575 468 561 474 q 601 463 589 463 q 663 501 642 463 q 694 608 685 540 z "},"¬":{"ha":917,"x_min":174,"x_max":743,"o":"m 743 243 l 657 243 l 657 453 l 174 453 l 174 539 l 743 539 l 743 243 z "},"×":{"ha":917,"x_min":200,"x_max":717,"o":"m 717 296 l 658 238 l 200 696 l 258 754 l 717 296 m 658 754 l 717 696 l 258 238 l 200 296 l 658 754 z "},"_":{"ha":694,"x_min":0,"x_max":694,"o":"m 694 -178 l 0 -178 l 0 -92 l 694 -92 l 694 -178 z "},"§":{"ha":828,"x_min":122,"x_max":724,"o":"m 724 419 q 685 305 724 356 q 583 225 647 254 q 661 151 635 194 q 688 44 688 108 q 653 -66 688 -15 q 558 -147 618 -117 q 421 -178 497 -178 q 256 -144 335 -178 q 122 -53 176 -111 l 178 14 q 284 -62 221 -33 q 419 -92 347 -92 q 541 -52 492 -92 q 590 40 590 -12 q 547 144 590 108 q 418 203 503 181 q 210 290 279 239 q 140 429 140 340 q 178 543 140 493 q 281 624 217 593 q 176 790 176 686 q 210 906 176 856 q 301 986 243 957 q 431 1015 358 1015 q 583 982 510 1015 q 706 892 656 949 l 647 825 q 555 900 608 871 q 432 929 501 929 q 319 892 364 929 q 274 794 274 856 q 317 703 274 739 q 446 646 361 668 q 654 560 586 610 q 724 419 722 510 m 626 415 q 577 500 625 468 q 439 557 529 532 l 363 578 q 275 524 313 560 q 238 436 238 489 q 285 349 238 382 q 425 292 333 317 l 501 271 q 589 325 551 289 q 626 415 626 361 z "},"¶":{"ha":867,"x_min":72,"x_max":735,"o":"m 472 -181 l 375 -181 l 375 417 q 217 460 285 422 q 110 560 149 497 q 72 704 72 624 q 115 856 72 792 q 237 957 158 921 q 418 993 315 993 l 735 993 l 735 -181 l 638 -181 l 638 906 l 472 906 l 472 -181 z "},"#":{"ha":917,"x_min":60,"x_max":857,"o":"m 575 0 l 486 0 l 697 993 l 786 993 l 575 0 m 767 281 l 60 281 l 75 357 l 782 357 l 767 281 m 342 993 l 431 993 l 219 0 l 131 0 l 342 993 m 150 713 l 857 713 l 842 636 l 135 636 l 150 713 z "},"|":{"ha":297,"x_min":97,"x_max":200,"o":"m 200 -179 l 97 -179 l 97 1022 l 200 1022 l 200 -179 z "},"†":{"ha":661,"x_min":74,"x_max":588,"o":"m 385 -179 l 282 -179 l 282 1022 l 385 1022 l 385 -179 m 588 597 l 74 597 l 74 683 l 588 683 l 588 597 z "},"‡":{"ha":661,"x_min":74,"x_max":588,"o":"m 385 -179 l 282 -179 l 282 1022 l 385 1022 l 385 -179 m 588 597 l 74 597 l 74 683 l 588 683 l 588 597 m 74 246 l 588 246 l 588 160 l 74 160 l 74 246 z "},"°":{"ha":622,"x_min":76,"x_max":546,"o":"m 311 543 q 194 575 247 543 q 108 661 140 607 q 76 779 76 715 q 108 898 76 844 q 194 983 140 951 q 311 1015 247 1015 q 429 983 376 1015 q 514 898 482 951 q 546 779 546 844 q 514 661 546 715 q 429 575 482 607 q 311 543 376 543 m 311 628 q 414 672 372 628 q 456 779 456 715 q 414 887 456 843 q 311 931 372 931 q 209 887 251 931 q 167 779 167 843 q 209 672 167 715 q 311 628 251 628 z "},"↑":{"ha":1044,"x_min":139,"x_max":906,"o":"m 574 893 l 574 0 l 471 0 l 471 893 l 574 893 m 139 519 l 139 660 l 522 1015 l 906 660 l 906 519 l 522 876 l 139 519 z "},"↓":{"ha":1044,"x_min":139,"x_max":906,"o":"m 574 993 l 574 100 l 471 100 l 471 993 l 574 993 m 139 333 l 139 474 l 522 117 l 906 474 l 906 333 l 522 -22 l 139 333 z "},"←":{"ha":1293,"x_min":139,"x_max":1154,"o":"m 639 0 l 494 0 l 139 342 l 494 683 l 639 683 l 289 342 l 639 0 m 1154 292 l 268 292 l 268 392 l 1154 392 l 1154 292 z "},"→":{"ha":1293,"x_min":139,"x_max":1154,"o":"m 799 0 l 654 0 l 1004 342 l 654 683 l 799 683 l 1154 342 l 799 0 m 1025 292 l 139 292 l 139 392 l 1025 392 l 1025 292 z "},"▲":{"ha":1044,"x_min":139,"x_max":906,"o":"m 139 92 l 139 233 l 522 589 l 906 233 l 906 92 l 522 442 l 139 92 z "},"▼":{"ha":1044,"x_min":139,"x_max":906,"o":"m 139 447 l 139 589 l 522 239 l 906 589 l 906 447 l 522 92 l 139 447 z "},"◀":{"ha":781,"x_min":139,"x_max":642,"o":"m 642 0 l 494 0 l 139 342 l 494 683 l 642 683 l 292 342 l 642 0 z "},"▶":{"ha":781,"x_min":139,"x_max":642,"o":"m 286 0 l 139 0 l 489 342 l 139 683 l 286 683 l 642 342 l 286 0 z "},"-":{"ha":464,"x_min":46,"x_max":418,"o":"m 418 346 l 46 346 l 46 439 l 418 439 l 418 346 z "},"‐":{"ha":464,"x_min":46,"x_max":418,"o":"m 418 346 l 46 346 l 46 439 l 418 439 l 418 346 z "},"‑":{"ha":464,"x_min":46,"x_max":418,"o":"m 418 346 l 46 346 l 46 439 l 418 439 l 418 346 z "},"–":{"ha":694,"x_min":0,"x_max":694,"o":"m 694 342 l 0 342 l 0 428 l 694 428 l 694 342 z "},"—":{"ha":1389,"x_min":0,"x_max":1389,"o":"m 1389 342 l 0 342 l 0 428 l 1389 428 l 1389 342 z "},"(":{"ha":439,"x_min":86,"x_max":386,"o":"m 86 418 q 138 737 86 585 q 288 1015 190 889 l 386 1015 q 236 724 286 872 q 186 418 186 575 q 386 -179 186 108 l 288 -179 q 138 99 190 -53 q 86 418 86 251 z "},")":{"ha":439,"x_min":53,"x_max":353,"o":"m 353 418 q 301 99 353 251 q 151 -179 250 -53 l 53 -179 q 253 418 253 108 q 203 724 253 575 q 53 1015 153 872 l 151 1015 q 301 737 250 889 q 353 418 353 585 z "},"/":{"ha":672,"x_min":85,"x_max":588,"o":"m 182 0 l 85 0 l 490 1015 l 588 1015 l 182 0 z "},"\\":{"ha":672,"x_min":85,"x_max":588,"o":"m 588 0 l 490 0 l 85 1015 l 182 1015 l 588 0 z "},"[":{"ha":435,"x_min":97,"x_max":372,"o":"m 372 -179 l 97 -179 l 97 1015 l 372 1015 l 372 929 l 200 929 l 200 -93 l 372 -93 l 372 -179 z "},"]":{"ha":435,"x_min":63,"x_max":338,"o":"m 338 -179 l 63 -179 l 63 -93 l 235 -93 l 235 929 l 63 929 l 63 1015 l 338 1015 l 338 -179 z "},"{":{"ha":540,"x_min":63,"x_max":478,"o":"m 478 -93 l 478 -179 l 368 -179 q 203 -14 203 -179 l 203 292 q 183 356 203 336 q 118 376 163 376 l 63 376 l 63 463 l 118 463 q 183 483 163 463 q 203 547 203 504 l 203 850 q 368 1015 203 1015 l 478 1015 l 478 929 l 390 929 q 326 909 346 929 q 306 844 306 889 l 306 569 q 140 404 306 404 l 140 435 q 306 269 306 435 l 306 -8 q 326 -72 306 -51 q 390 -93 346 -93 l 478 -93 z "},"}":{"ha":540,"x_min":63,"x_max":478,"o":"m 63 -179 l 63 -93 l 150 -93 q 215 -72 194 -93 q 235 -8 235 -51 l 235 269 q 400 435 235 435 l 400 404 q 235 569 235 404 l 235 844 q 215 909 235 889 q 150 929 194 929 l 63 929 l 63 1015 l 172 1015 q 338 850 338 1015 l 338 547 q 358 483 338 504 q 422 463 378 463 l 478 463 l 478 376 l 422 376 q 358 356 378 376 q 338 292 338 336 l 338 -14 q 172 -179 338 -179 l 63 -179 z "},"•":{"ha":492,"x_min":82,"x_max":410,"o":"m 82 381 q 104 463 82 426 q 164 522 126 500 q 246 544 201 544 q 328 522 292 544 q 388 463 365 500 q 410 381 410 426 q 388 299 410 336 q 328 239 365 261 q 246 217 292 217 q 164 239 201 217 q 104 299 126 261 q 82 381 82 336 z "},"‹":{"ha":442,"x_min":56,"x_max":369,"o":"m 254 47 l 56 342 l 254 636 l 369 636 l 171 342 l 369 47 l 254 47 z "},"›":{"ha":442,"x_min":72,"x_max":386,"o":"m 188 636 l 386 342 l 188 47 l 72 47 l 271 342 l 72 636 l 188 636 z "},"«":{"ha":697,"x_min":56,"x_max":625,"o":"m 254 47 l 56 342 l 254 636 l 369 636 l 171 342 l 369 47 l 254 47 m 510 47 l 311 342 l 510 636 l 625 636 l 426 342 l 625 47 l 510 47 z "},"»":{"ha":697,"x_min":72,"x_max":642,"o":"m 188 636 l 386 342 l 188 47 l 72 47 l 271 342 l 72 636 l 188 636 m 443 636 l 642 342 l 443 47 l 328 47 l 526 342 l 328 636 l 443 636 z "},"@":{"ha":1468,"x_min":99,"x_max":1371,"o":"m 706 60 q 556 99 622 60 q 449 208 489 139 q 410 361 410 276 q 449 517 410 449 q 556 625 489 586 q 706 664 624 664 q 839 631 782 664 q 928 541 896 597 q 960 415 960 485 q 957 381 960 399 q 949 340 954 363 l 925 368 q 898 476 925 428 q 824 553 871 524 q 715 582 776 582 q 610 553 657 582 q 535 474 563 524 q 507 361 507 425 q 533 249 507 299 q 607 171 560 200 q 715 142 654 142 q 829 170 776 142 q 915 248 882 199 q 949 358 949 297 l 968 322 q 949 192 982 251 q 851 96 915 132 q 706 60 786 60 m 1083 -50 l 1154 -114 q 1056 -194 1117 -158 q 915 -249 994 -229 q 744 -269 836 -269 q 490 -222 607 -269 q 285 -87 372 -174 q 148 114 197 -1 q 99 364 99 229 q 148 622 99 503 q 286 828 197 740 q 494 966 375 917 q 751 1015 613 1015 q 998 969 885 1015 q 1195 840 1111 924 q 1325 642 1279 756 q 1371 396 1371 529 q 1305 150 1371 240 q 1122 60 1239 60 q 981 115 1038 60 q 925 260 925 171 l 925 458 l 926 471 l 926 644 l 1017 644 l 1017 282 q 1048 178 1017 210 q 1128 147 1079 147 q 1235 211 1197 147 q 1274 390 1274 275 q 1208 670 1274 549 q 1024 860 1142 792 q 753 929 907 929 q 531 887 632 929 q 354 768 429 844 q 238 589 279 692 q 196 364 196 486 q 238 149 196 249 q 356 -26 281 49 q 531 -142 431 -100 q 746 -183 631 -183 q 953 -145 861 -183 q 1083 -50 1044 -107 z "},"·":{"ha":308,"x_min":76,"x_max":232,"o":"m 232 392 q 209 337 232 360 q 154 314 186 314 q 99 337 122 314 q 76 392 76 360 q 99 447 76 424 q 154 469 122 469 q 209 447 186 469 q 232 392 232 424 z "},"&":{"ha":940,"x_min":63,"x_max":929,"o":"m 900 421 l 718 172 q 550 20 631 63 q 374 -22 469 -22 q 208 15 278 -22 q 100 113 138 51 q 63 250 63 175 q 136 441 63 361 q 354 568 210 521 l 388 496 q 226 397 278 456 q 174 260 174 338 q 229 124 174 179 q 378 68 285 68 q 468 83 425 68 q 555 135 511 99 q 646 236 599 172 l 824 478 l 900 421 m 929 60 l 860 -11 l 340 486 l 324 501 q 224 610 260 564 q 173 698 188 657 q 158 783 158 739 q 192 899 158 846 q 285 983 226 951 q 417 1015 343 1015 q 549 983 490 1015 q 640 899 607 951 q 674 783 674 847 q 638 660 674 714 q 542 566 603 606 q 408 499 482 526 l 367 569 q 513 649 457 601 q 569 774 569 696 q 526 882 569 839 q 417 925 483 925 q 310 881 354 925 q 265 774 265 838 q 281 704 265 739 q 328 632 296 669 q 411 551 360 594 l 433 532 l 929 60 z "},"*":{"ha":572,"x_min":36,"x_max":536,"o":"m 286 701 q 239 598 260 636 q 207 544 218 560 q 160 517 188 517 q 122 533 139 517 q 106 568 106 549 q 121 608 106 586 q 160 654 132 624 q 242 731 188 685 q 134 746 171 738 q 79 760 97 754 q 36 811 36 772 q 51 850 36 835 q 88 865 65 865 q 121 858 104 865 q 172 835 140 851 q 258 783 203 819 q 238 894 243 853 q 232 956 232 936 q 247 999 232 983 q 286 1015 261 1015 q 326 999 311 1015 q 340 956 340 983 q 335 894 340 936 q 314 783 329 853 q 401 835 369 819 q 451 858 432 851 q 485 865 469 865 q 522 850 508 865 q 536 811 536 835 q 493 760 536 772 q 438 746 475 754 q 331 731 401 738 q 413 654 385 685 q 451 608 442 624 q 467 568 467 586 q 450 533 467 549 q 413 517 433 517 q 365 544 385 517 q 334 598 354 560 q 286 701 314 636 z "},"­":{"ha":464,"x_min":46,"x_max":418,"o":"m 418 346 l 46 346 l 46 439 l 418 439 l 418 346 z "},"‒":{"ha":917,"x_min":111,"x_max":806,"o":"m 806 453 l 111 453 l 111 539 l 806 539 l 806 453 z "},"―":{"ha":1389,"x_min":0,"x_max":1389,"o":"m 1389 342 l 0 342 l 0 428 l 1389 428 l 1389 342 z "},"A":{"ha":1010,"x_min":50,"x_max":960,"o":"m 771 278 l 231 278 l 231 372 l 771 372 l 771 278 m 960 0 l 847 0 l 479 929 l 526 929 l 158 0 l 50 0 l 447 993 l 563 993 l 960 0 z "},"B":{"ha":925,"x_min":118,"x_max":850,"o":"m 118 0 l 118 993 l 490 993 q 657 960 586 993 q 767 869 728 928 q 806 731 806 810 q 767 603 806 658 q 657 516 728 547 q 490 485 586 485 l 239 485 l 239 551 l 522 551 q 694 518 621 551 q 809 424 768 485 q 850 279 850 363 q 809 133 850 196 q 694 35 768 69 q 522 0 621 0 l 118 0 m 225 94 l 522 94 q 682 143 624 94 q 740 279 740 192 q 682 415 740 367 q 522 464 624 464 l 211 464 l 211 558 l 490 558 q 642 604 586 558 q 697 731 697 650 q 642 853 697 808 q 490 899 586 899 l 225 899 l 225 94 z "},"C":{"ha":1026,"x_min":76,"x_max":969,"o":"m 892 240 l 969 167 q 802 28 906 79 q 575 -22 699 -22 q 377 17 468 -22 q 219 126 286 56 q 114 290 151 196 q 76 496 76 385 q 115 702 76 607 q 221 867 153 797 q 380 976 289 938 q 578 1015 471 1015 q 803 965 701 1015 q 969 826 906 914 l 892 753 q 761 874 840 829 q 578 918 682 918 q 378 863 467 918 q 239 713 290 808 q 188 496 188 618 q 239 280 188 375 q 378 130 290 185 q 578 75 467 75 q 761 119 682 75 q 892 240 840 164 z "},"D":{"ha":1029,"x_min":118,"x_max":954,"o":"m 118 0 l 118 993 l 439 993 q 708 929 592 993 q 889 753 824 865 q 954 497 954 642 q 889 240 954 353 q 708 64 824 128 q 439 0 592 0 l 118 0 m 225 97 l 439 97 q 653 147 563 97 q 794 288 744 197 q 843 497 843 378 q 794 706 843 617 q 653 846 744 796 q 439 896 563 896 l 225 896 l 225 97 z "},"E":{"ha":838,"x_min":118,"x_max":775,"o":"m 775 0 l 118 0 l 118 993 l 775 993 l 775 899 l 225 899 l 225 94 l 775 94 l 775 0 m 749 461 l 211 461 l 211 556 l 749 556 l 749 461 z "},"F":{"ha":803,"x_min":118,"x_max":747,"o":"m 225 0 l 118 0 l 118 993 l 747 993 l 747 899 l 225 899 l 225 0 m 721 461 l 211 461 l 211 556 l 721 556 l 721 461 z "},"G":{"ha":1107,"x_min":76,"x_max":1022,"o":"m 1022 0 l 919 0 l 919 147 l 936 142 q 794 22 885 65 q 592 -22 703 -22 q 387 17 481 -22 q 223 126 293 56 q 115 291 153 196 q 76 497 76 386 q 115 703 76 608 q 222 867 153 797 q 385 976 292 938 q 588 1015 478 1015 q 818 965 715 1015 q 988 826 921 914 l 910 753 q 777 874 857 829 q 588 918 697 918 q 381 863 472 918 q 239 713 290 808 q 188 497 188 618 q 240 281 188 376 q 383 130 292 185 q 593 75 475 75 q 801 127 711 75 q 931 264 892 179 l 918 211 l 918 422 l 582 422 l 582 517 l 1022 517 l 1022 0 z "},"H":{"ha":1031,"x_min":118,"x_max":913,"o":"m 806 0 l 806 993 l 913 993 l 913 0 l 806 0 m 225 0 l 118 0 l 118 993 l 225 993 l 225 0 m 211 468 l 211 564 l 819 564 l 819 468 l 211 468 z "},"I":{"ha":343,"x_min":118,"x_max":225,"o":"m 225 0 l 118 0 l 118 993 l 225 993 l 225 0 z "},"J":{"ha":896,"x_min":56,"x_max":790,"o":"m 790 993 l 790 378 q 694 83 790 188 q 421 -22 599 -22 q 238 16 315 -22 q 114 127 160 54 q 56 304 68 200 l 161 317 q 241 137 175 199 q 421 75 307 75 q 616 153 549 75 q 683 378 683 231 l 683 993 l 790 993 z "},"K":{"ha":954,"x_min":118,"x_max":929,"o":"m 225 0 l 118 0 l 118 993 l 225 993 l 225 0 m 929 0 l 765 0 l 192 515 l 211 515 l 726 993 l 871 993 l 324 497 l 324 533 l 929 0 z "},"L":{"ha":783,"x_min":118,"x_max":733,"o":"m 733 0 l 118 0 l 118 993 l 225 993 l 225 96 l 733 96 l 733 0 z "},"M":{"ha":1250,"x_min":115,"x_max":1132,"o":"m 664 83 l 583 83 l 183 919 l 219 919 l 219 0 l 115 0 l 115 993 l 256 993 l 658 149 l 592 149 l 994 993 l 1132 993 l 1132 0 l 1028 0 l 1028 919 l 1064 919 l 664 83 z "},"N":{"ha":1025,"x_min":115,"x_max":910,"o":"m 218 0 l 115 0 l 115 993 l 232 993 l 829 117 l 807 117 l 807 993 l 910 993 l 910 0 l 793 0 l 196 876 l 218 876 l 218 0 z "},"O":{"ha":1183,"x_min":76,"x_max":1107,"o":"m 592 -22 q 387 17 481 -22 q 223 126 293 56 q 115 291 153 196 q 76 497 76 386 q 115 703 76 608 q 223 867 153 797 q 387 976 293 938 q 592 1015 481 1015 q 797 976 703 1015 q 960 867 890 938 q 1069 703 1031 797 q 1107 497 1107 608 q 1069 291 1107 386 q 960 126 1031 196 q 797 17 890 56 q 592 -22 703 -22 m 592 75 q 802 129 711 75 q 944 279 893 183 q 996 497 996 375 q 944 715 996 619 q 802 864 893 810 q 592 918 711 918 q 382 864 474 918 q 239 715 290 810 q 188 497 188 619 q 239 279 188 375 q 382 129 290 183 q 592 75 474 75 z "},"P":{"ha":894,"x_min":118,"x_max":829,"o":"m 225 0 l 118 0 l 118 993 l 503 993 q 674 958 601 993 q 788 861 747 924 q 829 715 829 799 q 788 569 829 632 q 674 472 747 507 q 503 438 601 438 l 211 438 l 211 532 l 503 532 q 662 581 604 532 q 719 715 719 629 q 662 850 719 801 q 503 899 604 899 l 225 899 l 225 0 z "},"Q":{"ha":1183,"x_min":76,"x_max":1107,"o":"m 1006 -50 l 667 303 l 733 368 l 1072 15 l 1006 -50 m 592 -22 q 387 17 481 -22 q 223 126 293 56 q 115 291 153 196 q 76 497 76 386 q 115 703 76 608 q 223 867 153 797 q 387 976 293 938 q 592 1015 481 1015 q 797 976 703 1015 q 960 867 890 938 q 1069 703 1031 797 q 1107 497 1107 608 q 1069 291 1107 386 q 960 126 1031 196 q 797 17 890 56 q 592 -22 703 -22 m 592 75 q 803 128 713 75 q 945 277 894 182 q 996 497 996 372 q 944 715 996 619 q 802 864 893 810 q 592 918 711 918 q 382 864 474 918 q 239 715 290 810 q 188 497 188 619 q 239 279 188 375 q 382 129 290 183 q 592 75 474 75 z "},"R":{"ha":954,"x_min":118,"x_max":926,"o":"m 225 0 l 118 0 l 118 993 l 503 993 q 674 958 601 993 q 788 861 747 924 q 829 715 829 799 q 788 569 829 632 q 674 472 747 507 q 503 438 601 438 l 211 438 l 211 532 l 503 532 q 662 581 604 532 q 719 715 719 629 q 662 850 719 801 q 503 899 604 899 l 225 899 l 225 0 m 926 0 l 789 0 l 407 463 l 532 463 l 926 0 z "},"S":{"ha":943,"x_min":53,"x_max":865,"o":"m 53 161 l 132 236 q 228 150 175 186 q 342 94 281 114 q 476 75 404 75 q 619 100 557 75 q 718 170 682 125 q 754 276 754 215 q 689 398 754 354 q 467 465 624 442 q 249 520 331 486 q 132 606 168 554 q 96 729 96 657 q 143 878 96 814 q 274 979 190 943 q 465 1015 357 1015 q 684 967 589 1015 q 853 832 779 918 l 775 758 q 644 875 715 832 q 465 918 572 918 q 279 867 351 918 q 207 731 207 817 q 233 655 207 686 q 319 603 260 624 q 478 567 379 582 q 704 509 619 546 q 827 415 789 472 q 865 278 865 358 q 816 122 865 189 q 679 16 767 54 q 476 -22 592 -22 q 238 26 343 -22 q 53 161 133 75 z "},"T":{"ha":868,"x_min":50,"x_max":818,"o":"m 488 0 l 381 0 l 381 911 l 488 911 l 488 0 m 818 897 l 50 897 l 50 993 l 818 993 l 818 897 z "},"U":{"ha":1003,"x_min":104,"x_max":899,"o":"m 899 993 l 899 392 q 793 87 899 196 q 501 -22 688 -22 q 210 87 317 -22 q 104 392 104 196 l 104 993 l 211 993 l 211 392 q 288 156 211 238 q 501 75 364 75 q 717 156 640 75 q 793 392 793 238 l 793 993 l 899 993 z "},"V":{"ha":988,"x_min":50,"x_max":938,"o":"m 551 0 l 436 0 l 50 993 l 165 993 l 518 58 l 474 58 l 828 993 l 938 993 l 551 0 z "},"W":{"ha":1461,"x_min":56,"x_max":1406,"o":"m 1101 0 l 972 0 l 725 868 l 736 868 l 489 0 l 360 0 l 56 993 l 171 993 l 449 56 l 403 56 l 671 993 l 792 993 l 1060 56 l 1018 56 l 1296 993 l 1406 993 l 1101 0 z "},"X":{"ha":928,"x_min":28,"x_max":900,"o":"m 154 0 l 28 0 l 408 544 l 410 486 l 61 993 l 186 993 l 483 549 l 446 549 l 743 993 l 865 993 l 518 486 l 519 544 l 900 0 l 772 0 l 444 479 l 483 479 l 154 0 z "},"Y":{"ha":899,"x_min":28,"x_max":871,"o":"m 503 0 l 396 0 l 396 438 l 28 993 l 151 993 l 469 497 l 433 497 l 751 993 l 871 993 l 503 435 l 503 0 z "},"Z":{"ha":846,"x_min":61,"x_max":786,"o":"m 786 0 l 61 0 l 61 96 l 644 897 l 79 897 l 79 993 l 769 993 l 769 897 l 186 96 l 786 96 l 786 0 z "},"a":{"ha":764,"x_min":56,"x_max":676,"o":"m 676 0 l 578 0 l 578 133 l 576 172 l 576 428 q 521 565 576 514 q 371 617 465 617 q 248 588 303 617 q 151 508 193 558 l 79 578 q 208 672 136 639 q 371 706 279 706 q 531 672 463 706 q 638 576 600 638 q 676 432 676 515 l 676 0 m 317 -22 q 180 6 239 -22 q 88 83 121 35 q 56 194 56 132 q 96 317 56 267 q 206 394 136 368 q 365 421 276 421 l 590 421 l 590 338 l 379 338 q 224 303 286 338 q 163 197 163 269 q 208 100 163 136 q 329 64 254 64 q 460 92 401 64 q 553 172 518 121 q 593 290 589 224 l 635 267 q 594 118 635 183 q 481 15 553 53 q 317 -22 408 -22 z "},"b":{"ha":879,"x_min":97,"x_max":814,"o":"m 199 0 l 97 0 l 97 1000 l 200 1000 l 200 476 l 174 476 q 228 596 186 544 q 334 676 271 647 q 471 706 397 706 q 649 658 571 706 q 770 528 726 610 q 814 342 814 446 q 769 154 814 236 q 644 25 724 72 q 461 -22 564 -22 q 298 16 368 -22 q 192 120 228 54 q 167 268 157 186 l 186 296 q 228 178 192 231 q 322 97 264 126 q 450 68 381 68 q 583 103 526 68 q 673 201 640 139 q 706 342 706 263 q 674 483 706 421 q 588 580 643 544 q 458 615 532 615 q 325 578 383 615 q 233 474 267 540 q 200 321 200 408 l 200 188 l 199 186 l 199 0 z "},"c":{"ha":757,"x_min":65,"x_max":706,"o":"m 632 178 l 706 110 q 587 13 658 49 q 425 -22 515 -22 q 240 25 321 -22 q 112 154 158 72 q 65 342 65 236 q 112 529 65 447 q 240 658 158 611 q 426 706 322 706 q 588 670 517 706 q 706 574 658 635 l 632 506 q 549 585 599 556 q 426 615 499 615 q 294 581 351 615 q 206 484 238 546 q 174 342 174 422 q 206 199 174 261 q 294 103 238 138 q 426 68 351 68 q 549 98 499 68 q 632 178 599 128 z "},"d":{"ha":879,"x_min":65,"x_max":782,"o":"m 782 0 l 681 0 l 681 186 l 679 188 l 679 321 q 647 474 679 408 q 558 578 615 540 q 425 615 500 615 q 294 580 351 615 q 206 483 238 544 q 174 342 174 421 q 206 201 174 263 q 297 103 239 139 q 429 68 354 68 q 558 97 500 68 q 651 178 615 126 q 693 296 688 231 l 713 268 q 688 120 724 186 q 581 16 651 54 q 418 -22 511 -22 q 235 25 315 -22 q 110 154 156 72 q 65 342 65 236 q 110 528 65 446 q 234 658 156 610 q 413 706 313 706 q 549 677 488 706 q 653 597 611 649 q 706 476 694 546 l 679 476 l 679 1000 l 782 1000 l 782 0 z "},"e":{"ha":835,"x_min":65,"x_max":769,"o":"m 675 194 l 747 126 q 617 17 693 57 q 442 -22 540 -22 q 248 25 333 -22 q 114 154 163 72 q 65 342 65 236 q 112 529 65 447 q 240 658 158 611 q 426 706 322 706 q 603 659 526 706 q 725 532 681 613 q 769 346 769 451 l 769 338 l 664 338 l 664 346 q 633 487 664 426 q 548 581 601 547 q 426 615 494 615 q 294 581 351 615 q 206 485 238 546 q 174 343 174 424 q 208 200 174 263 q 303 103 243 138 q 443 68 364 68 q 675 194 588 68 m 769 306 l 151 306 l 151 390 l 747 390 l 769 346 l 769 306 z "},"f":{"ha":528,"x_min":42,"x_max":486,"o":"m 286 0 l 183 0 l 183 835 q 349 1000 183 1000 l 486 1000 l 486 914 l 371 914 q 306 894 326 914 q 286 829 286 874 l 286 0 m 486 596 l 42 596 l 42 683 l 486 683 l 486 596 z "},"g":{"ha":879,"x_min":65,"x_max":782,"o":"m 782 58 q 735 -122 782 -43 q 609 -247 689 -201 q 426 -292 529 -292 q 251 -256 329 -292 q 121 -160 172 -221 l 193 -90 q 288 -172 231 -142 q 426 -201 344 -201 q 558 -168 501 -201 q 647 -76 615 -135 q 679 58 679 -18 l 679 321 q 643 483 679 418 q 549 582 607 549 q 425 615 492 615 q 294 580 351 615 q 206 484 238 544 q 174 347 174 424 q 206 210 174 269 q 295 116 238 150 q 429 82 353 82 q 556 111 499 82 q 651 192 614 140 q 693 310 688 243 l 714 282 q 688 132 725 197 q 579 29 650 67 q 418 -8 508 -8 q 237 37 317 -8 q 111 163 157 82 q 65 347 65 243 q 112 532 65 451 q 237 659 158 613 q 413 706 315 706 q 542 681 481 706 q 648 605 604 656 q 706 476 692 554 l 681 476 l 681 683 l 782 683 l 782 58 z "},"h":{"ha":811,"x_min":97,"x_max":724,"o":"m 724 0 l 621 0 l 621 394 q 571 560 621 504 q 436 615 521 615 q 321 583 375 615 q 233 483 267 551 q 200 307 200 415 l 200 0 l 97 0 l 97 1000 l 200 1000 l 200 476 l 182 476 q 239 611 199 561 q 335 683 279 661 q 454 706 392 706 q 651 628 579 706 q 724 406 724 551 l 724 0 z "},"i":{"ha":297,"x_min":74,"x_max":224,"o":"m 200 0 l 97 0 l 97 683 l 200 683 l 200 0 m 149 867 q 96 888 118 867 q 74 940 74 910 q 96 994 74 972 q 149 1015 118 1015 q 202 994 181 1015 q 224 940 224 972 q 202 888 224 910 q 149 867 181 867 z "},"j":{"ha":297,"x_min":-33,"x_max":224,"o":"m -33 -269 l -33 -181 l 13 -181 q 77 -160 57 -181 q 97 -96 97 -139 l 97 683 l 200 683 l 200 -104 q 35 -269 200 -269 l -33 -269 m 149 867 q 96 888 118 867 q 74 940 74 910 q 96 994 74 972 q 149 1015 118 1015 q 202 994 181 1015 q 224 940 224 972 q 202 888 224 910 q 149 867 181 867 z "},"k":{"ha":760,"x_min":97,"x_max":740,"o":"m 200 0 l 97 0 l 97 1000 l 200 1000 l 200 0 m 740 0 l 588 0 l 164 354 l 178 354 l 560 683 l 701 683 l 296 342 l 296 367 l 740 0 z "},"l":{"ha":297,"x_min":97,"x_max":200,"o":"m 200 0 l 97 0 l 97 1000 l 200 1000 l 200 0 z "},"m":{"ha":1279,"x_min":97,"x_max":1192,"o":"m 1192 0 l 1089 0 l 1089 394 q 1042 560 1089 504 q 918 615 996 615 q 810 583 861 615 q 727 483 758 551 q 696 307 696 415 l 696 0 l 593 0 l 593 394 q 547 560 593 504 q 422 615 500 615 q 314 583 365 615 q 231 483 263 551 q 200 307 200 415 l 200 0 l 97 0 l 97 683 l 199 683 l 199 508 l 188 510 q 246 624 207 582 q 335 686 285 667 q 440 706 386 706 q 598 652 536 706 q 678 497 660 599 l 660 496 q 720 617 679 571 q 816 685 761 664 q 929 706 871 706 q 1122 628 1053 706 q 1192 406 1192 551 l 1192 0 z "},"n":{"ha":811,"x_min":97,"x_max":724,"o":"m 724 0 l 621 0 l 621 394 q 571 560 621 504 q 436 615 521 615 q 321 583 375 615 q 233 483 267 551 q 200 307 200 415 l 200 0 l 97 0 l 97 683 l 199 683 l 199 476 l 181 476 q 238 611 197 561 q 335 683 279 661 q 454 706 392 706 q 651 628 579 706 q 724 406 724 551 l 724 0 z "},"o":{"ha":853,"x_min":65,"x_max":788,"o":"m 426 -22 q 240 25 322 -22 q 112 154 158 72 q 65 342 65 236 q 112 529 65 447 q 240 658 158 611 q 426 706 322 706 q 613 658 532 706 q 741 529 694 611 q 788 342 788 447 q 741 154 788 236 q 613 25 694 72 q 426 -22 532 -22 m 426 68 q 558 103 501 68 q 647 199 615 138 q 679 342 679 261 q 647 484 679 422 q 558 581 615 546 q 426 615 501 615 q 294 581 351 615 q 206 484 238 546 q 174 342 174 422 q 206 199 174 261 q 294 103 238 138 q 426 68 351 68 z "},"p":{"ha":879,"x_min":97,"x_max":814,"o":"m 200 -269 l 97 -269 l 97 683 l 199 683 l 199 476 l 174 476 q 228 596 186 544 q 334 676 271 647 q 471 706 397 706 q 649 658 571 706 q 770 528 726 610 q 814 342 814 446 q 769 154 814 236 q 644 25 724 72 q 461 -22 564 -22 q 298 16 368 -22 q 192 120 228 54 q 167 268 157 186 l 186 296 q 228 178 192 231 q 322 97 264 126 q 450 68 381 68 q 583 103 526 68 q 673 201 640 139 q 706 342 706 263 q 674 483 706 421 q 588 580 643 544 q 458 615 532 615 q 325 578 383 615 q 233 474 267 540 q 200 321 200 408 l 200 -269 z "},"q":{"ha":879,"x_min":65,"x_max":782,"o":"m 782 -269 l 679 -269 l 679 321 q 647 474 679 408 q 558 578 615 540 q 425 615 500 615 q 294 580 351 615 q 206 483 238 544 q 174 342 174 421 q 206 201 174 263 q 297 103 239 139 q 429 68 354 68 q 558 97 500 68 q 651 178 615 126 q 693 296 688 231 l 713 268 q 688 120 724 186 q 581 16 651 54 q 418 -22 511 -22 q 235 25 315 -22 q 110 154 156 72 q 65 342 65 236 q 110 528 65 446 q 234 658 156 610 q 413 706 313 706 q 549 677 488 706 q 653 597 611 649 q 706 476 694 546 l 681 476 l 681 683 l 782 683 l 782 -269 z "},"r":{"ha":506,"x_min":97,"x_max":464,"o":"m 464 694 l 464 594 l 436 594 q 321 563 375 594 q 233 463 267 531 q 200 286 200 394 l 200 0 l 97 0 l 97 683 l 199 683 l 199 467 l 181 467 q 239 600 197 550 q 335 672 281 650 q 449 694 390 694 l 464 694 z "},"s":{"ha":714,"x_min":39,"x_max":654,"o":"m 39 106 l 111 175 q 221 94 160 124 q 358 65 282 65 q 495 101 442 65 q 549 192 549 136 q 503 267 549 240 q 351 310 458 294 q 133 377 196 332 q 69 499 69 422 q 106 608 69 561 q 206 680 142 654 q 351 706 269 706 q 515 672 443 706 q 643 578 588 639 l 571 508 q 475 589 529 560 q 351 618 421 618 q 225 586 275 618 q 175 501 175 554 q 217 440 175 463 q 361 403 260 417 q 588 331 522 381 q 654 194 654 282 q 616 81 654 131 q 511 5 578 32 q 358 -22 444 -22 q 180 12 258 -22 q 39 106 101 46 z "},"t":{"ha":544,"x_min":42,"x_max":496,"o":"m 496 0 l 335 0 q 223 40 263 0 q 183 151 183 79 l 183 883 l 286 883 l 286 160 q 304 108 286 126 q 357 89 322 89 l 496 89 l 496 0 m 486 596 l 42 596 l 42 683 l 486 683 l 486 596 z "},"u":{"ha":808,"x_min":88,"x_max":711,"o":"m 711 0 l 610 0 l 610 133 l 608 172 l 608 683 l 711 683 l 711 0 m 622 296 l 643 267 q 614 118 650 183 q 512 15 578 53 q 360 -22 446 -22 q 162 51 236 -22 q 88 264 88 125 l 88 683 l 190 683 l 190 275 q 240 121 190 174 q 378 68 289 68 q 494 97 440 68 q 582 176 547 125 q 622 296 617 228 z "},"v":{"ha":746,"x_min":28,"x_max":718,"o":"m 424 0 l 322 0 l 28 683 l 139 683 l 397 54 l 353 54 l 613 683 l 718 683 l 424 0 z "},"w":{"ha":1072,"x_min":28,"x_max":1044,"o":"m 825 0 l 706 0 l 525 597 l 547 597 l 367 0 l 247 0 l 28 683 l 135 683 l 329 39 l 289 39 l 485 683 l 593 683 l 788 39 l 747 39 l 942 683 l 1044 683 l 825 0 z "},"x":{"ha":706,"x_min":17,"x_max":689,"o":"m 138 0 l 17 0 l 286 354 l 42 683 l 161 683 l 353 414 l 544 683 l 663 683 l 419 354 l 689 0 l 567 0 l 353 290 l 138 0 z "},"y":{"ha":746,"x_min":28,"x_max":718,"o":"m 613 683 l 718 683 l 371 -124 q 299 -231 342 -192 q 168 -269 256 -269 l 100 -269 l 100 -181 l 168 -181 q 241 -158 213 -181 q 288 -93 269 -136 l 324 -3 l 28 683 l 139 683 l 397 54 l 353 54 l 613 683 z "},"z":{"ha":678,"x_min":56,"x_max":625,"o":"m 625 0 l 56 0 l 56 86 l 488 597 l 69 597 l 69 683 l 611 683 l 611 597 l 179 86 l 625 86 l 625 0 z "},"™":{"ha":1226,"x_min":49,"x_max":1178,"o":"m 315 439 l 232 439 l 232 928 l 315 928 l 315 439 m 499 921 l 49 921 l 49 993 l 499 993 l 499 921 m 908 493 l 847 493 l 621 950 l 660 951 l 660 439 l 578 439 l 578 993 l 681 993 l 899 547 l 858 547 l 1078 993 l 1178 993 l 1178 439 l 1096 439 l 1096 951 l 1135 950 l 908 493 z "},"ª":{"ha":636,"x_min":56,"x_max":549,"o":"m 549 439 l 461 439 l 461 544 l 460 572 l 460 774 q 417 877 460 839 q 303 915 375 915 q 209 894 251 915 q 135 833 167 872 l 74 894 q 176 967 118 940 q 304 993 233 993 q 481 934 414 993 q 549 776 549 875 l 549 439 m 261 422 q 113 471 169 422 q 56 593 56 519 q 124 724 56 678 q 301 771 193 771 l 471 771 l 471 700 l 313 700 q 197 674 243 700 q 151 596 151 649 q 186 524 151 550 q 276 497 221 497 q 412 544 357 497 q 472 667 467 592 l 506 647 q 474 531 506 582 q 387 451 442 481 q 261 422 332 422 z "},"º":{"ha":703,"x_min":65,"x_max":638,"o":"m 351 424 q 203 460 268 424 q 102 560 139 496 q 65 708 65 625 q 102 856 65 792 q 203 956 139 919 q 351 993 268 993 q 499 956 435 993 q 601 856 564 919 q 638 708 638 792 q 601 560 638 625 q 499 460 564 496 q 351 424 435 424 m 351 503 q 488 560 435 503 q 540 708 540 618 q 488 856 540 799 q 351 914 435 914 q 215 856 268 914 q 163 708 163 799 q 215 560 163 618 q 351 503 268 503 z "},"©":{"ha":1183,"x_min":63,"x_max":1121,"o":"m 765 368 l 825 308 q 728 231 788 260 q 594 201 668 201 q 444 240 510 201 q 340 346 378 279 q 303 497 303 413 q 341 651 303 583 q 446 756 379 718 q 597 794 513 794 q 729 765 671 794 q 825 688 788 736 l 765 629 q 695 693 738 669 q 597 717 653 717 q 494 688 540 717 q 421 610 447 660 q 394 497 394 561 q 421 385 394 435 q 494 308 447 336 q 597 279 540 279 q 695 303 653 279 q 765 368 738 326 m 592 -36 q 385 5 482 -36 q 217 119 289 46 q 103 290 144 193 q 63 497 63 386 q 103 705 63 608 q 217 875 144 801 q 385 990 289 949 q 592 1031 482 1031 q 799 990 703 1031 q 967 875 894 949 q 1080 705 1039 801 q 1121 497 1121 608 q 1080 290 1121 386 q 967 119 1039 193 q 799 5 894 46 q 592 -36 703 -36 m 592 51 q 763 85 683 51 q 903 181 843 119 q 998 323 964 242 q 1032 497 1032 404 q 998 672 1032 590 q 903 814 964 753 q 763 909 843 875 q 592 943 683 943 q 420 909 500 943 q 280 814 340 875 q 185 672 219 753 q 151 497 151 590 q 185 323 151 404 q 280 181 219 242 q 420 85 340 119 q 592 51 500 51 z "},"®":{"ha":731,"x_min":63,"x_max":668,"o":"m 299 532 l 246 532 l 246 838 l 381 838 q 466 811 433 838 q 499 744 499 785 q 466 678 499 704 q 381 653 433 653 l 294 653 l 294 699 l 381 699 q 427 712 410 699 q 444 744 444 725 q 427 778 444 765 q 381 792 410 792 l 299 792 l 299 532 m 528 532 l 461 532 l 343 660 l 407 660 l 528 532 m 365 368 q 213 410 282 368 q 103 522 144 451 q 63 678 63 592 q 103 834 63 764 q 213 946 144 904 q 365 988 282 988 q 518 946 450 988 q 627 834 586 904 q 668 678 668 764 q 627 522 668 592 q 518 410 586 451 q 365 368 450 368 m 365 439 q 483 469 431 439 q 565 554 535 500 q 594 678 594 608 q 565 802 594 749 q 483 886 535 856 q 365 917 431 917 q 248 886 300 917 q 166 802 196 856 q 136 678 136 749 q 166 554 136 608 q 248 469 196 500 q 365 439 300 439 z "},"‘":{"ha":308,"x_min":76,"x_max":232,"o":"m 161 1022 l 231 1022 q 183 928 200 979 q 167 840 165 876 l 156 864 q 210 842 188 864 q 232 789 232 821 q 210 735 232 758 q 158 713 189 713 q 100 738 124 713 q 76 803 76 764 q 88 876 76 836 q 119 954 100 915 q 161 1022 139 993 z "},"’":{"ha":308,"x_min":76,"x_max":232,"o":"m 147 713 l 78 713 q 126 808 108 757 q 142 894 144 858 l 153 871 q 99 892 121 871 q 76 946 76 914 q 98 1000 76 978 q 150 1022 119 1022 q 209 997 186 1022 q 232 932 232 972 q 220 859 232 899 q 189 781 208 819 q 147 713 169 743 z "},"‚":{"ha":308,"x_min":76,"x_max":232,"o":"m 147 -168 l 78 -168 q 126 -73 108 -124 q 142 14 144 -22 l 153 -10 q 99 12 121 -10 q 76 65 76 33 q 98 119 76 97 q 150 142 119 142 q 209 117 186 142 q 232 51 232 92 q 220 -22 232 18 q 189 -99 208 -61 q 147 -168 169 -137 z "},"“":{"ha":503,"x_min":76,"x_max":426,"o":"m 161 1022 l 231 1022 q 183 928 200 979 q 167 840 165 876 l 156 864 q 210 842 188 864 q 232 789 232 821 q 210 735 232 758 q 158 713 189 713 q 100 738 124 713 q 76 803 76 764 q 88 876 76 836 q 119 954 100 915 q 161 1022 139 993 m 356 1022 l 425 1022 q 377 928 394 979 q 361 840 360 876 l 350 864 q 404 842 382 864 q 426 789 426 821 q 405 735 426 758 q 353 713 383 713 q 294 738 318 713 q 271 803 271 764 q 283 876 271 836 q 314 954 294 915 q 356 1022 333 993 z "},"”":{"ha":503,"x_min":76,"x_max":426,"o":"m 147 713 l 78 713 q 126 808 108 757 q 142 894 144 858 l 153 871 q 99 892 121 871 q 76 946 76 914 q 98 1000 76 978 q 150 1022 119 1022 q 209 997 186 1022 q 232 932 232 972 q 220 859 232 899 q 189 781 208 819 q 147 713 169 743 m 342 713 l 272 713 q 321 808 303 757 q 336 894 339 858 l 347 871 q 293 892 315 871 q 271 946 271 914 q 292 1000 271 978 q 344 1022 314 1022 q 403 997 381 1022 q 426 932 426 972 q 415 859 426 899 q 383 781 403 819 q 342 713 364 743 z "},"„":{"ha":503,"x_min":76,"x_max":426,"o":"m 147 -168 l 78 -168 q 126 -73 108 -124 q 142 14 144 -22 l 153 -10 q 99 12 121 -10 q 76 65 76 33 q 98 119 76 97 q 150 142 119 142 q 209 117 186 142 q 232 51 232 92 q 220 -22 232 18 q 189 -99 208 -61 q 147 -168 169 -137 m 342 -168 l 272 -168 q 321 -73 303 -124 q 336 14 339 -22 l 347 -10 q 293 12 315 -10 q 271 65 271 33 q 292 119 271 97 q 344 142 314 142 q 403 117 381 142 q 426 51 426 92 q 415 -22 426 18 q 383 -99 403 -61 q 342 -168 364 -137 z "},"ı":{"ha":297,"x_min":97,"x_max":200,"o":"m 200 0 l 97 0 l 97 683 l 200 683 l 200 0 z "},"ȷ":{"ha":297,"x_min":-33,"x_max":200,"o":"m -33 -269 l -33 -181 l 13 -181 q 77 -160 57 -181 q 97 -96 97 -139 l 97 683 l 200 683 l 200 -104 q 35 -269 200 -269 l -33 -269 z "},"Ĳ":{"ha":947,"x_min":106,"x_max":842,"o":"m 213 435 l 106 435 l 106 993 l 213 993 l 213 435 m 842 993 l 842 378 q 746 83 842 188 q 472 -22 650 -22 q 289 16 367 -22 q 165 127 211 54 q 107 304 119 200 l 213 317 q 292 137 226 199 q 472 75 358 75 q 667 153 600 75 q 735 378 735 231 l 735 993 l 842 993 z "},"Þ":{"ha":894,"x_min":118,"x_max":829,"o":"m 211 679 l 211 774 l 503 774 q 674 739 601 774 q 788 642 747 704 q 829 496 829 579 q 788 350 829 413 q 674 253 747 288 q 503 218 601 218 l 211 218 l 211 313 l 503 313 q 662 361 604 313 q 719 496 719 410 q 662 631 719 582 q 503 679 604 679 l 211 679 m 225 0 l 118 0 l 118 993 l 225 993 l 225 0 z "},"Æ":{"ha":1449,"x_min":35,"x_max":1386,"o":"m 790 993 l 150 0 l 35 0 l 679 993 l 790 993 m 763 278 l 299 278 l 299 372 l 763 372 l 763 278 m 1386 0 l 729 0 l 729 993 l 1386 993 l 1386 899 l 836 899 l 836 94 l 1386 94 l 1386 0 m 1360 461 l 822 461 l 822 556 l 1360 556 l 1360 461 z "},"Œ":{"ha":1715,"x_min":76,"x_max":1653,"o":"m 592 -22 q 387 17 481 -22 q 223 126 293 56 q 115 291 153 196 q 76 497 76 386 q 115 703 76 608 q 223 867 153 797 q 387 976 293 938 q 592 1015 481 1015 q 785 976 696 1015 q 940 867 874 938 q 1042 703 1006 797 q 1079 497 1079 608 q 1042 291 1079 386 q 940 126 1006 196 q 785 17 874 56 q 592 -22 696 -22 m 592 75 q 802 129 711 75 q 944 279 893 183 q 996 497 996 375 q 944 715 996 619 q 802 864 893 810 q 592 918 711 918 q 382 864 474 918 q 239 715 290 810 q 188 497 188 619 q 239 279 188 375 q 382 129 290 183 q 592 75 474 75 m 1653 0 l 996 0 l 996 993 l 1653 993 l 1653 899 l 1103 899 l 1103 94 l 1653 94 l 1653 0 m 1626 461 l 1089 461 l 1089 556 l 1626 556 l 1626 461 z "},"ẞ":{"ha":1042,"x_min":104,"x_max":1003,"o":"m 326 99 l 401 175 q 509 103 449 131 q 644 75 569 75 q 775 104 719 75 q 861 183 831 133 q 892 293 892 232 q 829 444 892 385 q 664 503 767 503 q 594 492 626 503 q 528 457 561 482 l 460 515 l 836 943 l 851 896 l 515 896 q 290 814 369 896 q 211 579 211 732 l 211 0 l 104 0 l 104 579 q 213 883 104 774 q 515 993 322 993 l 922 993 l 922 897 l 632 568 l 626 579 q 765 576 697 592 q 886 520 832 560 q 972 422 940 481 q 1003 290 1003 364 q 957 133 1003 204 q 831 19 911 61 q 646 -22 750 -22 q 470 10 553 -22 q 326 99 388 43 z "},"Ŋ":{"ha":1025,"x_min":115,"x_max":910,"o":"m 317 -201 l 382 -117 q 469 -170 422 -154 q 571 -186 517 -186 q 747 -113 686 -186 q 807 99 807 -40 l 807 993 l 910 993 l 910 99 q 822 -185 910 -87 q 571 -283 733 -283 q 426 -262 490 -283 q 317 -201 363 -242 m 218 0 l 115 0 l 115 993 l 232 993 l 839 117 l 803 0 l 196 876 l 218 876 l 218 0 z "},"Ð":{"ha":1029,"x_min":14,"x_max":954,"o":"m 118 0 l 118 993 l 439 993 q 708 929 592 993 q 889 753 824 865 q 954 497 954 642 q 889 240 954 353 q 708 64 824 128 q 439 0 592 0 l 118 0 m 225 97 l 439 97 q 653 147 563 97 q 794 288 744 197 q 843 497 843 378 q 794 706 843 617 q 653 846 744 796 q 439 896 563 896 l 225 896 l 225 97 m 510 461 l 14 461 l 14 556 l 510 556 l 510 461 z "},"Đ":{"ha":1029,"x_min":14,"x_max":954,"o":"m 118 0 l 118 993 l 439 993 q 708 929 592 993 q 889 753 824 865 q 954 497 954 642 q 889 240 954 353 q 708 64 824 128 q 439 0 592 0 l 118 0 m 225 97 l 439 97 q 653 147 563 97 q 794 288 744 197 q 843 497 843 378 q 794 706 843 617 q 653 846 744 796 q 439 896 563 896 l 225 896 l 225 97 m 510 461 l 14 461 l 14 556 l 510 556 l 510 461 z "},"Ħ":{"ha":1031,"x_min":21,"x_max":1010,"o":"m 806 0 l 806 993 l 913 993 l 913 0 l 806 0 m 225 0 l 118 0 l 118 993 l 225 993 l 225 0 m 211 468 l 211 564 l 819 564 l 819 468 l 211 468 m 1010 732 l 21 732 l 21 826 l 1010 826 l 1010 732 z "},"Ŧ":{"ha":868,"x_min":50,"x_max":818,"o":"m 488 0 l 381 0 l 381 911 l 488 911 l 488 0 m 818 897 l 50 897 l 50 993 l 818 993 l 818 897 m 721 461 l 147 461 l 147 556 l 721 556 l 721 461 z "},"Ł":{"ha":819,"x_min":24,"x_max":769,"o":"m 769 0 l 154 0 l 154 993 l 261 993 l 261 96 l 769 96 l 769 0 m 574 610 l 75 278 l 24 356 l 522 688 l 574 610 z "},"Ø":{"ha":1183,"x_min":72,"x_max":1111,"o":"m 592 -22 q 387 17 481 -22 q 223 126 293 56 q 115 291 153 196 q 76 497 76 386 q 115 703 76 608 q 223 867 153 797 q 387 976 293 938 q 592 1015 481 1015 q 797 976 703 1015 q 960 867 890 938 q 1069 703 1031 797 q 1107 497 1107 608 q 1069 291 1107 386 q 960 126 1031 196 q 797 17 890 56 q 592 -22 703 -22 m 592 75 q 802 129 711 75 q 944 279 893 183 q 996 497 996 375 q 944 715 996 619 q 802 864 893 810 q 592 918 711 918 q 382 864 474 918 q 239 715 290 810 q 188 497 188 619 q 239 279 188 375 q 382 129 290 183 q 592 75 474 75 m 136 -26 l 72 38 l 1047 1019 l 1111 956 l 136 -26 z "},"ĳ":{"ha":594,"x_min":74,"x_max":521,"o":"m 264 -269 l 264 -181 l 310 -181 q 374 -160 354 -181 q 394 -96 394 -139 l 394 683 l 497 683 l 497 -104 q 332 -269 497 -269 l 264 -269 m 446 867 q 393 888 415 867 q 371 940 371 910 q 393 994 371 972 q 446 1015 415 1015 q 499 994 478 1015 q 521 940 521 972 q 499 888 521 910 q 446 867 478 867 m 200 0 l 97 0 l 97 683 l 200 683 l 200 0 m 149 867 q 96 888 118 867 q 74 940 74 910 q 96 994 74 972 q 149 1015 118 1015 q 202 994 181 1015 q 224 940 224 972 q 202 888 224 910 q 149 867 181 867 z "},"þ":{"ha":879,"x_min":97,"x_max":814,"o":"m 200 -269 l 97 -269 l 97 1000 l 200 1000 l 200 476 l 175 476 q 229 596 188 544 q 334 676 271 647 q 471 706 397 706 q 649 658 571 706 q 770 528 726 610 q 814 342 814 446 q 769 154 814 236 q 644 25 724 72 q 461 -22 564 -22 q 298 16 368 -22 q 192 120 228 54 q 167 268 157 186 l 186 296 q 228 178 192 231 q 322 97 264 126 q 450 68 381 68 q 583 103 526 68 q 673 201 640 139 q 706 342 706 263 q 674 483 706 421 q 588 580 643 544 q 458 615 532 615 q 325 578 383 615 q 233 474 267 540 q 200 321 200 408 l 200 -269 z "},"æ":{"ha":1338,"x_min":56,"x_max":1272,"o":"m 1178 194 l 1250 126 q 1119 17 1196 57 q 944 -22 1043 -22 q 754 25 838 -22 q 624 154 671 72 q 576 342 576 236 q 622 529 576 447 q 747 658 667 611 q 929 706 826 706 q 1106 659 1029 706 q 1228 532 1183 613 q 1272 346 1272 451 l 1272 338 l 1167 338 l 1167 346 q 1135 487 1167 426 q 1051 581 1104 547 q 929 615 997 615 q 797 581 854 615 q 708 485 740 546 q 676 343 676 424 q 710 200 676 263 q 806 103 744 138 q 946 68 867 68 q 1178 194 1090 68 m 1272 317 l 654 317 l 654 400 l 1250 400 l 1272 346 l 1272 317 m 665 347 l 576 347 l 576 403 q 520 557 576 497 q 371 617 464 617 q 248 588 303 617 q 151 508 193 558 l 79 578 q 208 672 136 639 q 371 706 279 706 q 526 667 460 706 q 628 563 592 629 q 665 407 665 496 l 665 347 m 328 -22 q 186 6 247 -22 q 90 83 125 35 q 56 194 56 132 q 96 308 56 263 q 206 377 136 354 q 365 400 276 400 l 585 400 l 585 317 l 379 317 q 224 290 286 317 q 163 197 163 263 q 212 100 163 136 q 340 64 261 64 q 467 90 408 64 q 565 162 525 117 q 614 263 604 207 l 678 239 q 622 106 671 165 q 497 13 574 47 q 328 -22 419 -22 z "},"œ":{"ha":1435,"x_min":65,"x_max":1369,"o":"m 426 -22 q 240 25 322 -22 q 112 154 158 72 q 65 342 65 236 q 112 529 65 447 q 240 658 158 611 q 426 706 322 706 q 606 658 528 706 q 728 529 683 611 q 774 342 774 447 q 728 154 774 236 q 606 25 683 72 q 426 -22 528 -22 m 426 68 q 558 103 501 68 q 647 199 615 138 q 679 342 679 261 q 647 484 679 422 q 558 581 615 546 q 426 615 501 615 q 294 581 351 615 q 206 484 238 546 q 174 342 174 422 q 206 199 174 261 q 294 103 238 138 q 426 68 351 68 m 1275 194 l 1347 126 q 1217 17 1293 57 q 1042 -22 1140 -22 q 856 25 938 -22 q 726 154 774 72 q 679 342 679 236 q 724 529 679 447 q 848 658 769 611 q 1026 706 926 706 q 1203 659 1126 706 q 1325 532 1281 613 q 1369 346 1369 451 l 1369 338 l 1264 338 l 1264 346 q 1233 487 1264 426 q 1148 581 1201 547 q 1026 615 1094 615 q 894 581 951 615 q 806 485 838 546 q 774 343 774 424 q 808 200 774 263 q 903 103 842 138 q 1043 68 964 68 q 1275 194 1188 68 m 1369 306 l 751 306 l 751 390 l 1347 390 l 1369 346 l 1369 306 z "},"ß":{"ha":864,"x_min":88,"x_max":804,"o":"m 190 0 l 88 0 l 88 647 q 133 847 88 765 q 254 972 178 929 q 426 1015 331 1015 q 582 980 515 1015 q 686 885 649 944 q 724 753 724 826 q 685 625 724 682 q 577 535 647 568 q 408 501 507 501 l 404 501 l 404 550 l 454 550 q 629 515 550 550 q 756 415 708 481 q 804 260 804 350 q 765 112 804 175 q 660 13 726 49 q 510 -22 594 -22 q 425 -12 468 -22 q 344 16 382 -3 q 275 61 306 35 l 338 136 q 415 83 369 101 q 508 65 461 65 q 642 116 588 65 q 696 254 696 167 q 658 374 696 325 q 563 449 621 424 q 440 475 504 475 l 378 475 l 378 565 l 408 565 q 558 617 500 565 q 615 753 615 668 q 566 876 615 828 q 428 925 517 925 q 258 851 325 925 q 190 629 190 778 l 190 0 z "},"ŋ":{"ha":811,"x_min":97,"x_max":724,"o":"m 490 -269 l 490 -181 l 536 -181 q 601 -160 581 -181 q 621 -96 621 -139 l 621 394 q 571 560 621 504 q 436 615 521 615 q 321 583 375 615 q 233 483 267 551 q 200 307 200 415 l 200 0 l 97 0 l 97 683 l 199 683 l 199 476 l 181 476 q 238 611 197 561 q 335 683 279 661 q 454 706 392 706 q 651 628 579 706 q 724 406 724 551 l 724 -104 q 558 -269 724 -269 l 490 -269 z "},"ð":{"ha":853,"x_min":65,"x_max":788,"o":"m 735 328 l 693 328 q 651 605 693 482 q 522 828 610 728 q 293 1015 433 929 l 369 1054 q 596 878 503 982 q 738 651 689 775 q 788 388 788 526 q 740 160 788 251 q 612 24 693 69 q 426 -22 531 -22 q 241 24 322 -22 q 113 149 160 69 q 65 328 65 228 q 113 508 65 429 q 240 632 160 586 q 421 678 321 678 q 591 632 521 678 q 698 508 661 586 q 735 328 735 429 m 426 68 q 558 101 501 68 q 647 194 615 135 q 679 328 679 253 q 647 463 679 404 q 558 554 615 521 q 426 588 501 588 q 294 554 351 588 q 206 463 238 521 q 174 328 174 404 q 206 194 174 253 q 294 101 238 135 q 426 68 351 68 m 699 956 l 300 757 l 261 832 l 658 1031 l 699 956 z "},"đ":{"ha":915,"x_min":65,"x_max":894,"o":"m 782 0 l 681 0 l 681 186 l 679 188 l 679 321 q 647 474 679 408 q 558 578 615 540 q 425 615 500 615 q 294 580 351 615 q 206 483 238 544 q 174 342 174 421 q 206 201 174 263 q 297 103 239 139 q 429 68 354 68 q 558 97 500 68 q 651 178 615 126 q 693 296 688 231 l 713 268 q 688 120 724 186 q 581 16 651 54 q 418 -22 511 -22 q 235 25 315 -22 q 110 154 156 72 q 65 342 65 236 q 110 528 65 446 q 234 658 156 610 q 413 706 313 706 q 549 677 488 706 q 653 597 611 649 q 706 476 694 546 l 679 476 l 679 1000 l 782 1000 l 782 0 m 894 796 l 450 796 l 450 883 l 894 883 l 894 796 z "},"ħ":{"ha":847,"x_min":21,"x_max":760,"o":"m 465 796 l 21 796 l 21 883 l 465 883 l 465 796 m 760 0 l 657 0 l 657 394 q 607 560 657 504 q 472 615 557 615 q 357 583 411 615 q 269 483 303 551 q 236 307 236 415 l 236 0 l 133 0 l 133 1000 l 236 1000 l 236 476 l 218 476 q 275 611 235 561 q 372 683 315 661 q 490 706 428 706 q 688 628 615 706 q 760 406 760 551 l 760 0 z "},"ŧ":{"ha":544,"x_min":42,"x_max":496,"o":"m 496 0 l 335 0 q 223 40 263 0 q 183 151 183 79 l 183 883 l 286 883 l 286 160 q 304 108 286 126 q 357 89 322 89 l 496 89 l 496 0 m 486 596 l 42 596 l 42 683 l 486 683 l 486 596 m 486 342 l 42 342 l 42 429 l 486 429 l 486 342 z "},"ł":{"ha":440,"x_min":7,"x_max":433,"o":"m 256 0 l 153 0 l 153 1000 l 256 1000 l 256 0 m 433 622 l 51 368 l 7 433 l 389 688 l 433 622 z "},"ø":{"ha":853,"x_min":50,"x_max":803,"o":"m 426 -22 q 240 25 322 -22 q 112 154 158 72 q 65 342 65 236 q 112 529 65 447 q 240 658 158 611 q 426 706 322 706 q 613 658 532 706 q 741 529 694 611 q 788 342 788 447 q 741 154 788 236 q 613 25 694 72 q 426 -22 532 -22 m 426 68 q 558 103 501 68 q 647 199 615 138 q 679 342 679 261 q 647 484 679 422 q 558 581 615 546 q 426 615 501 615 q 294 581 351 615 q 206 484 238 546 q 174 342 174 422 q 206 199 174 261 q 294 103 238 138 q 426 68 351 68 m 108 -37 l 50 21 l 744 721 l 803 663 l 108 -37 z "},"ĸ":{"ha":760,"x_min":97,"x_max":740,"o":"m 200 0 l 97 0 l 97 683 l 200 683 l 200 0 m 740 0 l 588 0 l 164 354 l 178 354 l 560 683 l 701 683 l 296 342 l 296 367 l 740 0 z "},"̧":{"ha":0,"x_min":-169,"x_max":132,"o":"m -169 -304 l -126 -239 q -85 -268 -111 -257 q -32 -279 -60 -279 q 21 -262 0 -279 q 42 -215 42 -244 q 20 -169 42 -187 q -42 -150 -1 -150 q -67 -151 -54 -150 q -92 -157 -79 -153 l -43 14 l 31 14 l -3 -103 l -39 -75 q 49 -93 10 -75 q 110 -142 88 -111 q 132 -214 132 -174 q 88 -314 132 -274 q -37 -354 44 -354 q -111 -340 -76 -354 q -169 -304 -146 -326 z "},"¸":{"ha":811,"x_min":229,"x_max":531,"o":"m 229 -304 l 272 -239 q 313 -268 288 -257 q 367 -279 339 -279 q 419 -262 399 -279 q 440 -215 440 -244 q 419 -169 440 -187 q 357 -150 397 -150 q 332 -151 344 -150 q 307 -157 319 -153 l 356 14 l 429 14 l 396 -103 l 360 -75 q 447 -93 408 -75 q 508 -142 486 -111 q 531 -214 531 -174 q 487 -314 531 -274 q 361 -354 443 -354 q 288 -340 322 -354 q 229 -304 253 -326 z "},"̦":{"ha":0,"x_min":-71,"x_max":69,"o":"m 1 -375 l -71 -375 q -30 -296 -46 -337 q -17 -226 -14 -254 l 7 -253 q -45 -234 -24 -253 q -67 -189 -67 -215 q -47 -144 -67 -162 q -1 -125 -28 -125 q 50 -147 31 -125 q 69 -200 69 -168 q 60 -258 69 -226 q 35 -320 50 -290 q 1 -375 19 -350 z "},"̒":{"ha":0,"x_min":-68,"x_max":72,"o":"m 0 1060 l 72 1060 q 32 981 47 1022 q 18 911 17 939 l -6 938 q 47 919 25 938 q 68 874 68 901 q 49 828 68 847 q 3 810 31 810 q -48 831 -28 810 q -68 885 -68 853 q -58 944 -68 913 q -33 1006 -49 975 q 0 1060 -18 1036 z "},"̨":{"ha":0,"x_min":-79,"x_max":135,"o":"m 135 -250 l 135 -337 q 108 -342 121 -340 q 81 -343 94 -343 q -33 -303 13 -343 q -79 -192 -79 -264 q -42 -75 -79 -129 q 71 31 -6 -21 l 135 0 q 40 -87 69 -43 q 11 -172 11 -131 q 35 -235 11 -214 q 94 -256 60 -256 q 113 -254 101 -256 q 135 -250 124 -253 z "},"˛":{"ha":811,"x_min":319,"x_max":533,"o":"m 533 -250 l 533 -337 q 506 -342 519 -340 q 479 -343 493 -343 q 365 -303 411 -343 q 319 -192 319 -264 q 356 -75 319 -129 q 469 31 393 -21 l 533 0 q 439 -87 468 -43 q 410 -172 410 -131 q 434 -235 410 -214 q 493 -256 458 -256 q 511 -254 500 -256 q 533 -250 522 -253 z "},"Ç":{"ha":1026,"x_min":76,"x_max":969,"o":"m 892 240 l 969 167 q 802 28 906 79 q 575 -22 699 -22 q 377 17 468 -22 q 219 126 286 56 q 114 290 151 196 q 76 496 76 385 q 115 702 76 607 q 221 867 153 797 q 380 976 289 938 q 578 1015 471 1015 q 803 965 701 1015 q 969 826 906 914 l 892 753 q 761 874 840 829 q 578 918 682 918 q 378 863 467 918 q 239 713 290 808 q 188 496 188 618 q 239 280 188 375 q 378 130 290 185 q 578 75 467 75 q 761 119 682 75 q 892 240 840 164 m 432 -304 l 476 -236 q 517 -265 492 -254 q 571 -276 543 -276 q 623 -259 603 -276 q 643 -215 643 -242 q 621 -171 643 -189 q 558 -153 599 -153 q 533 -154 546 -153 q 508 -160 521 -156 l 544 14 l 618 14 l 599 -103 l 563 -75 q 652 -93 613 -75 q 714 -142 692 -111 q 736 -214 736 -174 q 692 -314 736 -274 q 564 -354 649 -354 q 490 -340 525 -354 q 432 -304 456 -326 z "},"Ş":{"ha":943,"x_min":60,"x_max":872,"o":"m 60 161 l 139 236 q 235 150 182 186 q 349 94 288 114 q 483 75 411 75 q 626 100 564 75 q 725 170 689 125 q 761 276 761 215 q 696 398 761 354 q 474 465 631 442 q 256 520 338 486 q 139 606 175 554 q 103 729 103 657 q 150 878 103 814 q 281 979 197 943 q 472 1015 364 1015 q 691 967 596 1015 q 860 832 786 918 l 782 758 q 651 875 722 832 q 472 918 579 918 q 286 867 358 918 q 214 731 214 817 q 240 655 214 686 q 326 603 267 624 q 485 567 386 582 q 711 509 626 546 q 834 415 796 472 q 872 278 872 358 q 823 122 872 189 q 686 16 774 54 q 483 -22 599 -22 q 245 26 350 -22 q 60 161 140 75 m 338 -304 l 382 -236 q 423 -265 397 -254 q 476 -276 449 -276 q 528 -259 508 -276 q 549 -215 549 -242 q 526 -171 549 -189 q 464 -153 504 -153 q 439 -154 451 -153 q 414 -160 426 -156 l 450 14 l 524 14 l 504 -103 l 468 -75 q 558 -93 518 -75 q 619 -142 597 -111 q 642 -214 642 -174 q 598 -314 642 -274 q 469 -354 554 -354 q 396 -340 431 -354 q 338 -304 361 -326 z "},"Ţ":{"ha":868,"x_min":50,"x_max":818,"o":"m 488 0 l 381 0 l 381 911 l 488 911 l 488 0 m 818 897 l 50 897 l 50 993 l 818 993 l 818 897 m 288 -304 l 332 -236 q 373 -265 347 -254 q 426 -276 399 -276 q 478 -259 458 -276 q 499 -215 499 -242 q 476 -171 499 -189 q 414 -153 454 -153 q 389 -154 401 -153 q 364 -160 376 -156 l 400 14 l 474 14 l 454 -103 l 418 -75 q 508 -93 468 -75 q 569 -142 547 -111 q 592 -214 592 -174 q 548 -314 592 -274 q 419 -354 504 -354 q 346 -340 381 -354 q 288 -304 311 -326 z "},"Ģ":{"ha":1107,"x_min":76,"x_max":1022,"o":"m 1022 0 l 919 0 l 919 147 l 936 142 q 794 22 885 65 q 592 -22 703 -22 q 387 17 481 -22 q 223 126 293 56 q 115 291 153 196 q 76 497 76 386 q 115 703 76 608 q 222 867 153 797 q 385 976 292 938 q 588 1015 478 1015 q 818 965 715 1015 q 988 826 921 914 l 910 753 q 777 874 857 829 q 588 918 697 918 q 381 863 472 918 q 239 713 290 808 q 188 497 188 618 q 240 281 188 376 q 383 130 292 185 q 593 75 475 75 q 801 127 711 75 q 931 264 892 179 l 918 211 l 918 422 l 582 422 l 582 517 l 1022 517 l 1022 0 m 592 -375 l 514 -375 q 555 -296 539 -337 q 568 -226 571 -254 l 592 -253 q 540 -234 561 -253 q 518 -189 518 -215 q 538 -144 518 -162 q 586 -125 557 -125 q 640 -147 619 -125 q 660 -200 660 -168 q 650 -258 660 -226 q 625 -320 640 -290 q 592 -375 610 -350 z "},"Ķ":{"ha":954,"x_min":118,"x_max":929,"o":"m 225 0 l 118 0 l 118 993 l 225 993 l 225 0 m 929 0 l 765 0 l 192 515 l 211 515 l 726 993 l 871 993 l 324 497 l 324 533 l 929 0 m 486 -375 l 408 -375 q 449 -296 433 -337 q 463 -226 465 -254 l 486 -253 q 434 -234 456 -253 q 413 -189 413 -215 q 432 -144 413 -162 q 481 -125 451 -125 q 534 -147 514 -125 q 554 -200 554 -168 q 544 -258 554 -226 q 519 -320 535 -290 q 486 -375 504 -350 z "},"Ļ":{"ha":783,"x_min":118,"x_max":733,"o":"m 733 0 l 118 0 l 118 993 l 225 993 l 225 96 l 733 96 l 733 0 m 429 -375 l 351 -375 q 392 -296 376 -337 q 406 -226 408 -254 l 429 -253 q 377 -234 399 -253 q 356 -189 356 -215 q 375 -144 356 -162 q 424 -125 394 -125 q 477 -147 457 -125 q 497 -200 497 -168 q 488 -258 497 -226 q 463 -320 478 -290 q 429 -375 447 -350 z "},"Ņ":{"ha":1025,"x_min":115,"x_max":910,"o":"m 218 0 l 115 0 l 115 993 l 232 993 l 829 117 l 807 117 l 807 993 l 910 993 l 910 0 l 793 0 l 196 876 l 218 876 l 218 0 m 517 -375 l 439 -375 q 480 -296 464 -337 q 493 -226 496 -254 l 517 -253 q 465 -234 486 -253 q 443 -189 443 -215 q 463 -144 443 -162 q 511 -125 482 -125 q 565 -147 544 -125 q 585 -200 585 -168 q 575 -258 585 -226 q 550 -320 565 -290 q 517 -375 535 -350 z "},"Ș":{"ha":943,"x_min":60,"x_max":872,"o":"m 60 161 l 139 236 q 235 150 182 186 q 349 94 288 114 q 483 75 411 75 q 626 100 564 75 q 725 170 689 125 q 761 276 761 215 q 696 398 761 354 q 474 465 631 442 q 256 520 338 486 q 139 606 175 554 q 103 729 103 657 q 150 878 103 814 q 281 979 197 943 q 472 1015 364 1015 q 691 967 596 1015 q 860 832 786 918 l 782 758 q 651 875 722 832 q 472 918 579 918 q 286 867 358 918 q 214 731 214 817 q 240 655 214 686 q 326 603 267 624 q 485 567 386 582 q 711 509 626 546 q 834 415 796 472 q 872 278 872 358 q 823 122 872 189 q 686 16 774 54 q 483 -22 599 -22 q 245 26 350 -22 q 60 161 140 75 m 488 -375 l 410 -375 q 451 -296 435 -337 q 464 -226 467 -254 l 488 -253 q 435 -234 457 -253 q 414 -189 414 -215 q 433 -144 414 -162 q 482 -125 453 -125 q 535 -147 515 -125 q 556 -200 556 -168 q 546 -258 556 -226 q 521 -320 536 -290 q 488 -375 506 -350 z "},"Ț":{"ha":868,"x_min":50,"x_max":818,"o":"m 488 0 l 381 0 l 381 911 l 488 911 l 488 0 m 818 897 l 50 897 l 50 993 l 818 993 l 818 897 m 438 -375 l 360 -375 q 401 -296 385 -337 q 414 -226 417 -254 l 438 -253 q 385 -234 407 -253 q 364 -189 364 -215 q 383 -144 364 -162 q 432 -125 403 -125 q 485 -147 465 -125 q 506 -200 506 -168 q 496 -258 506 -226 q 471 -320 486 -290 q 438 -375 456 -350 z "},"Ą":{"ha":1010,"x_min":50,"x_max":960,"o":"m 771 278 l 231 278 l 231 372 l 771 372 l 771 278 m 960 0 l 847 0 l 479 929 l 526 929 l 158 0 l 50 0 l 447 993 l 563 993 l 960 0 m 958 -249 l 958 -339 q 931 -343 944 -342 q 904 -344 918 -344 q 790 -304 836 -344 q 743 -192 743 -264 q 778 -75 743 -129 q 885 31 814 -21 l 958 0 q 865 -87 894 -43 q 836 -172 836 -131 q 860 -233 836 -212 q 918 -254 883 -254 q 936 -253 925 -254 q 958 -249 947 -251 z "},"Ę":{"ha":838,"x_min":118,"x_max":775,"o":"m 775 0 l 118 0 l 118 993 l 775 993 l 775 899 l 225 899 l 225 94 l 775 94 l 775 0 m 749 461 l 211 461 l 211 556 l 749 556 l 749 461 m 775 -249 l 775 -339 q 748 -343 761 -342 q 721 -344 735 -344 q 606 -304 653 -344 q 560 -192 560 -264 q 595 -75 560 -129 q 701 31 631 -21 l 775 0 q 682 -87 711 -43 q 653 -172 653 -131 q 676 -233 653 -212 q 735 -254 700 -254 q 753 -253 742 -254 q 775 -249 764 -251 z "},"Į":{"ha":343,"x_min":10,"x_max":225,"o":"m 225 0 l 118 0 l 118 993 l 225 993 l 225 0 m 225 -249 l 225 -339 q 198 -343 211 -342 q 171 -344 185 -344 q 56 -304 103 -344 q 10 -192 10 -264 q 45 -75 10 -129 q 151 31 81 -21 l 225 0 q 132 -87 161 -43 q 103 -172 103 -131 q 126 -233 103 -212 q 185 -254 150 -254 q 203 -253 192 -254 q 225 -249 214 -251 z "},"Ų":{"ha":1003,"x_min":104,"x_max":899,"o":"m 899 993 l 899 392 q 793 87 899 196 q 501 -22 688 -22 q 210 87 317 -22 q 104 392 104 196 l 104 993 l 211 993 l 211 392 q 288 156 211 238 q 501 75 364 75 q 717 156 640 75 q 793 392 793 238 l 793 993 l 899 993 m 679 -249 l 679 -339 q 652 -343 665 -342 q 625 -344 639 -344 q 510 -304 557 -344 q 464 -192 464 -264 q 503 -75 464 -129 q 640 31 542 -21 l 722 32 q 600 -64 643 -11 q 557 -171 557 -117 q 581 -233 557 -212 q 639 -254 604 -254 q 657 -253 646 -254 q 679 -249 668 -251 z "},"ç":{"ha":757,"x_min":65,"x_max":706,"o":"m 632 178 l 706 110 q 587 13 658 49 q 425 -22 515 -22 q 240 25 321 -22 q 112 154 158 72 q 65 342 65 236 q 112 529 65 447 q 240 658 158 611 q 426 706 322 706 q 588 670 517 706 q 706 574 658 635 l 632 506 q 549 585 599 556 q 426 615 499 615 q 294 581 351 615 q 206 484 238 546 q 174 342 174 422 q 206 199 174 261 q 294 103 238 138 q 426 68 351 68 q 549 98 499 68 q 632 178 599 128 m 257 -304 l 300 -239 q 341 -268 315 -257 q 394 -279 367 -279 q 447 -262 426 -279 q 468 -215 468 -244 q 447 -169 468 -187 q 385 -150 425 -150 q 360 -151 372 -150 q 335 -157 347 -153 l 383 14 l 457 14 l 424 -103 l 388 -75 q 475 -93 436 -75 q 536 -142 514 -111 q 558 -214 558 -174 q 515 -314 558 -274 q 389 -354 471 -354 q 315 -340 350 -354 q 257 -304 281 -326 z "},"ş":{"ha":714,"x_min":39,"x_max":654,"o":"m 39 106 l 111 175 q 221 94 160 124 q 358 65 282 65 q 495 101 442 65 q 549 192 549 136 q 503 267 549 240 q 351 310 458 294 q 133 377 196 332 q 69 499 69 422 q 106 608 69 561 q 206 680 142 654 q 351 706 269 706 q 515 672 443 706 q 643 578 588 639 l 571 508 q 475 589 529 560 q 351 618 421 618 q 225 586 275 618 q 175 501 175 554 q 217 440 175 463 q 361 403 260 417 q 588 331 522 381 q 654 194 654 282 q 616 81 654 131 q 511 5 578 32 q 358 -22 444 -22 q 180 12 258 -22 q 39 106 101 46 m 182 -304 l 225 -239 q 266 -268 240 -257 q 319 -279 292 -279 q 372 -262 351 -279 q 393 -215 393 -244 q 372 -169 393 -187 q 310 -150 350 -150 q 285 -151 297 -150 q 260 -157 272 -153 l 308 14 l 382 14 l 349 -103 l 313 -75 q 400 -93 361 -75 q 461 -142 439 -111 q 483 -214 483 -174 q 440 -314 483 -274 q 314 -354 396 -354 q 240 -340 275 -354 q 182 -304 206 -326 z "},"ţ":{"ha":544,"x_min":42,"x_max":496,"o":"m 496 0 l 335 0 q 223 40 263 0 q 183 151 183 79 l 183 883 l 286 883 l 286 160 q 304 108 286 126 q 357 89 322 89 l 496 89 l 496 0 m 486 596 l 42 596 l 42 683 l 486 683 l 486 596 m 181 -304 l 224 -239 q 265 -268 239 -257 q 318 -279 290 -279 q 371 -262 350 -279 q 392 -215 392 -244 q 370 -169 392 -187 q 308 -150 349 -150 q 283 -151 296 -150 q 258 -157 271 -153 l 307 14 l 381 14 l 347 -103 l 311 -75 q 399 -93 360 -75 q 460 -142 438 -111 q 482 -214 482 -174 q 438 -314 482 -274 q 313 -354 394 -354 q 239 -340 274 -354 q 181 -304 204 -326 z "},"ģ":{"ha":879,"x_min":65,"x_max":782,"o":"m 782 58 q 735 -122 782 -43 q 609 -247 689 -201 q 426 -292 529 -292 q 251 -256 329 -292 q 121 -160 172 -221 l 193 -90 q 288 -172 231 -142 q 426 -201 344 -201 q 558 -168 501 -201 q 647 -76 615 -135 q 679 58 679 -18 l 679 321 q 643 483 679 418 q 549 582 607 549 q 425 615 492 615 q 294 580 351 615 q 206 484 238 544 q 174 347 174 424 q 206 210 174 269 q 295 116 238 150 q 429 82 353 82 q 556 111 499 82 q 651 192 614 140 q 693 310 688 243 l 714 282 q 688 132 725 197 q 579 29 650 67 q 418 -8 508 -8 q 237 37 317 -8 q 111 163 157 82 q 65 347 65 243 q 112 532 65 451 q 237 659 158 613 q 413 706 315 706 q 542 681 481 706 q 648 605 604 656 q 706 476 692 554 l 681 476 l 681 683 l 782 683 l 782 58 m 426 1060 l 499 1060 q 458 981 474 1022 q 444 911 443 939 l 421 938 q 473 919 451 938 q 494 874 494 901 q 476 828 494 847 q 429 810 457 810 q 378 831 399 810 q 358 885 358 853 q 368 944 358 913 q 393 1006 378 975 q 426 1060 408 1036 z "},"ķ":{"ha":760,"x_min":97,"x_max":740,"o":"m 200 0 l 97 0 l 97 1000 l 200 1000 l 200 0 m 740 0 l 588 0 l 164 354 l 178 354 l 560 683 l 701 683 l 296 342 l 296 367 l 740 0 m 401 -375 l 329 -375 q 370 -296 354 -337 q 383 -226 386 -254 l 407 -253 q 355 -234 376 -253 q 333 -189 333 -215 q 353 -144 333 -162 q 399 -125 372 -125 q 450 -147 431 -125 q 469 -200 469 -168 q 460 -258 469 -226 q 435 -320 450 -290 q 401 -375 419 -350 z "},"ļ":{"ha":297,"x_min":78,"x_max":218,"o":"m 200 0 l 97 0 l 97 1000 l 200 1000 l 200 0 m 150 -375 l 78 -375 q 119 -296 103 -337 q 132 -226 135 -254 l 156 -253 q 103 -234 125 -253 q 82 -189 82 -215 q 101 -144 82 -162 q 147 -125 121 -125 q 199 -147 179 -125 q 218 -200 218 -168 q 208 -258 218 -226 q 183 -320 199 -290 q 150 -375 168 -350 z "},"ņ":{"ha":811,"x_min":97,"x_max":724,"o":"m 724 0 l 621 0 l 621 394 q 571 560 621 504 q 436 615 521 615 q 321 583 375 615 q 233 483 267 551 q 200 307 200 415 l 200 0 l 97 0 l 97 683 l 199 683 l 199 476 l 181 476 q 238 611 197 561 q 335 683 279 661 q 454 706 392 706 q 651 628 579 706 q 724 406 724 551 l 724 0 m 411 -375 l 339 -375 q 380 -296 364 -337 q 393 -226 396 -254 l 417 -253 q 365 -234 386 -253 q 343 -189 343 -215 q 363 -144 343 -162 q 408 -125 382 -125 q 460 -147 440 -125 q 479 -200 479 -168 q 469 -258 479 -226 q 444 -320 460 -290 q 411 -375 429 -350 z "},"ș":{"ha":714,"x_min":39,"x_max":654,"o":"m 39 106 l 111 175 q 221 94 160 124 q 358 65 282 65 q 495 101 442 65 q 549 192 549 136 q 503 267 549 240 q 351 310 458 294 q 133 377 196 332 q 69 499 69 422 q 106 608 69 561 q 206 680 142 654 q 351 706 269 706 q 515 672 443 706 q 643 578 588 639 l 571 508 q 475 589 529 560 q 351 618 421 618 q 225 586 275 618 q 175 501 175 554 q 217 440 175 463 q 361 403 260 417 q 588 331 522 381 q 654 194 654 282 q 616 81 654 131 q 511 5 578 32 q 358 -22 444 -22 q 180 12 258 -22 q 39 106 101 46 m 353 -375 l 281 -375 q 322 -296 306 -337 q 335 -226 338 -254 l 358 -253 q 306 -234 328 -253 q 285 -189 285 -215 q 304 -144 285 -162 q 350 -125 324 -125 q 401 -147 382 -125 q 421 -200 421 -168 q 411 -258 421 -226 q 386 -320 401 -290 q 353 -375 371 -350 z "},"ț":{"ha":544,"x_min":42,"x_max":496,"o":"m 496 0 l 335 0 q 223 40 263 0 q 183 151 183 79 l 183 883 l 286 883 l 286 160 q 304 108 286 126 q 357 89 322 89 l 496 89 l 496 0 m 486 596 l 42 596 l 42 683 l 486 683 l 486 596 m 351 -375 l 279 -375 q 320 -296 304 -337 q 333 -226 336 -254 l 357 -253 q 305 -234 326 -253 q 283 -189 283 -215 q 303 -144 283 -162 q 349 -125 322 -125 q 400 -147 381 -125 q 419 -200 419 -168 q 410 -258 419 -226 q 385 -320 400 -290 q 351 -375 369 -350 z "},"ą":{"ha":764,"x_min":56,"x_max":676,"o":"m 676 0 l 578 0 l 578 133 l 576 172 l 576 428 q 521 565 576 514 q 371 617 465 617 q 248 588 303 617 q 151 508 193 558 l 79 578 q 208 672 136 639 q 371 706 279 706 q 531 672 463 706 q 638 576 600 638 q 676 432 676 515 l 676 0 m 317 -22 q 180 6 239 -22 q 88 83 121 35 q 56 194 56 132 q 96 317 56 267 q 206 394 136 368 q 365 421 276 421 l 590 421 l 590 338 l 379 338 q 224 303 286 338 q 163 197 163 269 q 208 100 163 136 q 329 64 254 64 q 460 92 401 64 q 553 172 518 121 q 593 290 589 224 l 635 267 q 594 118 635 183 q 481 15 553 53 q 317 -22 408 -22 m 676 -250 l 676 -337 q 649 -342 663 -340 q 622 -343 636 -343 q 508 -303 554 -343 q 463 -192 463 -264 q 499 -75 463 -129 q 613 31 536 -21 l 676 0 q 582 -87 611 -43 q 553 -172 553 -131 q 577 -235 553 -214 q 636 -256 601 -256 q 654 -254 643 -256 q 676 -250 665 -253 z "},"ę":{"ha":835,"x_min":65,"x_max":769,"o":"m 675 194 l 747 126 q 617 17 693 57 q 442 -22 540 -22 q 248 25 333 -22 q 114 154 163 72 q 65 342 65 236 q 112 529 65 447 q 240 658 158 611 q 426 706 322 706 q 603 659 526 706 q 725 532 681 613 q 769 346 769 451 l 769 338 l 664 338 l 664 346 q 633 487 664 426 q 548 581 601 547 q 426 615 494 615 q 294 581 351 615 q 206 485 238 546 q 174 343 174 424 q 208 200 174 263 q 303 103 243 138 q 443 68 364 68 q 675 194 588 68 m 769 306 l 151 306 l 151 390 l 747 390 l 769 346 l 769 306 m 665 -250 l 665 -337 q 638 -342 651 -340 q 611 -343 625 -343 q 497 -302 543 -343 q 451 -189 451 -261 q 502 -51 451 -119 q 636 72 553 17 l 697 74 q 576 -62 611 -3 q 542 -168 542 -122 q 566 -233 542 -211 q 625 -256 590 -256 q 643 -254 632 -256 q 665 -250 654 -253 z "},"į":{"ha":297,"x_min":-14,"x_max":224,"o":"m 200 0 l 97 0 l 97 683 l 200 683 l 200 0 m 149 867 q 96 888 118 867 q 74 940 74 910 q 96 994 74 972 q 149 1015 118 1015 q 202 994 181 1015 q 224 940 224 972 q 202 888 224 910 q 149 867 181 867 m 200 -250 l 200 -337 q 173 -342 186 -340 q 146 -343 160 -343 q 32 -303 78 -343 q -14 -192 -14 -264 q 23 -75 -14 -129 q 136 31 60 -21 l 200 0 q 106 -87 135 -43 q 76 -172 76 -131 q 101 -235 76 -214 q 160 -256 125 -256 q 178 -254 167 -256 q 200 -250 189 -253 z "},"ų":{"ha":808,"x_min":88,"x_max":711,"o":"m 711 0 l 610 0 l 610 133 l 608 172 l 608 683 l 711 683 l 711 0 m 622 296 l 643 267 q 614 118 650 183 q 512 15 578 53 q 360 -22 446 -22 q 162 51 236 -22 q 88 264 88 125 l 88 683 l 190 683 l 190 275 q 240 121 190 174 q 378 68 289 68 q 494 97 440 68 q 582 176 547 125 q 622 296 617 228 m 711 -250 l 711 -337 q 684 -342 697 -340 q 657 -343 671 -343 q 543 -303 589 -343 q 497 -192 497 -264 q 534 -75 497 -129 q 647 31 571 -21 l 711 0 q 617 -87 646 -43 q 588 -172 588 -131 q 612 -235 588 -214 q 671 -256 636 -256 q 689 -254 678 -256 q 711 -250 700 -253 z "},"́":{"ha":0,"x_min":-72,"x_max":208,"o":"m 208 1057 l 21 815 l -72 815 l 86 1057 l 208 1057 z "},"´":{"ha":811,"x_min":258,"x_max":539,"o":"m 539 1057 l 351 815 l 258 815 l 417 1057 l 539 1057 z "},"̋":{"ha":0,"x_min":-196,"x_max":385,"o":"m 140 1057 l -103 815 l -196 815 l 18 1057 l 140 1057 m 385 1057 l 142 815 l 49 815 l 263 1057 l 385 1057 z "},"˝":{"ha":811,"x_min":108,"x_max":689,"o":"m 444 1057 l 201 815 l 108 815 l 322 1057 l 444 1057 m 689 1057 l 446 815 l 353 815 l 567 1057 l 689 1057 z "},"Á":{"ha":1010,"x_min":50,"x_max":960,"o":"m 771 278 l 231 278 l 231 372 l 771 372 l 771 278 m 960 0 l 847 0 l 479 929 l 526 929 l 158 0 l 50 0 l 447 993 l 563 993 l 960 0 m 749 1310 l 533 1110 l 426 1110 l 613 1310 l 749 1310 z "},"Ć":{"ha":1026,"x_min":76,"x_max":969,"o":"m 892 240 l 969 167 q 802 28 906 79 q 575 -22 699 -22 q 377 17 468 -22 q 219 126 286 56 q 114 290 151 196 q 76 496 76 385 q 115 702 76 607 q 221 867 153 797 q 380 976 289 938 q 578 1015 471 1015 q 803 965 701 1015 q 969 826 906 914 l 892 753 q 761 874 840 829 q 578 918 682 918 q 378 863 467 918 q 239 713 290 808 q 188 496 188 618 q 239 280 188 375 q 378 130 290 185 q 578 75 467 75 q 761 119 682 75 q 892 240 840 164 m 822 1310 l 607 1110 l 500 1110 l 686 1310 l 822 1310 z "},"É":{"ha":838,"x_min":118,"x_max":775,"o":"m 775 0 l 118 0 l 118 993 l 775 993 l 775 899 l 225 899 l 225 94 l 775 94 l 775 0 m 749 461 l 211 461 l 211 556 l 749 556 l 749 461 m 690 1310 l 475 1110 l 368 1110 l 554 1310 l 690 1310 z "},"Í":{"ha":343,"x_min":93,"x_max":415,"o":"m 225 0 l 118 0 l 118 993 l 225 993 l 225 0 m 415 1310 l 200 1110 l 93 1110 l 279 1310 l 415 1310 z "},"Ĺ":{"ha":783,"x_min":93,"x_max":733,"o":"m 733 0 l 118 0 l 118 993 l 225 993 l 225 96 l 733 96 l 733 0 m 415 1310 l 200 1110 l 93 1110 l 279 1310 l 415 1310 z "},"Ń":{"ha":1025,"x_min":115,"x_max":910,"o":"m 218 0 l 115 0 l 115 993 l 232 993 l 829 117 l 807 117 l 807 993 l 910 993 l 910 0 l 793 0 l 196 876 l 218 876 l 218 0 m 757 1310 l 542 1110 l 435 1110 l 621 1310 l 757 1310 z "},"Ó":{"ha":1183,"x_min":76,"x_max":1107,"o":"m 592 -22 q 387 17 481 -22 q 223 126 293 56 q 115 291 153 196 q 76 497 76 386 q 115 703 76 608 q 223 867 153 797 q 387 976 293 938 q 592 1015 481 1015 q 797 976 703 1015 q 960 867 890 938 q 1069 703 1031 797 q 1107 497 1107 608 q 1069 291 1107 386 q 960 126 1031 196 q 797 17 890 56 q 592 -22 703 -22 m 592 75 q 802 129 711 75 q 944 279 893 183 q 996 497 996 375 q 944 715 996 619 q 802 864 893 810 q 592 918 711 918 q 382 864 474 918 q 239 715 290 810 q 188 497 188 619 q 239 279 188 375 q 382 129 290 183 q 592 75 474 75 m 836 1310 l 621 1110 l 514 1110 l 700 1310 l 836 1310 z "},"Ŕ":{"ha":954,"x_min":118,"x_max":926,"o":"m 225 0 l 118 0 l 118 993 l 503 993 q 674 958 601 993 q 788 861 747 924 q 829 715 829 799 q 788 569 829 632 q 674 472 747 507 q 503 438 601 438 l 211 438 l 211 532 l 503 532 q 662 581 604 532 q 719 715 719 629 q 662 850 719 801 q 503 899 604 899 l 225 899 l 225 0 m 926 0 l 789 0 l 407 463 l 532 463 l 926 0 m 699 1310 l 483 1110 l 376 1110 l 563 1310 l 699 1310 z "},"Ś":{"ha":943,"x_min":60,"x_max":872,"o":"m 60 161 l 139 236 q 235 150 182 186 q 349 94 288 114 q 483 75 411 75 q 626 100 564 75 q 725 170 689 125 q 761 276 761 215 q 696 398 761 354 q 474 465 631 442 q 256 520 338 486 q 139 606 175 554 q 103 729 103 657 q 150 878 103 814 q 281 979 197 943 q 472 1015 364 1015 q 691 967 596 1015 q 860 832 786 918 l 782 758 q 651 875 722 832 q 472 918 579 918 q 286 867 358 918 q 214 731 214 817 q 240 655 214 686 q 326 603 267 624 q 485 567 386 582 q 711 509 626 546 q 834 415 796 472 q 872 278 872 358 q 823 122 872 189 q 686 16 774 54 q 483 -22 599 -22 q 245 26 350 -22 q 60 161 140 75 m 717 1310 l 501 1110 l 394 1110 l 581 1310 l 717 1310 z "},"Ú":{"ha":1003,"x_min":104,"x_max":899,"o":"m 899 993 l 899 392 q 793 87 899 196 q 501 -22 688 -22 q 210 87 317 -22 q 104 392 104 196 l 104 993 l 211 993 l 211 392 q 288 156 211 238 q 501 75 364 75 q 717 156 640 75 q 793 392 793 238 l 793 993 l 899 993 m 746 1310 l 531 1110 l 424 1110 l 610 1310 l 746 1310 z "},"Ẃ":{"ha":1461,"x_min":56,"x_max":1406,"o":"m 1101 0 l 972 0 l 725 868 l 736 868 l 489 0 l 360 0 l 56 993 l 171 993 l 449 56 l 403 56 l 671 993 l 792 993 l 1060 56 l 1018 56 l 1296 993 l 1406 993 l 1101 0 m 975 1310 l 760 1110 l 653 1110 l 839 1310 l 975 1310 z "},"Ý":{"ha":899,"x_min":28,"x_max":871,"o":"m 503 0 l 396 0 l 396 438 l 28 993 l 151 993 l 469 497 l 433 497 l 751 993 l 871 993 l 503 435 l 503 0 m 693 1310 l 478 1110 l 371 1110 l 557 1310 l 693 1310 z "},"Ź":{"ha":846,"x_min":61,"x_max":786,"o":"m 786 0 l 61 0 l 61 96 l 644 897 l 79 897 l 79 993 l 769 993 l 769 897 l 186 96 l 786 96 l 786 0 m 668 1310 l 453 1110 l 346 1110 l 532 1310 l 668 1310 z "},"Ő":{"ha":1183,"x_min":76,"x_max":1107,"o":"m 592 -22 q 387 17 481 -22 q 223 126 293 56 q 115 291 153 196 q 76 497 76 386 q 115 703 76 608 q 223 867 153 797 q 387 976 293 938 q 592 1015 481 1015 q 797 976 703 1015 q 960 867 890 938 q 1069 703 1031 797 q 1107 497 1107 608 q 1069 291 1107 386 q 960 126 1031 196 q 797 17 890 56 q 592 -22 703 -22 m 592 75 q 802 129 711 75 q 944 279 893 183 q 996 497 996 375 q 944 715 996 619 q 802 864 893 810 q 592 918 711 918 q 382 864 474 918 q 239 715 290 810 q 188 497 188 619 q 239 279 188 375 q 382 129 290 183 q 592 75 474 75 m 725 1310 l 510 1110 l 403 1110 l 589 1310 l 725 1310 m 969 1310 l 754 1110 l 647 1110 l 833 1310 l 969 1310 z "},"Ű":{"ha":1003,"x_min":104,"x_max":899,"o":"m 899 993 l 899 392 q 793 87 899 196 q 501 -22 688 -22 q 210 87 317 -22 q 104 392 104 196 l 104 993 l 211 993 l 211 392 q 288 156 211 238 q 501 75 364 75 q 717 156 640 75 q 793 392 793 238 l 793 993 l 899 993 m 635 1310 l 419 1110 l 313 1110 l 499 1310 l 635 1310 m 879 1310 l 664 1110 l 557 1110 l 743 1310 l 879 1310 z "},"á":{"ha":764,"x_min":56,"x_max":676,"o":"m 676 0 l 578 0 l 578 133 l 576 172 l 576 428 q 521 565 576 514 q 371 617 465 617 q 248 588 303 617 q 151 508 193 558 l 79 578 q 208 672 136 639 q 371 706 279 706 q 531 672 463 706 q 638 576 600 638 q 676 432 676 515 l 676 0 m 317 -22 q 180 6 239 -22 q 88 83 121 35 q 56 194 56 132 q 96 317 56 267 q 206 394 136 368 q 365 421 276 421 l 590 421 l 590 338 l 379 338 q 224 303 286 338 q 163 197 163 269 q 208 100 163 136 q 329 64 254 64 q 460 92 401 64 q 553 172 518 121 q 593 290 589 224 l 635 267 q 594 118 635 183 q 481 15 553 53 q 317 -22 408 -22 m 579 1057 l 392 815 l 299 815 l 457 1057 l 579 1057 z "},"ć":{"ha":757,"x_min":65,"x_max":706,"o":"m 632 178 l 706 110 q 587 13 658 49 q 425 -22 515 -22 q 240 25 321 -22 q 112 154 158 72 q 65 342 65 236 q 112 529 65 447 q 240 658 158 611 q 426 706 322 706 q 588 670 517 706 q 706 574 658 635 l 632 506 q 549 585 599 556 q 426 615 499 615 q 294 581 351 615 q 206 484 238 546 q 174 342 174 422 q 206 199 174 261 q 294 103 238 138 q 426 68 351 68 q 549 98 499 68 q 632 178 599 128 m 635 1057 l 447 815 l 354 815 l 513 1057 l 635 1057 z "},"é":{"ha":835,"x_min":65,"x_max":769,"o":"m 675 194 l 747 126 q 617 17 693 57 q 442 -22 540 -22 q 248 25 333 -22 q 114 154 163 72 q 65 342 65 236 q 112 529 65 447 q 240 658 158 611 q 426 706 322 706 q 603 659 526 706 q 725 532 681 613 q 769 346 769 451 l 769 338 l 664 338 l 664 346 q 633 487 664 426 q 548 581 601 547 q 426 615 494 615 q 294 581 351 615 q 206 485 238 546 q 174 343 174 424 q 208 200 174 263 q 303 103 243 138 q 443 68 364 68 q 675 194 588 68 m 769 306 l 151 306 l 151 390 l 747 390 l 769 346 l 769 306 m 635 1057 l 447 815 l 354 815 l 513 1057 l 635 1057 z "},"í":{"ha":297,"x_min":78,"x_max":328,"o":"m 200 0 l 97 0 l 97 683 l 200 683 l 200 0 m 328 1057 l 168 815 l 78 815 l 208 1057 l 328 1057 z "},"ĺ":{"ha":297,"x_min":76,"x_max":363,"o":"m 200 0 l 97 0 l 97 1000 l 200 1000 l 200 0 m 363 1324 l 175 1124 l 76 1124 l 235 1324 l 363 1324 z "},"ń":{"ha":811,"x_min":97,"x_max":724,"o":"m 724 0 l 621 0 l 621 394 q 571 560 621 504 q 436 615 521 615 q 321 583 375 615 q 233 483 267 551 q 200 307 200 415 l 200 0 l 97 0 l 97 683 l 199 683 l 199 476 l 181 476 q 238 611 197 561 q 335 683 279 661 q 454 706 392 706 q 651 628 579 706 q 724 406 724 551 l 724 0 m 640 1057 l 453 815 l 360 815 l 518 1057 l 640 1057 z "},"ó":{"ha":853,"x_min":65,"x_max":788,"o":"m 426 -22 q 240 25 322 -22 q 112 154 158 72 q 65 342 65 236 q 112 529 65 447 q 240 658 158 611 q 426 706 322 706 q 613 658 532 706 q 741 529 694 611 q 788 342 788 447 q 741 154 788 236 q 613 25 694 72 q 426 -22 532 -22 m 426 68 q 558 103 501 68 q 647 199 615 138 q 679 342 679 261 q 647 484 679 422 q 558 581 615 546 q 426 615 501 615 q 294 581 351 615 q 206 484 238 546 q 174 342 174 422 q 206 199 174 261 q 294 103 238 138 q 426 68 351 68 m 635 1057 l 447 815 l 354 815 l 513 1057 l 635 1057 z "},"ŕ":{"ha":506,"x_min":97,"x_max":497,"o":"m 464 694 l 464 594 l 436 594 q 321 563 375 594 q 233 463 267 531 q 200 286 200 394 l 200 0 l 97 0 l 97 683 l 199 683 l 199 467 l 181 467 q 239 600 197 550 q 335 672 281 650 q 449 694 390 694 l 464 694 m 497 1057 l 310 815 l 217 815 l 375 1057 l 497 1057 z "},"ś":{"ha":714,"x_min":39,"x_max":654,"o":"m 39 106 l 111 175 q 221 94 160 124 q 358 65 282 65 q 495 101 442 65 q 549 192 549 136 q 503 267 549 240 q 351 310 458 294 q 133 377 196 332 q 69 499 69 422 q 106 608 69 561 q 206 680 142 654 q 351 706 269 706 q 515 672 443 706 q 643 578 588 639 l 571 508 q 475 589 529 560 q 351 618 421 618 q 225 586 275 618 q 175 501 175 554 q 217 440 175 463 q 361 403 260 417 q 588 331 522 381 q 654 194 654 282 q 616 81 654 131 q 511 5 578 32 q 358 -22 444 -22 q 180 12 258 -22 q 39 106 101 46 m 560 1057 l 372 815 l 279 815 l 438 1057 l 560 1057 z "},"ú":{"ha":808,"x_min":88,"x_max":711,"o":"m 711 0 l 610 0 l 610 133 l 608 172 l 608 683 l 711 683 l 711 0 m 622 296 l 643 267 q 614 118 650 183 q 512 15 578 53 q 360 -22 446 -22 q 162 51 236 -22 q 88 264 88 125 l 88 683 l 190 683 l 190 275 q 240 121 190 174 q 378 68 289 68 q 494 97 440 68 q 582 176 547 125 q 622 296 617 228 m 607 1057 l 419 815 l 326 815 l 485 1057 l 607 1057 z "},"ẃ":{"ha":1072,"x_min":28,"x_max":1044,"o":"m 825 0 l 706 0 l 525 597 l 547 597 l 367 0 l 247 0 l 28 683 l 135 683 l 329 39 l 289 39 l 485 683 l 593 683 l 788 39 l 747 39 l 942 683 l 1044 683 l 825 0 m 744 1057 l 557 815 l 464 815 l 622 1057 l 744 1057 z "},"ý":{"ha":746,"x_min":28,"x_max":718,"o":"m 613 683 l 718 683 l 371 -124 q 299 -231 342 -192 q 168 -269 256 -269 l 100 -269 l 100 -181 l 168 -181 q 241 -158 213 -181 q 288 -93 269 -136 l 324 -3 l 28 683 l 139 683 l 397 54 l 353 54 l 613 683 m 582 1057 l 394 815 l 301 815 l 460 1057 l 582 1057 z "},"ź":{"ha":678,"x_min":56,"x_max":625,"o":"m 625 0 l 56 0 l 56 86 l 488 597 l 69 597 l 69 683 l 611 683 l 611 597 l 179 86 l 625 86 l 625 0 m 544 1057 l 357 815 l 264 815 l 422 1057 l 544 1057 z "},"ő":{"ha":853,"x_min":65,"x_max":811,"o":"m 426 -22 q 240 25 322 -22 q 112 154 158 72 q 65 342 65 236 q 112 529 65 447 q 240 658 158 611 q 426 706 322 706 q 613 658 532 706 q 741 529 694 611 q 788 342 788 447 q 741 154 788 236 q 613 25 694 72 q 426 -22 532 -22 m 426 68 q 558 103 501 68 q 647 199 615 138 q 679 342 679 261 q 647 484 679 422 q 558 581 615 546 q 426 615 501 615 q 294 581 351 615 q 206 484 238 546 q 174 342 174 422 q 206 199 174 261 q 294 103 238 138 q 426 68 351 68 m 567 1057 l 324 815 l 231 815 l 444 1057 l 567 1057 m 811 1057 l 568 815 l 475 815 l 689 1057 l 811 1057 z "},"ű":{"ha":808,"x_min":88,"x_max":783,"o":"m 711 0 l 610 0 l 610 133 l 608 172 l 608 683 l 711 683 l 711 0 m 622 296 l 643 267 q 614 118 650 183 q 512 15 578 53 q 360 -22 446 -22 q 162 51 236 -22 q 88 264 88 125 l 88 683 l 190 683 l 190 275 q 240 121 190 174 q 378 68 289 68 q 494 97 440 68 q 582 176 547 125 q 622 296 617 228 m 539 1057 l 296 815 l 203 815 l 417 1057 l 539 1057 m 783 1057 l 540 815 l 447 815 l 661 1057 l 783 1057 z "},"̀":{"ha":0,"x_min":-208,"x_max":72,"o":"m -21 815 l -208 1057 l -86 1057 l 72 815 l -21 815 z "},"`":{"ha":811,"x_min":258,"x_max":539,"o":"m 446 815 l 258 1057 l 381 1057 l 539 815 l 446 815 z "},"À":{"ha":1010,"x_min":50,"x_max":960,"o":"m 771 278 l 231 278 l 231 372 l 771 372 l 771 278 m 960 0 l 847 0 l 479 929 l 526 929 l 158 0 l 50 0 l 447 993 l 563 993 l 960 0 m 475 1110 l 260 1310 l 396 1310 l 582 1110 l 475 1110 z "},"È":{"ha":838,"x_min":118,"x_max":775,"o":"m 775 0 l 118 0 l 118 993 l 775 993 l 775 899 l 225 899 l 225 94 l 775 94 l 775 0 m 749 461 l 211 461 l 211 556 l 749 556 l 749 461 m 417 1110 l 201 1310 l 338 1310 l 524 1110 l 417 1110 z "},"Ì":{"ha":343,"x_min":-74,"x_max":249,"o":"m 225 0 l 118 0 l 118 993 l 225 993 l 225 0 m 142 1110 l -74 1310 l 63 1310 l 249 1110 l 142 1110 z "},"Ò":{"ha":1183,"x_min":76,"x_max":1107,"o":"m 592 -22 q 387 17 481 -22 q 223 126 293 56 q 115 291 153 196 q 76 497 76 386 q 115 703 76 608 q 223 867 153 797 q 387 976 293 938 q 592 1015 481 1015 q 797 976 703 1015 q 960 867 890 938 q 1069 703 1031 797 q 1107 497 1107 608 q 1069 291 1107 386 q 960 126 1031 196 q 797 17 890 56 q 592 -22 703 -22 m 592 75 q 802 129 711 75 q 944 279 893 183 q 996 497 996 375 q 944 715 996 619 q 802 864 893 810 q 592 918 711 918 q 382 864 474 918 q 239 715 290 810 q 188 497 188 619 q 239 279 188 375 q 382 129 290 183 q 592 75 474 75 m 563 1110 l 347 1310 l 483 1310 l 669 1110 l 563 1110 z "},"Ù":{"ha":1003,"x_min":104,"x_max":899,"o":"m 899 993 l 899 392 q 793 87 899 196 q 501 -22 688 -22 q 210 87 317 -22 q 104 392 104 196 l 104 993 l 211 993 l 211 392 q 288 156 211 238 q 501 75 364 75 q 717 156 640 75 q 793 392 793 238 l 793 993 l 899 993 m 472 1110 l 257 1310 l 393 1310 l 579 1110 l 472 1110 z "},"Ẁ":{"ha":1461,"x_min":56,"x_max":1406,"o":"m 1101 0 l 972 0 l 725 868 l 736 868 l 489 0 l 360 0 l 56 993 l 171 993 l 449 56 l 403 56 l 671 993 l 792 993 l 1060 56 l 1018 56 l 1296 993 l 1406 993 l 1101 0 m 701 1110 l 486 1310 l 622 1310 l 808 1110 l 701 1110 z "},"Ỳ":{"ha":899,"x_min":28,"x_max":871,"o":"m 503 0 l 396 0 l 396 438 l 28 993 l 151 993 l 469 497 l 433 497 l 751 993 l 871 993 l 503 435 l 503 0 m 419 1110 l 204 1310 l 340 1310 l 526 1110 l 419 1110 z "},"à":{"ha":764,"x_min":56,"x_max":676,"o":"m 676 0 l 578 0 l 578 133 l 576 172 l 576 428 q 521 565 576 514 q 371 617 465 617 q 248 588 303 617 q 151 508 193 558 l 79 578 q 208 672 136 639 q 371 706 279 706 q 531 672 463 706 q 638 576 600 638 q 676 432 676 515 l 676 0 m 317 -22 q 180 6 239 -22 q 88 83 121 35 q 56 194 56 132 q 96 317 56 267 q 206 394 136 368 q 365 421 276 421 l 590 421 l 590 338 l 379 338 q 224 303 286 338 q 163 197 163 269 q 208 100 163 136 q 329 64 254 64 q 460 92 401 64 q 553 172 518 121 q 593 290 589 224 l 635 267 q 594 118 635 183 q 481 15 553 53 q 317 -22 408 -22 m 350 815 l 163 1057 l 285 1057 l 443 815 l 350 815 z "},"è":{"ha":835,"x_min":65,"x_max":769,"o":"m 675 194 l 747 126 q 617 17 693 57 q 442 -22 540 -22 q 248 25 333 -22 q 114 154 163 72 q 65 342 65 236 q 112 529 65 447 q 240 658 158 611 q 426 706 322 706 q 603 659 526 706 q 725 532 681 613 q 769 346 769 451 l 769 338 l 664 338 l 664 346 q 633 487 664 426 q 548 581 601 547 q 426 615 494 615 q 294 581 351 615 q 206 485 238 546 q 174 343 174 424 q 208 200 174 263 q 303 103 243 138 q 443 68 364 68 q 675 194 588 68 m 769 306 l 151 306 l 151 390 l 747 390 l 769 346 l 769 306 m 406 815 l 218 1057 l 340 1057 l 499 815 l 406 815 z "},"ì":{"ha":297,"x_min":-31,"x_max":219,"o":"m 200 0 l 97 0 l 97 683 l 200 683 l 200 0 m 129 815 l -31 1057 l 89 1057 l 219 815 l 129 815 z "},"ò":{"ha":853,"x_min":65,"x_max":788,"o":"m 426 -22 q 240 25 322 -22 q 112 154 158 72 q 65 342 65 236 q 112 529 65 447 q 240 658 158 611 q 426 706 322 706 q 613 658 532 706 q 741 529 694 611 q 788 342 788 447 q 741 154 788 236 q 613 25 694 72 q 426 -22 532 -22 m 426 68 q 558 103 501 68 q 647 199 615 138 q 679 342 679 261 q 647 484 679 422 q 558 581 615 546 q 426 615 501 615 q 294 581 351 615 q 206 484 238 546 q 174 342 174 422 q 206 199 174 261 q 294 103 238 138 q 426 68 351 68 m 406 815 l 218 1057 l 340 1057 l 499 815 l 406 815 z "},"ù":{"ha":808,"x_min":88,"x_max":711,"o":"m 711 0 l 610 0 l 610 133 l 608 172 l 608 683 l 711 683 l 711 0 m 622 296 l 643 267 q 614 118 650 183 q 512 15 578 53 q 360 -22 446 -22 q 162 51 236 -22 q 88 264 88 125 l 88 683 l 190 683 l 190 275 q 240 121 190 174 q 378 68 289 68 q 494 97 440 68 q 582 176 547 125 q 622 296 617 228 m 378 815 l 190 1057 l 313 1057 l 471 815 l 378 815 z "},"ẁ":{"ha":1072,"x_min":28,"x_max":1044,"o":"m 825 0 l 706 0 l 525 597 l 547 597 l 367 0 l 247 0 l 28 683 l 135 683 l 329 39 l 289 39 l 485 683 l 593 683 l 788 39 l 747 39 l 942 683 l 1044 683 l 825 0 m 515 815 l 328 1057 l 450 1057 l 608 815 l 515 815 z "},"ỳ":{"ha":746,"x_min":28,"x_max":718,"o":"m 613 683 l 718 683 l 371 -124 q 299 -231 342 -192 q 168 -269 256 -269 l 100 -269 l 100 -181 l 168 -181 q 241 -158 213 -181 q 288 -93 269 -136 l 324 -3 l 28 683 l 139 683 l 397 54 l 353 54 l 613 683 m 353 815 l 165 1057 l 288 1057 l 446 815 l 353 815 z "},"̂":{"ha":0,"x_min":-218,"x_max":218,"o":"m 218 815 l 121 815 l -47 1035 l 43 1035 l -125 815 l -218 815 l -46 1057 l 46 1057 l 218 815 z "},"ˆ":{"ha":811,"x_min":181,"x_max":617,"o":"m 617 815 l 519 815 l 351 1035 l 442 1035 l 274 815 l 181 815 l 353 1057 l 444 1057 l 617 815 z "},"̃":{"ha":0,"x_min":-228,"x_max":226,"o":"m 150 1000 l 226 965 q 177 859 213 889 q 100 829 142 829 q 40 842 69 829 q -18 876 11 854 q -62 908 -46 899 q -93 917 -78 917 q -130 895 -114 917 q -151 829 -146 874 l -228 864 q -178 970 -214 940 q -101 1000 -143 1000 q -41 988 -69 1000 q 17 953 -12 975 q 61 922 44 931 q 92 913 78 913 q 128 934 113 913 q 150 1000 144 956 z "},"˜":{"ha":811,"x_min":171,"x_max":625,"o":"m 549 1000 l 625 965 q 576 859 611 889 q 499 829 540 829 q 439 842 468 829 q 381 876 410 854 q 337 908 353 899 q 306 917 321 917 q 269 895 285 917 q 247 829 253 874 l 171 864 q 220 970 185 940 q 297 1000 256 1000 q 358 988 329 1000 q 415 953 386 975 q 460 922 443 931 q 490 913 476 913 q 527 934 511 913 q 549 1000 543 956 z "},"Â":{"ha":1010,"x_min":50,"x_max":960,"o":"m 771 278 l 231 278 l 231 372 l 771 372 l 771 278 m 960 0 l 847 0 l 479 929 l 526 929 l 158 0 l 50 0 l 447 993 l 563 993 l 960 0 m 735 1110 l 629 1110 l 449 1288 l 557 1288 l 378 1110 l 274 1110 l 458 1310 l 550 1310 l 735 1110 z "},"Ê":{"ha":838,"x_min":118,"x_max":775,"o":"m 775 0 l 118 0 l 118 993 l 775 993 l 775 899 l 225 899 l 225 94 l 775 94 l 775 0 m 749 461 l 211 461 l 211 556 l 749 556 l 749 461 m 676 1110 l 571 1110 l 390 1288 l 499 1288 l 319 1110 l 215 1110 l 400 1310 l 492 1310 l 676 1110 z "},"Î":{"ha":343,"x_min":-60,"x_max":401,"o":"m 225 0 l 118 0 l 118 993 l 225 993 l 225 0 m 401 1110 l 296 1110 l 115 1288 l 224 1288 l 44 1110 l -60 1110 l 125 1310 l 217 1310 l 401 1110 z "},"Ô":{"ha":1183,"x_min":76,"x_max":1107,"o":"m 592 -22 q 387 17 481 -22 q 223 126 293 56 q 115 291 153 196 q 76 497 76 386 q 115 703 76 608 q 223 867 153 797 q 387 976 293 938 q 592 1015 481 1015 q 797 976 703 1015 q 960 867 890 938 q 1069 703 1031 797 q 1107 497 1107 608 q 1069 291 1107 386 q 960 126 1031 196 q 797 17 890 56 q 592 -22 703 -22 m 592 75 q 802 129 711 75 q 944 279 893 183 q 996 497 996 375 q 944 715 996 619 q 802 864 893 810 q 592 918 711 918 q 382 864 474 918 q 239 715 290 810 q 188 497 188 619 q 239 279 188 375 q 382 129 290 183 q 592 75 474 75 m 822 1110 l 717 1110 l 536 1288 l 644 1288 l 465 1110 l 361 1110 l 546 1310 l 638 1310 l 822 1110 z "},"Û":{"ha":1003,"x_min":104,"x_max":899,"o":"m 899 993 l 899 392 q 793 87 899 196 q 501 -22 688 -22 q 210 87 317 -22 q 104 392 104 196 l 104 993 l 211 993 l 211 392 q 288 156 211 238 q 501 75 364 75 q 717 156 640 75 q 793 392 793 238 l 793 993 l 899 993 m 732 1110 l 626 1110 l 446 1288 l 554 1288 l 375 1110 l 271 1110 l 456 1310 l 547 1310 l 732 1110 z "},"Ŵ":{"ha":1461,"x_min":56,"x_max":1406,"o":"m 1101 0 l 972 0 l 725 868 l 736 868 l 489 0 l 360 0 l 56 993 l 171 993 l 449 56 l 403 56 l 671 993 l 792 993 l 1060 56 l 1018 56 l 1296 993 l 1406 993 l 1101 0 m 961 1110 l 856 1110 l 675 1288 l 783 1288 l 604 1110 l 500 1110 l 685 1310 l 776 1310 l 961 1110 z "},"Ŷ":{"ha":899,"x_min":28,"x_max":871,"o":"m 503 0 l 396 0 l 396 438 l 28 993 l 151 993 l 469 497 l 433 497 l 751 993 l 871 993 l 503 435 l 503 0 m 679 1110 l 574 1110 l 393 1288 l 501 1288 l 322 1110 l 218 1110 l 403 1310 l 494 1310 l 679 1110 z "},"Ã":{"ha":1010,"x_min":50,"x_max":960,"o":"m 771 278 l 231 278 l 231 372 l 771 372 l 771 278 m 960 0 l 847 0 l 479 929 l 526 929 l 158 0 l 50 0 l 447 993 l 563 993 l 960 0 m 668 1265 l 747 1232 q 689 1135 733 1165 q 600 1104 644 1104 q 544 1116 572 1104 q 486 1147 515 1128 q 439 1176 456 1167 q 406 1186 422 1186 q 365 1168 383 1186 q 339 1110 346 1150 l 260 1143 q 318 1240 274 1210 q 407 1271 363 1271 q 463 1259 435 1271 q 521 1228 492 1247 q 568 1199 551 1208 q 601 1189 585 1189 q 643 1208 624 1189 q 668 1265 663 1226 z "},"Ĩ":{"ha":343,"x_min":-74,"x_max":414,"o":"m 225 0 l 118 0 l 118 993 l 225 993 l 225 0 m 335 1265 l 414 1232 q 356 1135 400 1165 q 267 1104 311 1104 q 210 1116 239 1104 q 153 1147 182 1128 q 106 1176 122 1167 q 72 1186 89 1186 q 31 1168 50 1186 q 6 1110 13 1150 l -74 1143 q -15 1240 -60 1210 q 74 1271 29 1271 q 130 1259 101 1271 q 188 1228 158 1247 q 235 1199 218 1208 q 268 1189 251 1189 q 310 1208 290 1189 q 335 1265 329 1226 z "},"Ñ":{"ha":1025,"x_min":115,"x_max":910,"o":"m 218 0 l 115 0 l 115 993 l 232 993 l 829 117 l 807 117 l 807 993 l 910 993 l 910 0 l 793 0 l 196 876 l 218 876 l 218 0 m 676 1265 l 756 1232 q 697 1135 742 1165 q 608 1104 653 1104 q 552 1116 581 1104 q 494 1147 524 1128 q 447 1176 464 1167 q 414 1186 431 1186 q 373 1168 392 1186 q 347 1110 354 1150 l 268 1143 q 326 1240 282 1210 q 415 1271 371 1271 q 472 1259 443 1271 q 529 1228 500 1247 q 576 1199 560 1208 q 610 1189 593 1189 q 651 1208 632 1189 q 676 1265 671 1226 z "},"Õ":{"ha":1183,"x_min":76,"x_max":1107,"o":"m 592 -22 q 387 17 481 -22 q 223 126 293 56 q 115 291 153 196 q 76 497 76 386 q 115 703 76 608 q 223 867 153 797 q 387 976 293 938 q 592 1015 481 1015 q 797 976 703 1015 q 960 867 890 938 q 1069 703 1031 797 q 1107 497 1107 608 q 1069 291 1107 386 q 960 126 1031 196 q 797 17 890 56 q 592 -22 703 -22 m 592 75 q 802 129 711 75 q 944 279 893 183 q 996 497 996 375 q 944 715 996 619 q 802 864 893 810 q 592 918 711 918 q 382 864 474 918 q 239 715 290 810 q 188 497 188 619 q 239 279 188 375 q 382 129 290 183 q 592 75 474 75 m 756 1265 l 835 1232 q 776 1135 821 1165 q 688 1104 732 1104 q 631 1116 660 1104 q 574 1147 603 1128 q 526 1176 543 1167 q 493 1186 510 1186 q 452 1168 471 1186 q 426 1110 433 1150 l 347 1143 q 406 1240 361 1210 q 494 1271 450 1271 q 551 1259 522 1271 q 608 1228 579 1247 q 656 1199 639 1208 q 689 1189 672 1189 q 731 1208 711 1189 q 756 1265 750 1226 z "},"Ũ":{"ha":1003,"x_min":104,"x_max":899,"o":"m 899 993 l 899 392 q 793 87 899 196 q 501 -22 688 -22 q 210 87 317 -22 q 104 392 104 196 l 104 993 l 211 993 l 211 392 q 288 156 211 238 q 501 75 364 75 q 717 156 640 75 q 793 392 793 238 l 793 993 l 899 993 m 665 1265 l 744 1232 q 686 1135 731 1165 q 597 1104 642 1104 q 541 1116 569 1104 q 483 1147 513 1128 q 436 1176 453 1167 q 403 1186 419 1186 q 362 1168 381 1186 q 336 1110 343 1150 l 257 1143 q 315 1240 271 1210 q 404 1271 360 1271 q 460 1259 432 1271 q 518 1228 489 1247 q 565 1199 549 1208 q 599 1189 582 1189 q 640 1208 621 1189 q 665 1265 660 1226 z "},"â":{"ha":764,"x_min":56,"x_max":676,"o":"m 676 0 l 578 0 l 578 133 l 576 172 l 576 428 q 521 565 576 514 q 371 617 465 617 q 248 588 303 617 q 151 508 193 558 l 79 578 q 208 672 136 639 q 371 706 279 706 q 531 672 463 706 q 638 576 600 638 q 676 432 676 515 l 676 0 m 317 -22 q 180 6 239 -22 q 88 83 121 35 q 56 194 56 132 q 96 317 56 267 q 206 394 136 368 q 365 421 276 421 l 590 421 l 590 338 l 379 338 q 224 303 286 338 q 163 197 163 269 q 208 100 163 136 q 329 64 254 64 q 460 92 401 64 q 553 172 518 121 q 593 290 589 224 l 635 267 q 594 118 635 183 q 481 15 553 53 q 317 -22 408 -22 m 589 815 l 492 815 l 324 1035 l 414 1035 l 246 815 l 153 815 l 325 1057 l 417 1057 l 589 815 z "},"ê":{"ha":835,"x_min":65,"x_max":769,"o":"m 675 194 l 747 126 q 617 17 693 57 q 442 -22 540 -22 q 248 25 333 -22 q 114 154 163 72 q 65 342 65 236 q 112 529 65 447 q 240 658 158 611 q 426 706 322 706 q 603 659 526 706 q 725 532 681 613 q 769 346 769 451 l 769 338 l 664 338 l 664 346 q 633 487 664 426 q 548 581 601 547 q 426 615 494 615 q 294 581 351 615 q 206 485 238 546 q 174 343 174 424 q 208 200 174 263 q 303 103 243 138 q 443 68 364 68 q 675 194 588 68 m 769 306 l 151 306 l 151 390 l 747 390 l 769 346 l 769 306 m 644 815 l 547 815 l 379 1035 l 469 1035 l 301 815 l 208 815 l 381 1057 l 472 1057 l 644 815 z "},"î":{"ha":297,"x_min":-62,"x_max":360,"o":"m 200 0 l 97 0 l 97 683 l 200 683 l 200 0 m 360 815 l 263 815 l 96 1033 l 197 1033 l 31 815 l -62 815 l 110 1057 l 188 1057 l 360 815 z "},"ô":{"ha":853,"x_min":65,"x_max":788,"o":"m 426 -22 q 240 25 322 -22 q 112 154 158 72 q 65 342 65 236 q 112 529 65 447 q 240 658 158 611 q 426 706 322 706 q 613 658 532 706 q 741 529 694 611 q 788 342 788 447 q 741 154 788 236 q 613 25 694 72 q 426 -22 532 -22 m 426 68 q 558 103 501 68 q 647 199 615 138 q 679 342 679 261 q 647 484 679 422 q 558 581 615 546 q 426 615 501 615 q 294 581 351 615 q 206 484 238 546 q 174 342 174 422 q 206 199 174 261 q 294 103 238 138 q 426 68 351 68 m 644 815 l 547 815 l 379 1035 l 469 1035 l 301 815 l 208 815 l 381 1057 l 472 1057 l 644 815 z "},"û":{"ha":808,"x_min":88,"x_max":711,"o":"m 711 0 l 610 0 l 610 133 l 608 172 l 608 683 l 711 683 l 711 0 m 622 296 l 643 267 q 614 118 650 183 q 512 15 578 53 q 360 -22 446 -22 q 162 51 236 -22 q 88 264 88 125 l 88 683 l 190 683 l 190 275 q 240 121 190 174 q 378 68 289 68 q 494 97 440 68 q 582 176 547 125 q 622 296 617 228 m 617 815 l 519 815 l 351 1035 l 442 1035 l 274 815 l 181 815 l 353 1057 l 444 1057 l 617 815 z "},"ŵ":{"ha":1072,"x_min":28,"x_max":1044,"o":"m 825 0 l 706 0 l 525 597 l 547 597 l 367 0 l 247 0 l 28 683 l 135 683 l 329 39 l 289 39 l 485 683 l 593 683 l 788 39 l 747 39 l 942 683 l 1044 683 l 825 0 m 754 815 l 657 815 l 489 1035 l 579 1035 l 411 815 l 318 815 l 490 1057 l 582 1057 l 754 815 z "},"ŷ":{"ha":746,"x_min":28,"x_max":718,"o":"m 613 683 l 718 683 l 371 -124 q 299 -231 342 -192 q 168 -269 256 -269 l 100 -269 l 100 -181 l 168 -181 q 241 -158 213 -181 q 288 -93 269 -136 l 324 -3 l 28 683 l 139 683 l 397 54 l 353 54 l 613 683 m 592 815 l 494 815 l 326 1035 l 417 1035 l 249 815 l 156 815 l 328 1057 l 419 1057 l 592 815 z "},"ã":{"ha":764,"x_min":56,"x_max":676,"o":"m 676 0 l 578 0 l 578 133 l 576 172 l 576 428 q 521 565 576 514 q 371 617 465 617 q 248 588 303 617 q 151 508 193 558 l 79 578 q 208 672 136 639 q 371 706 279 706 q 531 672 463 706 q 638 576 600 638 q 676 432 676 515 l 676 0 m 317 -22 q 180 6 239 -22 q 88 83 121 35 q 56 194 56 132 q 96 317 56 267 q 206 394 136 368 q 365 421 276 421 l 590 421 l 590 338 l 379 338 q 224 303 286 338 q 163 197 163 269 q 208 100 163 136 q 329 64 254 64 q 460 92 401 64 q 553 172 518 121 q 593 290 589 224 l 635 267 q 594 118 635 183 q 481 15 553 53 q 317 -22 408 -22 m 521 1000 l 597 965 q 548 859 583 889 q 471 829 513 829 q 411 842 440 829 q 353 876 382 854 q 309 908 325 899 q 278 917 293 917 q 241 895 257 917 q 219 829 225 874 l 143 864 q 192 970 157 940 q 269 1000 228 1000 q 330 988 301 1000 q 388 953 358 975 q 432 922 415 931 q 463 913 449 913 q 499 934 483 913 q 521 1000 515 956 z "},"ĩ":{"ha":297,"x_min":-60,"x_max":356,"o":"m 200 0 l 97 0 l 97 683 l 200 683 l 200 0 m 283 1000 l 356 965 q 310 859 343 889 q 239 829 276 829 q 185 842 211 829 q 132 876 158 854 q 92 908 107 899 q 65 917 78 917 q 32 895 47 917 q 13 829 17 874 l -60 864 q -14 970 -47 940 q 57 1000 19 1000 q 111 988 85 1000 q 164 953 138 975 q 203 922 189 931 q 231 913 218 913 q 265 934 250 913 q 283 1000 279 956 z "},"ñ":{"ha":811,"x_min":97,"x_max":724,"o":"m 724 0 l 621 0 l 621 394 q 571 560 621 504 q 436 615 521 615 q 321 583 375 615 q 233 483 267 551 q 200 307 200 415 l 200 0 l 97 0 l 97 683 l 199 683 l 199 476 l 181 476 q 238 611 197 561 q 335 683 279 661 q 454 706 392 706 q 651 628 579 706 q 724 406 724 551 l 724 0 m 582 1000 l 658 965 q 609 859 644 889 q 532 829 574 829 q 472 842 501 829 q 414 876 443 854 q 370 908 386 899 q 339 917 354 917 q 302 895 318 917 q 281 829 286 874 l 204 864 q 253 970 218 940 q 331 1000 289 1000 q 391 988 363 1000 q 449 953 419 975 q 493 922 476 931 q 524 913 510 913 q 560 934 544 913 q 582 1000 576 956 z "},"õ":{"ha":853,"x_min":65,"x_max":788,"o":"m 426 -22 q 240 25 322 -22 q 112 154 158 72 q 65 342 65 236 q 112 529 65 447 q 240 658 158 611 q 426 706 322 706 q 613 658 532 706 q 741 529 694 611 q 788 342 788 447 q 741 154 788 236 q 613 25 694 72 q 426 -22 532 -22 m 426 68 q 558 103 501 68 q 647 199 615 138 q 679 342 679 261 q 647 484 679 422 q 558 581 615 546 q 426 615 501 615 q 294 581 351 615 q 206 484 238 546 q 174 342 174 422 q 206 199 174 261 q 294 103 238 138 q 426 68 351 68 m 576 1000 l 653 965 q 603 859 639 889 q 526 829 568 829 q 467 842 496 829 q 408 876 438 854 q 365 908 381 899 q 333 917 349 917 q 297 895 313 917 q 275 829 281 874 l 199 864 q 248 970 213 940 q 325 1000 283 1000 q 385 988 357 1000 q 443 953 414 975 q 488 922 471 931 q 518 913 504 913 q 555 934 539 913 q 576 1000 571 956 z "},"ũ":{"ha":808,"x_min":88,"x_max":711,"o":"m 711 0 l 610 0 l 610 133 l 608 172 l 608 683 l 711 683 l 711 0 m 622 296 l 643 267 q 614 118 650 183 q 512 15 578 53 q 360 -22 446 -22 q 162 51 236 -22 q 88 264 88 125 l 88 683 l 190 683 l 190 275 q 240 121 190 174 q 378 68 289 68 q 494 97 440 68 q 582 176 547 125 q 622 296 617 228 m 549 1000 l 625 965 q 576 859 611 889 q 499 829 540 829 q 439 842 468 829 q 381 876 410 854 q 337 908 353 899 q 306 917 321 917 q 269 895 285 917 q 247 829 253 874 l 171 864 q 220 970 185 940 q 297 1000 256 1000 q 358 988 329 1000 q 415 953 386 975 q 460 922 443 931 q 490 913 476 913 q 527 934 511 913 q 549 1000 543 956 z "},"̌":{"ha":0,"x_min":-218,"x_max":218,"o":"m -218 1057 l -121 1057 l 47 838 l -43 838 l 125 1057 l 218 1057 l 46 815 l -46 815 l -218 1057 z "},"ˇ":{"ha":811,"x_min":181,"x_max":617,"o":"m 181 1057 l 278 1057 l 446 838 l 356 838 l 524 1057 l 617 1057 l 444 815 l 353 815 l 181 1057 z "},"̕":{"ha":0,"x_min":-67,"x_max":78,"o":"m -1 726 l -67 726 q -21 815 -37 767 q -7 896 -4 863 l 4 874 q -47 894 -26 874 q -67 944 -67 914 q -47 994 -67 974 q 1 1015 -26 1015 q 56 992 35 1015 q 78 931 78 968 q 67 863 78 900 q 38 790 56 826 q -1 726 19 754 z "},"̄":{"ha":0,"x_min":-193,"x_max":193,"o":"m 193 864 l -193 864 l -193 949 l 193 949 l 193 864 z "},"¯":{"ha":811,"x_min":206,"x_max":592,"o":"m 592 864 l 206 864 l 206 949 l 592 949 l 592 864 z "},"Č":{"ha":1026,"x_min":76,"x_max":969,"o":"m 892 240 l 969 167 q 802 28 906 79 q 575 -22 699 -22 q 377 17 468 -22 q 219 126 286 56 q 114 290 151 196 q 76 496 76 385 q 115 702 76 607 q 221 867 153 797 q 380 976 289 938 q 578 1015 471 1015 q 803 965 701 1015 q 969 826 906 914 l 892 753 q 761 874 840 829 q 578 918 682 918 q 378 863 467 918 q 239 713 290 808 q 188 496 188 618 q 239 280 188 375 q 378 130 290 185 q 578 75 467 75 q 761 119 682 75 q 892 240 840 164 m 347 1310 l 453 1310 l 633 1132 l 525 1132 l 704 1310 l 808 1310 l 624 1110 l 532 1110 l 347 1310 z "},"Ď":{"ha":1029,"x_min":118,"x_max":954,"o":"m 118 0 l 118 993 l 439 993 q 708 929 592 993 q 889 753 824 865 q 954 497 954 642 q 889 240 954 353 q 708 64 824 128 q 439 0 592 0 l 118 0 m 225 97 l 439 97 q 653 147 563 97 q 794 288 744 197 q 843 497 843 378 q 794 706 843 617 q 653 846 744 796 q 439 896 563 896 l 225 896 l 225 97 m 242 1310 l 347 1310 l 528 1132 l 419 1132 l 599 1310 l 703 1310 l 518 1110 l 426 1110 l 242 1310 z "},"Ě":{"ha":838,"x_min":118,"x_max":775,"o":"m 775 0 l 118 0 l 118 993 l 775 993 l 775 899 l 225 899 l 225 94 l 775 94 l 775 0 m 749 461 l 211 461 l 211 556 l 749 556 l 749 461 m 215 1310 l 321 1310 l 501 1132 l 393 1132 l 572 1310 l 676 1310 l 492 1110 l 400 1110 l 215 1310 z "},"Ľ":{"ha":783,"x_min":118,"x_max":733,"o":"m 733 0 l 118 0 l 118 993 l 225 993 l 225 96 l 733 96 l 733 0 m 517 726 l 451 726 q 497 815 481 767 q 511 896 514 863 l 522 874 q 472 894 492 874 q 451 944 451 914 q 472 994 451 974 q 519 1015 492 1015 q 574 992 553 1015 q 596 931 596 968 q 585 863 596 900 q 556 790 574 826 q 517 726 538 754 z "},"Ň":{"ha":1025,"x_min":115,"x_max":910,"o":"m 218 0 l 115 0 l 115 993 l 232 993 l 829 117 l 807 117 l 807 993 l 910 993 l 910 0 l 793 0 l 196 876 l 218 876 l 218 0 m 282 1310 l 388 1310 l 568 1132 l 460 1132 l 639 1310 l 743 1310 l 558 1110 l 467 1110 l 282 1310 z "},"Ř":{"ha":954,"x_min":118,"x_max":926,"o":"m 225 0 l 118 0 l 118 993 l 503 993 q 674 958 601 993 q 788 861 747 924 q 829 715 829 799 q 788 569 829 632 q 674 472 747 507 q 503 438 601 438 l 211 438 l 211 532 l 503 532 q 662 581 604 532 q 719 715 719 629 q 662 850 719 801 q 503 899 604 899 l 225 899 l 225 0 m 926 0 l 789 0 l 407 463 l 532 463 l 926 0 m 224 1310 l 329 1310 l 510 1132 l 401 1132 l 581 1310 l 685 1310 l 500 1110 l 408 1110 l 224 1310 z "},"Š":{"ha":943,"x_min":60,"x_max":872,"o":"m 60 161 l 139 236 q 235 150 182 186 q 349 94 288 114 q 483 75 411 75 q 626 100 564 75 q 725 170 689 125 q 761 276 761 215 q 696 398 761 354 q 474 465 631 442 q 256 520 338 486 q 139 606 175 554 q 103 729 103 657 q 150 878 103 814 q 281 979 197 943 q 472 1015 364 1015 q 691 967 596 1015 q 860 832 786 918 l 782 758 q 651 875 722 832 q 472 918 579 918 q 286 867 358 918 q 214 731 214 817 q 240 655 214 686 q 326 603 267 624 q 485 567 386 582 q 711 509 626 546 q 834 415 796 472 q 872 278 872 358 q 823 122 872 189 q 686 16 774 54 q 483 -22 599 -22 q 245 26 350 -22 q 60 161 140 75 m 242 1310 l 347 1310 l 528 1132 l 419 1132 l 599 1310 l 703 1310 l 518 1110 l 426 1110 l 242 1310 z "},"Ť":{"ha":868,"x_min":50,"x_max":818,"o":"m 488 0 l 381 0 l 381 911 l 488 911 l 488 0 m 818 897 l 50 897 l 50 993 l 818 993 l 818 897 m 203 1310 l 308 1310 l 489 1132 l 381 1132 l 560 1310 l 664 1310 l 479 1110 l 388 1110 l 203 1310 z "},"Ž":{"ha":846,"x_min":61,"x_max":786,"o":"m 786 0 l 61 0 l 61 96 l 644 897 l 79 897 l 79 993 l 769 993 l 769 897 l 186 96 l 786 96 l 786 0 m 193 1310 l 299 1310 l 479 1132 l 371 1132 l 550 1310 l 654 1310 l 469 1110 l 378 1110 l 193 1310 z "},"Ā":{"ha":1010,"x_min":50,"x_max":960,"o":"m 771 278 l 231 278 l 231 372 l 771 372 l 771 278 m 960 0 l 847 0 l 479 929 l 526 929 l 158 0 l 50 0 l 447 993 l 563 993 l 960 0 m 713 1147 l 296 1147 l 296 1236 l 713 1236 l 713 1147 z "},"Ē":{"ha":838,"x_min":118,"x_max":775,"o":"m 775 0 l 118 0 l 118 993 l 775 993 l 775 899 l 225 899 l 225 94 l 775 94 l 775 0 m 749 461 l 211 461 l 211 556 l 749 556 l 749 461 m 654 1147 l 238 1147 l 238 1236 l 654 1236 l 654 1147 z "},"Ī":{"ha":343,"x_min":-37,"x_max":379,"o":"m 225 0 l 118 0 l 118 993 l 225 993 l 225 0 m 379 1147 l -37 1147 l -37 1236 l 379 1236 l 379 1147 z "},"Ū":{"ha":1003,"x_min":104,"x_max":899,"o":"m 899 993 l 899 392 q 793 87 899 196 q 501 -22 688 -22 q 210 87 317 -22 q 104 392 104 196 l 104 993 l 211 993 l 211 392 q 288 156 211 238 q 501 75 364 75 q 717 156 640 75 q 793 392 793 238 l 793 993 l 899 993 m 710 1147 l 293 1147 l 293 1236 l 710 1236 l 710 1147 z "},"č":{"ha":757,"x_min":65,"x_max":706,"o":"m 632 178 l 706 110 q 587 13 658 49 q 425 -22 515 -22 q 240 25 321 -22 q 112 154 158 72 q 65 342 65 236 q 112 529 65 447 q 240 658 158 611 q 426 706 322 706 q 588 670 517 706 q 706 574 658 635 l 632 506 q 549 585 599 556 q 426 615 499 615 q 294 581 351 615 q 206 484 238 546 q 174 342 174 422 q 206 199 174 261 q 294 103 238 138 q 426 68 351 68 q 549 98 499 68 q 632 178 599 128 m 208 1057 l 306 1057 l 474 838 l 383 838 l 551 1057 l 644 1057 l 472 815 l 381 815 l 208 1057 z "},"ď":{"ha":1028,"x_min":65,"x_max":1007,"o":"m 782 0 l 681 0 l 681 186 l 679 188 l 679 321 q 647 474 679 408 q 558 578 615 540 q 425 615 500 615 q 294 580 351 615 q 206 483 238 544 q 174 342 174 421 q 206 201 174 263 q 297 103 239 139 q 429 68 354 68 q 558 97 500 68 q 651 178 615 126 q 693 296 688 231 l 713 268 q 688 120 724 186 q 581 16 651 54 q 418 -22 511 -22 q 235 25 315 -22 q 110 154 156 72 q 65 342 65 236 q 110 528 65 446 q 234 658 156 610 q 413 706 313 706 q 549 677 488 706 q 653 597 611 649 q 706 476 694 546 l 679 476 l 679 1000 l 782 1000 l 782 0 m 928 726 l 863 726 q 908 815 892 767 q 922 896 925 863 l 933 874 q 883 894 903 874 q 863 944 863 914 q 883 994 863 974 q 931 1015 903 1015 q 985 992 964 1015 q 1007 931 1007 968 q 996 863 1007 900 q 967 790 985 826 q 928 726 949 754 z "},"ě":{"ha":835,"x_min":65,"x_max":769,"o":"m 675 194 l 747 126 q 617 17 693 57 q 442 -22 540 -22 q 248 25 333 -22 q 114 154 163 72 q 65 342 65 236 q 112 529 65 447 q 240 658 158 611 q 426 706 322 706 q 603 659 526 706 q 725 532 681 613 q 769 346 769 451 l 769 338 l 664 338 l 664 346 q 633 487 664 426 q 548 581 601 547 q 426 615 494 615 q 294 581 351 615 q 206 485 238 546 q 174 343 174 424 q 208 200 174 263 q 303 103 243 138 q 443 68 364 68 q 675 194 588 68 m 769 306 l 151 306 l 151 390 l 747 390 l 769 346 l 769 306 m 208 1057 l 306 1057 l 474 838 l 383 838 l 551 1057 l 644 1057 l 472 815 l 381 815 l 208 1057 z "},"ľ":{"ha":446,"x_min":97,"x_max":425,"o":"m 200 0 l 97 0 l 97 1000 l 200 1000 l 200 0 m 346 726 l 281 726 q 326 815 310 767 q 340 896 343 863 l 351 874 q 301 894 321 874 q 281 944 281 914 q 301 994 281 974 q 349 1015 321 1015 q 403 992 382 1015 q 425 931 425 968 q 414 863 425 900 q 385 790 403 826 q 346 726 367 754 z "},"ň":{"ha":811,"x_min":97,"x_max":724,"o":"m 724 0 l 621 0 l 621 394 q 571 560 621 504 q 436 615 521 615 q 321 583 375 615 q 233 483 267 551 q 200 307 200 415 l 200 0 l 97 0 l 97 683 l 199 683 l 199 476 l 181 476 q 238 611 197 561 q 335 683 279 661 q 454 706 392 706 q 651 628 579 706 q 724 406 724 551 l 724 0 m 214 1057 l 311 1057 l 479 838 l 389 838 l 557 1057 l 650 1057 l 478 815 l 386 815 l 214 1057 z "},"ř":{"ha":506,"x_min":71,"x_max":507,"o":"m 464 694 l 464 594 l 436 594 q 321 563 375 594 q 233 463 267 531 q 200 286 200 394 l 200 0 l 97 0 l 97 683 l 199 683 l 199 467 l 181 467 q 239 600 197 550 q 335 672 281 650 q 449 694 390 694 l 464 694 m 71 1057 l 168 1057 l 336 838 l 246 838 l 414 1057 l 507 1057 l 335 815 l 243 815 l 71 1057 z "},"š":{"ha":714,"x_min":39,"x_max":654,"o":"m 39 106 l 111 175 q 221 94 160 124 q 358 65 282 65 q 495 101 442 65 q 549 192 549 136 q 503 267 549 240 q 351 310 458 294 q 133 377 196 332 q 69 499 69 422 q 106 608 69 561 q 206 680 142 654 q 351 706 269 706 q 515 672 443 706 q 643 578 588 639 l 571 508 q 475 589 529 560 q 351 618 421 618 q 225 586 275 618 q 175 501 175 554 q 217 440 175 463 q 361 403 260 417 q 588 331 522 381 q 654 194 654 282 q 616 81 654 131 q 511 5 578 32 q 358 -22 444 -22 q 180 12 258 -22 q 39 106 101 46 m 133 1057 l 231 1057 l 399 838 l 308 838 l 476 1057 l 569 1057 l 397 815 l 306 815 l 133 1057 z "},"ť":{"ha":544,"x_min":42,"x_max":513,"o":"m 496 0 l 335 0 q 223 40 263 0 q 183 151 183 79 l 183 883 l 286 883 l 286 160 q 304 108 286 126 q 357 89 322 89 l 496 89 l 496 0 m 486 596 l 42 596 l 42 683 l 486 683 l 486 596 m 446 769 l 369 769 q 408 844 392 806 q 421 908 424 882 l 446 879 q 391 899 414 879 q 368 947 368 919 q 388 995 368 975 q 438 1015 408 1015 q 492 993 471 1015 q 513 936 513 971 q 492 851 513 896 q 446 769 471 806 z "},"ž":{"ha":678,"x_min":56,"x_max":625,"o":"m 625 0 l 56 0 l 56 86 l 488 597 l 69 597 l 69 683 l 611 683 l 611 597 l 179 86 l 625 86 l 625 0 m 118 1057 l 215 1057 l 383 838 l 293 838 l 461 1057 l 554 1057 l 382 815 l 290 815 l 118 1057 z "},"ā":{"ha":764,"x_min":56,"x_max":676,"o":"m 676 0 l 578 0 l 578 133 l 576 172 l 576 428 q 521 565 576 514 q 371 617 465 617 q 248 588 303 617 q 151 508 193 558 l 79 578 q 208 672 136 639 q 371 706 279 706 q 531 672 463 706 q 638 576 600 638 q 676 432 676 515 l 676 0 m 317 -22 q 180 6 239 -22 q 88 83 121 35 q 56 194 56 132 q 96 317 56 267 q 206 394 136 368 q 365 421 276 421 l 590 421 l 590 338 l 379 338 q 224 303 286 338 q 163 197 163 269 q 208 100 163 136 q 329 64 254 64 q 460 92 401 64 q 553 172 518 121 q 593 290 589 224 l 635 267 q 594 118 635 183 q 481 15 553 53 q 317 -22 408 -22 m 564 864 l 178 864 l 178 949 l 564 949 l 564 864 z "},"ē":{"ha":835,"x_min":65,"x_max":769,"o":"m 675 194 l 747 126 q 617 17 693 57 q 442 -22 540 -22 q 248 25 333 -22 q 114 154 163 72 q 65 342 65 236 q 112 529 65 447 q 240 658 158 611 q 426 706 322 706 q 603 659 526 706 q 725 532 681 613 q 769 346 769 451 l 769 338 l 664 338 l 664 346 q 633 487 664 426 q 548 581 601 547 q 426 615 494 615 q 294 581 351 615 q 206 485 238 546 q 174 343 174 424 q 208 200 174 263 q 303 103 243 138 q 443 68 364 68 q 675 194 588 68 m 769 306 l 151 306 l 151 390 l 747 390 l 769 346 l 769 306 m 619 864 l 233 864 l 233 949 l 619 949 l 619 864 z "},"ī":{"ha":297,"x_min":-25,"x_max":322,"o":"m 200 0 l 97 0 l 97 683 l 200 683 l 200 0 m 322 864 l -25 864 l -25 949 l 322 949 l 322 864 z "},"ū":{"ha":808,"x_min":88,"x_max":711,"o":"m 711 0 l 610 0 l 610 133 l 608 172 l 608 683 l 711 683 l 711 0 m 622 296 l 643 267 q 614 118 650 183 q 512 15 578 53 q 360 -22 446 -22 q 162 51 236 -22 q 88 264 88 125 l 88 683 l 190 683 l 190 275 q 240 121 190 174 q 378 68 289 68 q 494 97 440 68 q 582 176 547 125 q 622 296 617 228 m 592 864 l 206 864 l 206 949 l 592 949 l 592 864 z "},"̈":{"ha":0,"x_min":-215,"x_max":215,"o":"m 140 867 q 88 888 110 867 q 65 940 65 910 q 88 994 65 972 q 140 1015 110 1015 q 194 994 172 1015 q 215 940 215 972 q 194 888 215 910 q 140 867 172 867 m -140 867 q -193 888 -171 867 q -215 940 -215 910 q -193 994 -215 972 q -140 1015 -171 1015 q -87 994 -108 1015 q -65 940 -65 972 q -87 888 -65 910 q -140 867 -108 867 z "},"¨":{"ha":811,"x_min":183,"x_max":614,"o":"m 539 867 q 486 888 508 867 q 464 940 464 910 q 486 994 464 972 q 539 1015 508 1015 q 592 994 571 1015 q 614 940 614 972 q 592 888 614 910 q 539 867 571 867 m 258 867 q 206 888 228 867 q 183 940 183 910 q 206 994 183 972 q 258 1015 228 1015 q 312 994 290 1015 q 333 940 333 972 q 312 888 333 910 q 258 867 290 867 z "},"̆":{"ha":0,"x_min":-210,"x_max":210,"o":"m 0 808 q -142 865 -82 808 q -210 1017 -201 922 l -124 1017 q -81 920 -115 953 q 0 888 -47 888 q 81 920 47 888 q 124 1017 115 953 l 210 1017 q 142 865 201 922 q 0 808 82 808 z "},"˘":{"ha":811,"x_min":189,"x_max":608,"o":"m 399 808 q 257 865 317 808 q 189 1017 197 922 l 275 1017 q 317 920 283 953 q 399 888 351 888 q 480 920 446 888 q 522 1017 514 953 l 608 1017 q 540 865 600 922 q 399 808 481 808 z "},"Ä":{"ha":1010,"x_min":50,"x_max":960,"o":"m 771 278 l 231 278 l 231 372 l 771 372 l 771 278 m 960 0 l 847 0 l 479 929 l 526 929 l 158 0 l 50 0 l 447 993 l 563 993 l 960 0 m 651 1126 q 597 1149 619 1126 q 575 1201 575 1171 q 597 1256 575 1233 q 651 1278 619 1278 q 706 1256 683 1278 q 728 1201 728 1233 q 706 1149 728 1171 q 651 1126 683 1126 m 357 1126 q 303 1149 325 1126 q 281 1201 281 1171 q 303 1256 281 1233 q 357 1278 325 1278 q 411 1256 389 1278 q 433 1201 433 1233 q 411 1149 433 1171 q 357 1126 389 1126 z "},"Ë":{"ha":838,"x_min":118,"x_max":775,"o":"m 775 0 l 118 0 l 118 993 l 775 993 l 775 899 l 225 899 l 225 94 l 775 94 l 775 0 m 749 461 l 211 461 l 211 556 l 749 556 l 749 461 m 593 1126 q 539 1149 561 1126 q 517 1201 517 1171 q 539 1256 517 1233 q 593 1278 561 1278 q 647 1256 625 1278 q 669 1201 669 1233 q 647 1149 669 1171 q 593 1126 625 1126 m 299 1126 q 244 1149 267 1126 q 222 1201 222 1171 q 244 1256 222 1233 q 299 1278 267 1278 q 353 1256 331 1278 q 375 1201 375 1233 q 353 1149 375 1171 q 299 1126 331 1126 z "},"Ï":{"ha":343,"x_min":-53,"x_max":394,"o":"m 225 0 l 118 0 l 118 993 l 225 993 l 225 0 m 318 1126 q 264 1149 286 1126 q 242 1201 242 1171 q 264 1256 242 1233 q 318 1278 286 1278 q 372 1256 350 1278 q 394 1201 394 1233 q 372 1149 394 1171 q 318 1126 350 1126 m 24 1126 q -31 1149 -8 1126 q -53 1201 -53 1171 q -31 1256 -53 1233 q 24 1278 -8 1278 q 78 1256 56 1278 q 100 1201 100 1233 q 78 1149 100 1171 q 24 1126 56 1126 z "},"Ö":{"ha":1183,"x_min":76,"x_max":1107,"o":"m 592 -22 q 387 17 481 -22 q 223 126 293 56 q 115 291 153 196 q 76 497 76 386 q 115 703 76 608 q 223 867 153 797 q 387 976 293 938 q 592 1015 481 1015 q 797 976 703 1015 q 960 867 890 938 q 1069 703 1031 797 q 1107 497 1107 608 q 1069 291 1107 386 q 960 126 1031 196 q 797 17 890 56 q 592 -22 703 -22 m 592 75 q 802 129 711 75 q 944 279 893 183 q 996 497 996 375 q 944 715 996 619 q 802 864 893 810 q 592 918 711 918 q 382 864 474 918 q 239 715 290 810 q 188 497 188 619 q 239 279 188 375 q 382 129 290 183 q 592 75 474 75 m 739 1126 q 685 1149 707 1126 q 663 1201 663 1171 q 685 1256 663 1233 q 739 1278 707 1278 q 793 1256 771 1278 q 815 1201 815 1233 q 793 1149 815 1171 q 739 1126 771 1126 m 444 1126 q 390 1149 413 1126 q 368 1201 368 1171 q 390 1256 368 1233 q 444 1278 413 1278 q 499 1256 476 1278 q 521 1201 521 1233 q 499 1149 521 1171 q 444 1126 476 1126 z "},"Ü":{"ha":1003,"x_min":104,"x_max":899,"o":"m 899 993 l 899 392 q 793 87 899 196 q 501 -22 688 -22 q 210 87 317 -22 q 104 392 104 196 l 104 993 l 211 993 l 211 392 q 288 156 211 238 q 501 75 364 75 q 717 156 640 75 q 793 392 793 238 l 793 993 l 899 993 m 649 1126 q 594 1149 617 1126 q 572 1201 572 1171 q 594 1256 572 1233 q 649 1278 617 1278 q 703 1256 681 1278 q 725 1201 725 1233 q 703 1149 725 1171 q 649 1126 681 1126 m 354 1126 q 300 1149 322 1126 q 278 1201 278 1171 q 300 1256 278 1233 q 354 1278 322 1278 q 408 1256 386 1278 q 431 1201 431 1233 q 408 1149 431 1171 q 354 1126 386 1126 z "},"Ẅ":{"ha":1461,"x_min":56,"x_max":1406,"o":"m 1101 0 l 972 0 l 725 868 l 736 868 l 489 0 l 360 0 l 56 993 l 171 993 l 449 56 l 403 56 l 671 993 l 792 993 l 1060 56 l 1018 56 l 1296 993 l 1406 993 l 1101 0 m 878 1126 q 824 1149 846 1126 q 801 1201 801 1171 q 824 1256 801 1233 q 878 1278 846 1278 q 932 1256 910 1278 q 954 1201 954 1233 q 932 1149 954 1171 q 878 1126 910 1126 m 583 1126 q 529 1149 551 1126 q 507 1201 507 1171 q 529 1256 507 1233 q 583 1278 551 1278 q 638 1256 615 1278 q 660 1201 660 1233 q 638 1149 660 1171 q 583 1126 615 1126 z "},"Ÿ":{"ha":899,"x_min":28,"x_max":871,"o":"m 503 0 l 396 0 l 396 438 l 28 993 l 151 993 l 469 497 l 433 497 l 751 993 l 871 993 l 503 435 l 503 0 m 596 1126 q 542 1149 564 1126 q 519 1201 519 1171 q 542 1256 519 1233 q 596 1278 564 1278 q 650 1256 628 1278 q 672 1201 672 1233 q 650 1149 672 1171 q 596 1126 628 1126 m 301 1126 q 247 1149 269 1126 q 225 1201 225 1171 q 247 1256 225 1233 q 301 1278 269 1278 q 356 1256 333 1278 q 378 1201 378 1233 q 356 1149 378 1171 q 301 1126 333 1126 z "},"Ă":{"ha":1010,"x_min":50,"x_max":960,"o":"m 771 278 l 231 278 l 231 372 l 771 372 l 771 278 m 960 0 l 847 0 l 479 929 l 526 929 l 158 0 l 50 0 l 447 993 l 563 993 l 960 0 m 504 1104 q 351 1158 413 1104 q 281 1297 289 1211 l 369 1297 q 413 1217 376 1246 q 504 1188 450 1188 q 595 1217 558 1188 q 639 1297 632 1246 l 728 1297 q 658 1158 719 1211 q 504 1104 596 1104 z "},"Ğ":{"ha":1107,"x_min":76,"x_max":1022,"o":"m 1022 0 l 919 0 l 919 147 l 936 142 q 794 22 885 65 q 592 -22 703 -22 q 387 17 481 -22 q 223 126 293 56 q 115 291 153 196 q 76 497 76 386 q 115 703 76 608 q 222 867 153 797 q 385 976 292 938 q 588 1015 478 1015 q 818 965 715 1015 q 988 826 921 914 l 910 753 q 777 874 857 829 q 588 918 697 918 q 381 863 472 918 q 239 713 290 808 q 188 497 188 618 q 240 281 188 376 q 383 130 292 185 q 593 75 475 75 q 801 127 711 75 q 931 264 892 179 l 918 211 l 918 422 l 582 422 l 582 517 l 1022 517 l 1022 0 m 588 1104 q 434 1158 496 1104 q 364 1297 372 1211 l 453 1297 q 497 1217 460 1246 q 588 1188 533 1188 q 678 1217 642 1188 q 722 1297 715 1246 l 811 1297 q 741 1158 803 1211 q 588 1104 679 1104 z "},"ä":{"ha":764,"x_min":56,"x_max":676,"o":"m 676 0 l 578 0 l 578 133 l 576 172 l 576 428 q 521 565 576 514 q 371 617 465 617 q 248 588 303 617 q 151 508 193 558 l 79 578 q 208 672 136 639 q 371 706 279 706 q 531 672 463 706 q 638 576 600 638 q 676 432 676 515 l 676 0 m 317 -22 q 180 6 239 -22 q 88 83 121 35 q 56 194 56 132 q 96 317 56 267 q 206 394 136 368 q 365 421 276 421 l 590 421 l 590 338 l 379 338 q 224 303 286 338 q 163 197 163 269 q 208 100 163 136 q 329 64 254 64 q 460 92 401 64 q 553 172 518 121 q 593 290 589 224 l 635 267 q 594 118 635 183 q 481 15 553 53 q 317 -22 408 -22 m 511 867 q 458 888 481 867 q 436 940 436 910 q 458 994 436 972 q 511 1015 481 1015 q 565 994 543 1015 q 586 940 586 972 q 565 888 586 910 q 511 867 543 867 m 231 867 q 178 888 200 867 q 156 940 156 910 q 178 994 156 972 q 231 1015 200 1015 q 284 994 263 1015 q 306 940 306 972 q 284 888 306 910 q 231 867 263 867 z "},"ë":{"ha":835,"x_min":65,"x_max":769,"o":"m 675 194 l 747 126 q 617 17 693 57 q 442 -22 540 -22 q 248 25 333 -22 q 114 154 163 72 q 65 342 65 236 q 112 529 65 447 q 240 658 158 611 q 426 706 322 706 q 603 659 526 706 q 725 532 681 613 q 769 346 769 451 l 769 338 l 664 338 l 664 346 q 633 487 664 426 q 548 581 601 547 q 426 615 494 615 q 294 581 351 615 q 206 485 238 546 q 174 343 174 424 q 208 200 174 263 q 303 103 243 138 q 443 68 364 68 q 675 194 588 68 m 769 306 l 151 306 l 151 390 l 747 390 l 769 346 l 769 306 m 567 867 q 514 888 536 867 q 492 940 492 910 q 514 994 492 972 q 567 1015 536 1015 q 620 994 599 1015 q 642 940 642 972 q 620 888 642 910 q 567 867 599 867 m 286 867 q 233 888 256 867 q 211 940 211 910 q 233 994 211 972 q 286 1015 256 1015 q 340 994 318 1015 q 361 940 361 972 q 340 888 361 910 q 286 867 318 867 z "},"ï":{"ha":297,"x_min":-39,"x_max":336,"o":"m 200 0 l 97 0 l 97 683 l 200 683 l 200 0 m 261 867 q 208 888 231 867 q 186 940 186 910 q 208 994 186 972 q 261 1015 231 1015 q 315 994 293 1015 q 336 940 336 972 q 315 888 336 910 q 261 867 293 867 m 36 867 q -17 888 6 867 q -39 940 -39 910 q -17 994 -39 972 q 36 1015 6 1015 q 90 994 68 1015 q 111 940 111 972 q 90 888 111 910 q 36 867 68 867 z "},"ö":{"ha":853,"x_min":65,"x_max":788,"o":"m 426 -22 q 240 25 322 -22 q 112 154 158 72 q 65 342 65 236 q 112 529 65 447 q 240 658 158 611 q 426 706 322 706 q 613 658 532 706 q 741 529 694 611 q 788 342 788 447 q 741 154 788 236 q 613 25 694 72 q 426 -22 532 -22 m 426 68 q 558 103 501 68 q 647 199 615 138 q 679 342 679 261 q 647 484 679 422 q 558 581 615 546 q 426 615 501 615 q 294 581 351 615 q 206 484 238 546 q 174 342 174 422 q 206 199 174 261 q 294 103 238 138 q 426 68 351 68 m 567 867 q 514 888 536 867 q 492 940 492 910 q 514 994 492 972 q 567 1015 536 1015 q 620 994 599 1015 q 642 940 642 972 q 620 888 642 910 q 567 867 599 867 m 286 867 q 233 888 256 867 q 211 940 211 910 q 233 994 211 972 q 286 1015 256 1015 q 340 994 318 1015 q 361 940 361 972 q 340 888 361 910 q 286 867 318 867 z "},"ü":{"ha":808,"x_min":88,"x_max":711,"o":"m 711 0 l 610 0 l 610 133 l 608 172 l 608 683 l 711 683 l 711 0 m 622 296 l 643 267 q 614 118 650 183 q 512 15 578 53 q 360 -22 446 -22 q 162 51 236 -22 q 88 264 88 125 l 88 683 l 190 683 l 190 275 q 240 121 190 174 q 378 68 289 68 q 494 97 440 68 q 582 176 547 125 q 622 296 617 228 m 539 867 q 486 888 508 867 q 464 940 464 910 q 486 994 464 972 q 539 1015 508 1015 q 592 994 571 1015 q 614 940 614 972 q 592 888 614 910 q 539 867 571 867 m 258 867 q 206 888 228 867 q 183 940 183 910 q 206 994 183 972 q 258 1015 228 1015 q 312 994 290 1015 q 333 940 333 972 q 312 888 333 910 q 258 867 290 867 z "},"ẅ":{"ha":1072,"x_min":28,"x_max":1044,"o":"m 825 0 l 706 0 l 525 597 l 547 597 l 367 0 l 247 0 l 28 683 l 135 683 l 329 39 l 289 39 l 485 683 l 593 683 l 788 39 l 747 39 l 942 683 l 1044 683 l 825 0 m 676 867 q 624 888 646 867 q 601 940 601 910 q 624 994 601 972 q 676 1015 646 1015 q 730 994 708 1015 q 751 940 751 972 q 730 888 751 910 q 676 867 708 867 m 396 867 q 343 888 365 867 q 321 940 321 910 q 343 994 321 972 q 396 1015 365 1015 q 449 994 428 1015 q 471 940 471 972 q 449 888 471 910 q 396 867 428 867 z "},"ÿ":{"ha":746,"x_min":28,"x_max":718,"o":"m 613 683 l 718 683 l 371 -124 q 299 -231 342 -192 q 168 -269 256 -269 l 100 -269 l 100 -181 l 168 -181 q 241 -158 213 -181 q 288 -93 269 -136 l 324 -3 l 28 683 l 139 683 l 397 54 l 353 54 l 613 683 m 514 867 q 461 888 483 867 q 439 940 439 910 q 461 994 439 972 q 514 1015 483 1015 q 567 994 546 1015 q 589 940 589 972 q 567 888 589 910 q 514 867 546 867 m 233 867 q 181 888 203 867 q 158 940 158 910 q 181 994 158 972 q 233 1015 203 1015 q 287 994 265 1015 q 308 940 308 972 q 287 888 308 910 q 233 867 265 867 z "},"ă":{"ha":764,"x_min":56,"x_max":676,"o":"m 676 0 l 578 0 l 578 133 l 576 172 l 576 428 q 521 565 576 514 q 371 617 465 617 q 248 588 303 617 q 151 508 193 558 l 79 578 q 208 672 136 639 q 371 706 279 706 q 531 672 463 706 q 638 576 600 638 q 676 432 676 515 l 676 0 m 317 -22 q 180 6 239 -22 q 88 83 121 35 q 56 194 56 132 q 96 317 56 267 q 206 394 136 368 q 365 421 276 421 l 590 421 l 590 338 l 379 338 q 224 303 286 338 q 163 197 163 269 q 208 100 163 136 q 329 64 254 64 q 460 92 401 64 q 553 172 518 121 q 593 290 589 224 l 635 267 q 594 118 635 183 q 481 15 553 53 q 317 -22 408 -22 m 371 808 q 229 865 289 808 q 161 1017 169 922 l 247 1017 q 290 920 256 953 q 371 888 324 888 q 452 920 418 888 q 494 1017 486 953 l 581 1017 q 513 865 572 922 q 371 808 453 808 z "},"ğ":{"ha":879,"x_min":65,"x_max":782,"o":"m 782 58 q 735 -122 782 -43 q 609 -247 689 -201 q 426 -292 529 -292 q 251 -256 329 -292 q 121 -160 172 -221 l 193 -90 q 288 -172 231 -142 q 426 -201 344 -201 q 558 -168 501 -201 q 647 -76 615 -135 q 679 58 679 -18 l 679 321 q 643 483 679 418 q 549 582 607 549 q 425 615 492 615 q 294 580 351 615 q 206 484 238 544 q 174 347 174 424 q 206 210 174 269 q 295 116 238 150 q 429 82 353 82 q 556 111 499 82 q 651 192 614 140 q 693 310 688 243 l 714 282 q 688 132 725 197 q 579 29 650 67 q 418 -8 508 -8 q 237 37 317 -8 q 111 163 157 82 q 65 347 65 243 q 112 532 65 451 q 237 659 158 613 q 413 706 315 706 q 542 681 481 706 q 648 605 604 656 q 706 476 692 554 l 681 476 l 681 683 l 782 683 l 782 58 m 426 808 q 285 865 344 808 q 217 1017 225 922 l 303 1017 q 345 920 311 953 q 426 888 379 888 q 508 920 474 888 q 550 1017 542 953 l 636 1017 q 568 865 628 922 q 426 808 508 808 z "},"̇":{"ha":0,"x_min":-75,"x_max":75,"o":"m 0 867 q -53 888 -31 867 q -75 940 -75 910 q -53 994 -75 972 q 0 1015 -31 1015 q 53 994 32 1015 q 75 940 75 972 q 53 888 75 910 q 0 867 32 867 z "},"˙":{"ha":811,"x_min":324,"x_max":474,"o":"m 399 867 q 346 888 368 867 q 324 940 324 910 q 346 994 324 972 q 399 1015 368 1015 q 452 994 431 1015 q 474 940 474 972 q 452 888 474 910 q 399 867 431 867 z "},"Ė":{"ha":838,"x_min":118,"x_max":775,"o":"m 775 0 l 118 0 l 118 993 l 775 993 l 775 899 l 225 899 l 225 94 l 775 94 l 775 0 m 749 461 l 211 461 l 211 556 l 749 556 l 749 461 m 446 1124 q 389 1146 411 1124 q 367 1201 367 1168 q 389 1258 367 1236 q 446 1281 411 1281 q 503 1258 481 1281 q 525 1201 525 1236 q 503 1146 525 1168 q 446 1124 481 1124 z "},"İ":{"ha":343,"x_min":92,"x_max":250,"o":"m 225 0 l 118 0 l 118 993 l 225 993 l 225 0 m 171 1124 q 114 1146 136 1124 q 92 1201 92 1168 q 114 1258 92 1236 q 171 1281 136 1281 q 228 1258 206 1281 q 250 1201 250 1236 q 228 1146 250 1168 q 171 1124 206 1124 z "},"Ċ":{"ha":1026,"x_min":76,"x_max":969,"o":"m 892 240 l 969 167 q 802 28 906 79 q 575 -22 699 -22 q 377 17 468 -22 q 219 126 286 56 q 114 290 151 196 q 76 496 76 385 q 115 702 76 607 q 221 867 153 797 q 380 976 289 938 q 578 1015 471 1015 q 803 965 701 1015 q 969 826 906 914 l 892 753 q 761 874 840 829 q 578 918 682 918 q 378 863 467 918 q 239 713 290 808 q 188 496 188 618 q 239 280 188 375 q 378 130 290 185 q 578 75 467 75 q 761 119 682 75 q 892 240 840 164 m 578 1124 q 521 1146 543 1124 q 499 1201 499 1168 q 521 1258 499 1236 q 578 1281 543 1281 q 635 1258 613 1281 q 657 1201 657 1236 q 635 1146 657 1168 q 578 1124 613 1124 z "},"Ġ":{"ha":1107,"x_min":76,"x_max":1022,"o":"m 1022 0 l 919 0 l 919 147 l 936 142 q 794 22 885 65 q 592 -22 703 -22 q 387 17 481 -22 q 223 126 293 56 q 115 291 153 196 q 76 497 76 386 q 115 703 76 608 q 222 867 153 797 q 385 976 292 938 q 588 1015 478 1015 q 818 965 715 1015 q 988 826 921 914 l 910 753 q 777 874 857 829 q 588 918 697 918 q 381 863 472 918 q 239 713 290 808 q 188 497 188 618 q 240 281 188 376 q 383 130 292 185 q 593 75 475 75 q 801 127 711 75 q 931 264 892 179 l 918 211 l 918 422 l 582 422 l 582 517 l 1022 517 l 1022 0 m 588 1124 q 531 1146 553 1124 q 508 1201 508 1168 q 531 1258 508 1236 q 588 1281 553 1281 q 644 1258 622 1281 q 667 1201 667 1236 q 644 1146 667 1168 q 588 1124 622 1124 z "},"Ż":{"ha":846,"x_min":61,"x_max":786,"o":"m 786 0 l 61 0 l 61 96 l 644 897 l 79 897 l 79 993 l 769 993 l 769 897 l 186 96 l 786 96 l 786 0 m 424 1124 q 367 1146 389 1124 q 344 1201 344 1168 q 367 1258 344 1236 q 424 1281 389 1281 q 481 1258 458 1281 q 503 1201 503 1236 q 481 1146 503 1168 q 424 1124 458 1124 z "},"Ḥ":{"ha":1031,"x_min":118,"x_max":913,"o":"m 806 0 l 806 993 l 913 993 l 913 0 l 806 0 m 225 0 l 118 0 l 118 993 l 225 993 l 225 0 m 211 468 l 211 564 l 819 564 l 819 468 l 211 468 m 515 -308 q 458 -286 481 -308 q 436 -231 436 -264 q 458 -174 436 -196 q 515 -151 481 -151 q 572 -174 550 -151 q 594 -231 594 -196 q 572 -286 594 -264 q 515 -308 550 -308 z "},"Ḷ":{"ha":783,"x_min":118,"x_max":733,"o":"m 733 0 l 118 0 l 118 993 l 225 993 l 225 96 l 733 96 l 733 0 m 425 -308 q 368 -286 390 -308 q 346 -231 346 -264 q 368 -174 346 -196 q 425 -151 390 -151 q 482 -174 460 -151 q 504 -231 504 -196 q 482 -286 504 -264 q 425 -308 460 -308 z "},"ė":{"ha":835,"x_min":65,"x_max":769,"o":"m 675 194 l 747 126 q 617 17 693 57 q 442 -22 540 -22 q 248 25 333 -22 q 114 154 163 72 q 65 342 65 236 q 112 529 65 447 q 240 658 158 611 q 426 706 322 706 q 603 659 526 706 q 725 532 681 613 q 769 346 769 451 l 769 338 l 664 338 l 664 346 q 633 487 664 426 q 548 581 601 547 q 426 615 494 615 q 294 581 351 615 q 206 485 238 546 q 174 343 174 424 q 208 200 174 263 q 303 103 243 138 q 443 68 364 68 q 675 194 588 68 m 769 306 l 151 306 l 151 390 l 747 390 l 769 346 l 769 306 m 426 867 q 374 888 396 867 q 351 940 351 910 q 374 994 351 972 q 426 1015 396 1015 q 480 994 458 1015 q 501 940 501 972 q 480 888 501 910 q 426 867 458 867 z "},"ċ":{"ha":757,"x_min":65,"x_max":706,"o":"m 632 178 l 706 110 q 587 13 658 49 q 425 -22 515 -22 q 240 25 321 -22 q 112 154 158 72 q 65 342 65 236 q 112 529 65 447 q 240 658 158 611 q 426 706 322 706 q 588 670 517 706 q 706 574 658 635 l 632 506 q 549 585 599 556 q 426 615 499 615 q 294 581 351 615 q 206 484 238 546 q 174 342 174 422 q 206 199 174 261 q 294 103 238 138 q 426 68 351 68 q 549 98 499 68 q 632 178 599 128 m 426 867 q 374 888 396 867 q 351 940 351 910 q 374 994 351 972 q 426 1015 396 1015 q 480 994 458 1015 q 501 940 501 972 q 480 888 501 910 q 426 867 458 867 z "},"ġ":{"ha":879,"x_min":65,"x_max":782,"o":"m 782 58 q 735 -122 782 -43 q 609 -247 689 -201 q 426 -292 529 -292 q 251 -256 329 -292 q 121 -160 172 -221 l 193 -90 q 288 -172 231 -142 q 426 -201 344 -201 q 558 -168 501 -201 q 647 -76 615 -135 q 679 58 679 -18 l 679 321 q 643 483 679 418 q 549 582 607 549 q 425 615 492 615 q 294 580 351 615 q 206 484 238 544 q 174 347 174 424 q 206 210 174 269 q 295 116 238 150 q 429 82 353 82 q 556 111 499 82 q 651 192 614 140 q 693 310 688 243 l 714 282 q 688 132 725 197 q 579 29 650 67 q 418 -8 508 -8 q 237 37 317 -8 q 111 163 157 82 q 65 347 65 243 q 112 532 65 451 q 237 659 158 613 q 413 706 315 706 q 542 681 481 706 q 648 605 604 656 q 706 476 692 554 l 681 476 l 681 683 l 782 683 l 782 58 m 426 867 q 374 888 396 867 q 351 940 351 910 q 374 994 351 972 q 426 1015 396 1015 q 480 994 458 1015 q 501 940 501 972 q 480 888 501 910 q 426 867 458 867 z "},"ż":{"ha":678,"x_min":56,"x_max":625,"o":"m 625 0 l 56 0 l 56 86 l 488 597 l 69 597 l 69 683 l 611 683 l 611 597 l 179 86 l 625 86 l 625 0 m 336 867 q 283 888 306 867 q 261 940 261 910 q 283 994 261 972 q 336 1015 306 1015 q 390 994 368 1015 q 411 940 411 972 q 390 888 411 910 q 336 867 368 867 z "},"ḥ":{"ha":811,"x_min":97,"x_max":724,"o":"m 724 0 l 621 0 l 621 394 q 571 560 621 504 q 436 615 521 615 q 321 583 375 615 q 233 483 267 551 q 200 307 200 415 l 200 0 l 97 0 l 97 1000 l 200 1000 l 200 476 l 182 476 q 239 611 199 561 q 335 683 279 661 q 454 706 392 706 q 651 628 579 706 q 724 406 724 551 l 724 0 m 410 -329 q 357 -308 379 -329 q 335 -256 335 -286 q 357 -202 335 -224 q 410 -181 379 -181 q 463 -202 442 -181 q 485 -256 485 -224 q 463 -308 485 -286 q 410 -329 442 -329 z "},"ḷ":{"ha":297,"x_min":74,"x_max":224,"o":"m 200 0 l 97 0 l 97 1000 l 200 1000 l 200 0 m 149 -329 q 96 -308 118 -329 q 74 -256 74 -286 q 96 -202 74 -224 q 149 -181 118 -181 q 202 -202 181 -181 q 224 -256 224 -224 q 202 -308 224 -286 q 149 -329 181 -329 z "},"̊":{"ha":0,"x_min":-151,"x_max":151,"o":"m 151 933 q 131 858 151 892 q 77 805 111 825 q 0 785 43 785 q -76 805 -42 785 q -131 858 -111 825 q -151 933 -151 892 q -131 1009 -151 975 q -76 1063 -111 1043 q 0 1082 -42 1082 q 77 1063 43 1082 q 131 1009 111 1043 q 151 933 151 975 m 75 933 q 53 988 75 965 q 0 1011 32 1011 q -53 988 -31 1011 q -75 933 -75 965 q -53 877 -75 900 q 0 854 -31 854 q 53 877 32 854 q 75 933 75 900 z "},"˚":{"ha":811,"x_min":247,"x_max":550,"o":"m 550 933 q 530 858 550 892 q 476 805 510 825 q 399 785 442 785 q 322 805 357 785 q 267 858 288 825 q 247 933 247 892 q 267 1009 247 975 q 322 1063 288 1043 q 399 1082 357 1082 q 476 1063 442 1082 q 530 1009 510 1043 q 550 933 550 975 m 474 933 q 452 988 474 965 q 399 1011 431 1011 q 346 988 368 1011 q 324 933 324 965 q 346 877 324 900 q 399 854 368 854 q 452 877 431 854 q 474 933 474 900 z "},"Å":{"ha":1010,"x_min":50,"x_max":960,"o":"m 771 278 l 231 278 l 231 372 l 771 372 l 771 278 m 960 0 l 847 0 l 479 929 l 526 929 l 158 0 l 50 0 l 447 993 l 563 993 l 960 0 m 504 1040 q 426 1060 461 1040 q 371 1115 392 1081 q 350 1192 350 1150 q 371 1269 350 1235 q 426 1323 392 1303 q 504 1343 461 1343 q 582 1323 547 1343 q 638 1269 617 1303 q 658 1192 658 1235 q 638 1115 658 1150 q 582 1060 617 1081 q 504 1040 547 1040 m 504 1111 q 558 1134 536 1111 q 581 1192 581 1157 q 558 1249 581 1226 q 504 1272 536 1272 q 450 1249 472 1272 q 428 1192 428 1226 q 450 1134 428 1157 q 504 1111 472 1111 z "},"Ů":{"ha":1003,"x_min":104,"x_max":899,"o":"m 899 993 l 899 392 q 793 87 899 196 q 501 -22 688 -22 q 210 87 317 -22 q 104 392 104 196 l 104 993 l 211 993 l 211 392 q 288 156 211 238 q 501 75 364 75 q 717 156 640 75 q 793 392 793 238 l 793 993 l 899 993 m 501 1040 q 424 1060 458 1040 q 368 1115 389 1081 q 347 1192 347 1150 q 368 1269 347 1235 q 424 1323 389 1303 q 501 1343 458 1343 q 579 1323 544 1343 q 635 1269 614 1303 q 656 1192 656 1235 q 635 1115 656 1150 q 579 1060 614 1081 q 501 1040 544 1040 m 501 1111 q 556 1134 533 1111 q 578 1192 578 1157 q 556 1249 578 1226 q 501 1272 533 1272 q 447 1249 469 1272 q 425 1192 425 1226 q 447 1134 425 1157 q 501 1111 469 1111 z "},"å":{"ha":764,"x_min":56,"x_max":676,"o":"m 676 0 l 578 0 l 578 133 l 576 172 l 576 428 q 521 565 576 514 q 371 617 465 617 q 248 588 303 617 q 151 508 193 558 l 79 578 q 208 672 136 639 q 371 706 279 706 q 531 672 463 706 q 638 576 600 638 q 676 432 676 515 l 676 0 m 317 -22 q 180 6 239 -22 q 88 83 121 35 q 56 194 56 132 q 96 317 56 267 q 206 394 136 368 q 365 421 276 421 l 590 421 l 590 338 l 379 338 q 224 303 286 338 q 163 197 163 269 q 208 100 163 136 q 329 64 254 64 q 460 92 401 64 q 553 172 518 121 q 593 290 589 224 l 635 267 q 594 118 635 183 q 481 15 553 53 q 317 -22 408 -22 m 522 933 q 502 858 522 892 q 448 805 482 825 q 371 785 414 785 q 294 805 329 785 q 240 858 260 825 q 219 933 219 892 q 240 1009 219 975 q 294 1063 260 1043 q 371 1082 329 1082 q 448 1063 414 1082 q 502 1009 482 1043 q 522 933 522 975 m 446 933 q 424 988 446 965 q 371 1011 403 1011 q 318 988 340 1011 q 296 933 296 965 q 318 877 296 900 q 371 854 340 854 q 424 877 403 854 q 446 933 446 900 z "},"ů":{"ha":808,"x_min":88,"x_max":711,"o":"m 711 0 l 610 0 l 610 133 l 608 172 l 608 683 l 711 683 l 711 0 m 622 296 l 643 267 q 614 118 650 183 q 512 15 578 53 q 360 -22 446 -22 q 162 51 236 -22 q 88 264 88 125 l 88 683 l 190 683 l 190 275 q 240 121 190 174 q 378 68 289 68 q 494 97 440 68 q 582 176 547 125 q 622 296 617 228 m 550 933 q 530 858 550 892 q 476 805 510 825 q 399 785 442 785 q 322 805 357 785 q 267 858 288 825 q 247 933 247 892 q 267 1009 247 975 q 322 1063 288 1043 q 399 1082 357 1082 q 476 1063 442 1082 q 530 1009 510 1043 q 550 933 550 975 m 474 933 q 452 988 474 965 q 399 1011 431 1011 q 346 988 368 1011 q 324 933 324 965 q 346 877 324 900 q 399 854 368 854 q 452 877 431 854 q 474 933 474 900 z "},"̣":{"ha":0,"x_min":-75,"x_max":75,"o":"m 0 -329 q -53 -308 -31 -329 q -75 -256 -75 -286 q -53 -202 -75 -224 q 0 -181 -31 -181 q 53 -202 32 -181 q 75 -256 75 -224 q 53 -308 75 -286 q 0 -329 32 -329 z "},"̉":{"ha":0,"x_min":-140,"x_max":131,"o":"m -11 778 l -43 839 q 22 880 0 858 q 44 925 44 901 q -19 976 44 976 q -94 947 -58 976 l -140 1004 q -8 1054 -82 1054 q 90 1019 50 1054 q 131 931 131 983 q 94 843 131 883 q -11 778 57 803 z "},"Ạ":{"ha":1010,"x_min":50,"x_max":960,"o":"m 771 278 l 231 278 l 231 372 l 771 372 l 771 278 m 960 0 l 847 0 l 479 929 l 526 929 l 158 0 l 50 0 l 447 993 l 563 993 l 960 0 m 504 -308 q 447 -286 469 -308 q 425 -231 425 -264 q 447 -174 425 -196 q 504 -151 469 -151 q 561 -174 539 -151 q 583 -231 583 -196 q 561 -286 583 -264 q 504 -308 539 -308 z "},"Ẹ":{"ha":838,"x_min":118,"x_max":775,"o":"m 775 0 l 118 0 l 118 993 l 775 993 l 775 899 l 225 899 l 225 94 l 775 94 l 775 0 m 749 461 l 211 461 l 211 556 l 749 556 l 749 461 m 446 -308 q 389 -286 411 -308 q 367 -231 367 -264 q 389 -174 367 -196 q 446 -151 411 -151 q 503 -174 481 -151 q 525 -231 525 -196 q 503 -286 525 -264 q 446 -308 481 -308 z "},"Ị":{"ha":343,"x_min":92,"x_max":250,"o":"m 225 0 l 118 0 l 118 993 l 225 993 l 225 0 m 171 -308 q 114 -286 136 -308 q 92 -231 92 -264 q 114 -174 92 -196 q 171 -151 136 -151 q 228 -174 206 -151 q 250 -231 250 -196 q 228 -286 250 -264 q 171 -308 206 -308 z "},"Ọ":{"ha":1183,"x_min":76,"x_max":1107,"o":"m 592 -22 q 387 17 481 -22 q 223 126 293 56 q 115 291 153 196 q 76 497 76 386 q 115 703 76 608 q 223 867 153 797 q 387 976 293 938 q 592 1015 481 1015 q 797 976 703 1015 q 960 867 890 938 q 1069 703 1031 797 q 1107 497 1107 608 q 1069 291 1107 386 q 960 126 1031 196 q 797 17 890 56 q 592 -22 703 -22 m 592 75 q 802 129 711 75 q 944 279 893 183 q 996 497 996 375 q 944 715 996 619 q 802 864 893 810 q 592 918 711 918 q 382 864 474 918 q 239 715 290 810 q 188 497 188 619 q 239 279 188 375 q 382 129 290 183 q 592 75 474 75 m 592 -308 q 535 -286 557 -308 q 513 -231 513 -264 q 535 -174 513 -196 q 592 -151 557 -151 q 649 -174 626 -151 q 671 -231 671 -196 q 649 -286 671 -264 q 592 -308 626 -308 z "},"Ụ":{"ha":1003,"x_min":104,"x_max":899,"o":"m 899 993 l 899 392 q 793 87 899 196 q 501 -22 688 -22 q 210 87 317 -22 q 104 392 104 196 l 104 993 l 211 993 l 211 392 q 288 156 211 238 q 501 75 364 75 q 717 156 640 75 q 793 392 793 238 l 793 993 l 899 993 m 503 -308 q 446 -286 468 -308 q 424 -231 424 -264 q 446 -174 424 -196 q 503 -151 468 -151 q 560 -174 538 -151 q 582 -231 582 -196 q 560 -286 582 -264 q 503 -308 538 -308 z "},"Ỵ":{"ha":899,"x_min":28,"x_max":871,"o":"m 503 0 l 396 0 l 396 438 l 28 993 l 151 993 l 469 497 l 433 497 l 751 993 l 871 993 l 503 435 l 503 0 m 449 -308 q 392 -286 414 -308 q 369 -231 369 -264 q 392 -174 369 -196 q 449 -151 414 -151 q 506 -174 483 -151 q 528 -231 528 -196 q 506 -286 528 -264 q 449 -308 483 -308 z "},"Ả":{"ha":1010,"x_min":50,"x_max":960,"o":"m 771 278 l 231 278 l 231 372 l 771 372 l 771 278 m 960 0 l 847 0 l 479 929 l 526 929 l 158 0 l 50 0 l 447 993 l 563 993 l 960 0 m 493 1063 l 461 1124 q 526 1167 504 1143 q 549 1217 549 1190 q 485 1271 549 1271 q 410 1242 446 1271 l 364 1299 q 496 1349 422 1349 q 594 1312 554 1349 q 635 1222 635 1275 q 598 1131 635 1172 q 493 1063 561 1089 z "},"Ẻ":{"ha":838,"x_min":118,"x_max":775,"o":"m 775 0 l 118 0 l 118 993 l 775 993 l 775 899 l 225 899 l 225 94 l 775 94 l 775 0 m 749 461 l 211 461 l 211 556 l 749 556 l 749 461 m 435 1063 l 403 1124 q 468 1167 446 1143 q 490 1217 490 1190 q 426 1271 490 1271 q 351 1242 388 1271 l 306 1299 q 438 1349 364 1349 q 536 1312 496 1349 q 576 1222 576 1275 q 540 1131 576 1172 q 435 1063 503 1089 z "},"Ỉ":{"ha":343,"x_min":31,"x_max":301,"o":"m 225 0 l 118 0 l 118 993 l 225 993 l 225 0 m 160 1063 l 128 1124 q 193 1167 171 1143 q 215 1217 215 1190 q 151 1271 215 1271 q 76 1242 113 1271 l 31 1299 q 163 1349 89 1349 q 261 1312 221 1349 q 301 1222 301 1275 q 265 1131 301 1172 q 160 1063 228 1089 z "},"Ỏ":{"ha":1183,"x_min":76,"x_max":1107,"o":"m 592 -22 q 387 17 481 -22 q 223 126 293 56 q 115 291 153 196 q 76 497 76 386 q 115 703 76 608 q 223 867 153 797 q 387 976 293 938 q 592 1015 481 1015 q 797 976 703 1015 q 960 867 890 938 q 1069 703 1031 797 q 1107 497 1107 608 q 1069 291 1107 386 q 960 126 1031 196 q 797 17 890 56 q 592 -22 703 -22 m 592 75 q 802 129 711 75 q 944 279 893 183 q 996 497 996 375 q 944 715 996 619 q 802 864 893 810 q 592 918 711 918 q 382 864 474 918 q 239 715 290 810 q 188 497 188 619 q 239 279 188 375 q 382 129 290 183 q 592 75 474 75 m 581 1063 l 549 1124 q 614 1167 592 1143 q 636 1217 636 1190 q 572 1271 636 1271 q 497 1242 533 1271 l 451 1299 q 583 1349 510 1349 q 682 1312 642 1349 q 722 1222 722 1275 q 685 1131 722 1172 q 581 1063 649 1089 z "},"Ủ":{"ha":1003,"x_min":104,"x_max":899,"o":"m 899 993 l 899 392 q 793 87 899 196 q 501 -22 688 -22 q 210 87 317 -22 q 104 392 104 196 l 104 993 l 211 993 l 211 392 q 288 156 211 238 q 501 75 364 75 q 717 156 640 75 q 793 392 793 238 l 793 993 l 899 993 m 490 1063 l 458 1124 q 524 1167 501 1143 q 546 1217 546 1190 q 482 1271 546 1271 q 407 1242 443 1271 l 361 1299 q 493 1349 419 1349 q 592 1312 551 1349 q 632 1222 632 1275 q 595 1131 632 1172 q 490 1063 558 1089 z "},"Ỷ":{"ha":899,"x_min":28,"x_max":871,"o":"m 503 0 l 396 0 l 396 438 l 28 993 l 151 993 l 469 497 l 433 497 l 751 993 l 871 993 l 503 435 l 503 0 m 438 1063 l 406 1124 q 471 1167 449 1143 q 493 1217 493 1190 q 429 1271 493 1271 q 354 1242 390 1271 l 308 1299 q 440 1349 367 1349 q 539 1312 499 1349 q 579 1222 579 1275 q 542 1131 579 1172 q 438 1063 506 1089 z "},"ạ":{"ha":764,"x_min":56,"x_max":676,"o":"m 676 0 l 578 0 l 578 133 l 576 172 l 576 428 q 521 565 576 514 q 371 617 465 617 q 248 588 303 617 q 151 508 193 558 l 79 578 q 208 672 136 639 q 371 706 279 706 q 531 672 463 706 q 638 576 600 638 q 676 432 676 515 l 676 0 m 317 -22 q 180 6 239 -22 q 88 83 121 35 q 56 194 56 132 q 96 317 56 267 q 206 394 136 368 q 365 421 276 421 l 590 421 l 590 338 l 379 338 q 224 303 286 338 q 163 197 163 269 q 208 100 163 136 q 329 64 254 64 q 460 92 401 64 q 553 172 518 121 q 593 290 589 224 l 635 267 q 594 118 635 183 q 481 15 553 53 q 317 -22 408 -22 m 371 -329 q 318 -308 340 -329 q 296 -256 296 -286 q 318 -202 296 -224 q 371 -181 340 -181 q 424 -202 403 -181 q 446 -256 446 -224 q 424 -308 446 -286 q 371 -329 403 -329 z "},"ẹ":{"ha":835,"x_min":65,"x_max":769,"o":"m 675 194 l 747 126 q 617 17 693 57 q 442 -22 540 -22 q 248 25 333 -22 q 114 154 163 72 q 65 342 65 236 q 112 529 65 447 q 240 658 158 611 q 426 706 322 706 q 603 659 526 706 q 725 532 681 613 q 769 346 769 451 l 769 338 l 664 338 l 664 346 q 633 487 664 426 q 548 581 601 547 q 426 615 494 615 q 294 581 351 615 q 206 485 238 546 q 174 343 174 424 q 208 200 174 263 q 303 103 243 138 q 443 68 364 68 q 675 194 588 68 m 769 306 l 151 306 l 151 390 l 747 390 l 769 346 l 769 306 m 426 -329 q 374 -308 396 -329 q 351 -256 351 -286 q 374 -202 351 -224 q 426 -181 396 -181 q 480 -202 458 -181 q 501 -256 501 -224 q 480 -308 501 -286 q 426 -329 458 -329 z "},"ị":{"ha":297,"x_min":74,"x_max":224,"o":"m 200 0 l 97 0 l 97 683 l 200 683 l 200 0 m 149 867 q 96 888 118 867 q 74 940 74 910 q 96 994 74 972 q 149 1015 118 1015 q 202 994 181 1015 q 224 940 224 972 q 202 888 224 910 q 149 867 181 867 m 149 -329 q 96 -308 118 -329 q 74 -256 74 -286 q 96 -202 74 -224 q 149 -181 118 -181 q 202 -202 181 -181 q 224 -256 224 -224 q 202 -308 224 -286 q 149 -329 181 -329 z "},"ọ":{"ha":853,"x_min":65,"x_max":788,"o":"m 426 -22 q 240 25 322 -22 q 112 154 158 72 q 65 342 65 236 q 112 529 65 447 q 240 658 158 611 q 426 706 322 706 q 613 658 532 706 q 741 529 694 611 q 788 342 788 447 q 741 154 788 236 q 613 25 694 72 q 426 -22 532 -22 m 426 68 q 558 103 501 68 q 647 199 615 138 q 679 342 679 261 q 647 484 679 422 q 558 581 615 546 q 426 615 501 615 q 294 581 351 615 q 206 484 238 546 q 174 342 174 422 q 206 199 174 261 q 294 103 238 138 q 426 68 351 68 m 426 -329 q 374 -308 396 -329 q 351 -256 351 -286 q 374 -202 351 -224 q 426 -181 396 -181 q 480 -202 458 -181 q 501 -256 501 -224 q 480 -308 501 -286 q 426 -329 458 -329 z "},"ụ":{"ha":808,"x_min":88,"x_max":711,"o":"m 711 0 l 610 0 l 610 133 l 608 172 l 608 683 l 711 683 l 711 0 m 622 296 l 643 267 q 614 118 650 183 q 512 15 578 53 q 360 -22 446 -22 q 162 51 236 -22 q 88 264 88 125 l 88 683 l 190 683 l 190 275 q 240 121 190 174 q 378 68 289 68 q 494 97 440 68 q 582 176 547 125 q 622 296 617 228 m 399 -329 q 346 -308 368 -329 q 324 -256 324 -286 q 346 -202 324 -224 q 399 -181 368 -181 q 452 -202 431 -181 q 474 -256 474 -224 q 452 -308 474 -286 q 399 -329 431 -329 z "},"ỵ":{"ha":746,"x_min":28,"x_max":718,"o":"m 613 683 l 718 683 l 371 -124 q 299 -231 342 -192 q 168 -269 256 -269 l 100 -269 l 100 -181 l 168 -181 q 241 -158 213 -181 q 288 -93 269 -136 l 324 -3 l 28 683 l 139 683 l 397 54 l 353 54 l 613 683 m 517 -329 q 464 -308 486 -329 q 442 -256 442 -286 q 464 -202 442 -224 q 517 -181 486 -181 q 570 -202 549 -181 q 592 -256 592 -224 q 570 -308 592 -286 q 517 -329 549 -329 z "},"ả":{"ha":764,"x_min":56,"x_max":676,"o":"m 676 0 l 578 0 l 578 133 l 576 172 l 576 428 q 521 565 576 514 q 371 617 465 617 q 248 588 303 617 q 151 508 193 558 l 79 578 q 208 672 136 639 q 371 706 279 706 q 531 672 463 706 q 638 576 600 638 q 676 432 676 515 l 676 0 m 317 -22 q 180 6 239 -22 q 88 83 121 35 q 56 194 56 132 q 96 317 56 267 q 206 394 136 368 q 365 421 276 421 l 590 421 l 590 338 l 379 338 q 224 303 286 338 q 163 197 163 269 q 208 100 163 136 q 329 64 254 64 q 460 92 401 64 q 553 172 518 121 q 593 290 589 224 l 635 267 q 594 118 635 183 q 481 15 553 53 q 317 -22 408 -22 m 360 778 l 328 839 q 393 880 371 858 q 415 925 415 901 q 351 976 415 976 q 276 947 313 976 l 231 1004 q 363 1054 289 1054 q 461 1019 421 1054 q 501 931 501 983 q 465 843 501 883 q 360 778 428 803 z "},"ẻ":{"ha":835,"x_min":65,"x_max":769,"o":"m 675 194 l 747 126 q 617 17 693 57 q 442 -22 540 -22 q 248 25 333 -22 q 114 154 163 72 q 65 342 65 236 q 112 529 65 447 q 240 658 158 611 q 426 706 322 706 q 603 659 526 706 q 725 532 681 613 q 769 346 769 451 l 769 338 l 664 338 l 664 346 q 633 487 664 426 q 548 581 601 547 q 426 615 494 615 q 294 581 351 615 q 206 485 238 546 q 174 343 174 424 q 208 200 174 263 q 303 103 243 138 q 443 68 364 68 q 675 194 588 68 m 769 306 l 151 306 l 151 390 l 747 390 l 769 346 l 769 306 m 415 778 l 383 839 q 449 880 426 858 q 471 925 471 901 q 407 976 471 976 q 332 947 368 976 l 286 1004 q 418 1054 344 1054 q 517 1019 476 1054 q 557 931 557 983 q 520 843 557 883 q 415 778 483 803 z "},"ỉ":{"ha":297,"x_min":8,"x_max":279,"o":"m 200 0 l 97 0 l 97 683 l 200 683 l 200 0 m 138 778 l 106 839 q 171 880 149 858 q 193 925 193 901 q 129 976 193 976 q 54 947 90 976 l 8 1004 q 140 1054 67 1054 q 239 1019 199 1054 q 279 931 279 983 q 242 843 279 883 q 138 778 206 803 z "},"ỏ":{"ha":853,"x_min":65,"x_max":788,"o":"m 426 -22 q 240 25 322 -22 q 112 154 158 72 q 65 342 65 236 q 112 529 65 447 q 240 658 158 611 q 426 706 322 706 q 613 658 532 706 q 741 529 694 611 q 788 342 788 447 q 741 154 788 236 q 613 25 694 72 q 426 -22 532 -22 m 426 68 q 558 103 501 68 q 647 199 615 138 q 679 342 679 261 q 647 484 679 422 q 558 581 615 546 q 426 615 501 615 q 294 581 351 615 q 206 484 238 546 q 174 342 174 422 q 206 199 174 261 q 294 103 238 138 q 426 68 351 68 m 415 778 l 383 839 q 449 880 426 858 q 471 925 471 901 q 407 976 471 976 q 332 947 368 976 l 286 1004 q 418 1054 344 1054 q 517 1019 476 1054 q 557 931 557 983 q 520 843 557 883 q 415 778 483 803 z "},"ủ":{"ha":808,"x_min":88,"x_max":711,"o":"m 711 0 l 610 0 l 610 133 l 608 172 l 608 683 l 711 683 l 711 0 m 622 296 l 643 267 q 614 118 650 183 q 512 15 578 53 q 360 -22 446 -22 q 162 51 236 -22 q 88 264 88 125 l 88 683 l 190 683 l 190 275 q 240 121 190 174 q 378 68 289 68 q 494 97 440 68 q 582 176 547 125 q 622 296 617 228 m 388 778 l 356 839 q 421 880 399 858 q 443 925 443 901 q 379 976 443 976 q 304 947 340 976 l 258 1004 q 390 1054 317 1054 q 489 1019 449 1054 q 529 931 529 983 q 492 843 529 883 q 388 778 456 803 z "},"ỷ":{"ha":746,"x_min":28,"x_max":718,"o":"m 613 683 l 718 683 l 371 -124 q 299 -231 342 -192 q 168 -269 256 -269 l 100 -269 l 100 -181 l 168 -181 q 241 -158 213 -181 q 288 -93 269 -136 l 324 -3 l 28 683 l 139 683 l 397 54 l 353 54 l 613 683 m 363 778 l 331 839 q 396 880 374 858 q 418 925 418 901 q 354 976 418 976 q 279 947 315 976 l 233 1004 q 365 1054 292 1054 q 464 1019 424 1054 q 504 931 504 983 q 467 843 504 883 q 363 778 431 803 z "},"Ấ":{"ha":1010,"x_min":50,"x_max":967,"o":"m 771 278 l 231 278 l 231 372 l 771 372 l 771 278 m 960 0 l 847 0 l 479 929 l 526 929 l 158 0 l 50 0 l 447 993 l 563 993 l 960 0 m 289 1110 l 458 1296 l 550 1296 l 719 1110 l 617 1110 l 457 1260 l 547 1260 l 388 1110 l 289 1110 m 686 1215 l 843 1419 l 967 1419 l 772 1215 l 686 1215 z "},"Ế":{"ha":838,"x_min":118,"x_max":908,"o":"m 775 0 l 118 0 l 118 993 l 775 993 l 775 899 l 225 899 l 225 94 l 775 94 l 775 0 m 749 461 l 211 461 l 211 556 l 749 556 l 749 461 m 231 1110 l 400 1296 l 492 1296 l 661 1110 l 558 1110 l 399 1260 l 489 1260 l 329 1110 l 231 1110 m 628 1215 l 785 1419 l 908 1419 l 714 1215 l 628 1215 z "},"Ố":{"ha":1183,"x_min":76,"x_max":1107,"o":"m 592 -22 q 387 17 481 -22 q 223 126 293 56 q 115 291 153 196 q 76 497 76 386 q 115 703 76 608 q 223 867 153 797 q 387 976 293 938 q 592 1015 481 1015 q 797 976 703 1015 q 960 867 890 938 q 1069 703 1031 797 q 1107 497 1107 608 q 1069 291 1107 386 q 960 126 1031 196 q 797 17 890 56 q 592 -22 703 -22 m 592 75 q 802 129 711 75 q 944 279 893 183 q 996 497 996 375 q 944 715 996 619 q 802 864 893 810 q 592 918 711 918 q 382 864 474 918 q 239 715 290 810 q 188 497 188 619 q 239 279 188 375 q 382 129 290 183 q 592 75 474 75 m 376 1110 l 546 1296 l 638 1296 l 807 1110 l 704 1110 l 544 1260 l 635 1260 l 475 1110 l 376 1110 m 774 1215 l 931 1419 l 1054 1419 l 860 1215 l 774 1215 z "},"Ầ":{"ha":1010,"x_min":50,"x_max":960,"o":"m 771 278 l 231 278 l 231 372 l 771 372 l 771 278 m 960 0 l 847 0 l 479 929 l 526 929 l 158 0 l 50 0 l 447 993 l 563 993 l 960 0 m 719 1110 l 617 1110 l 457 1260 l 547 1260 l 388 1110 l 289 1110 l 458 1296 l 550 1296 l 719 1110 m 747 1215 l 561 1419 l 683 1419 l 832 1215 l 747 1215 z "},"Ề":{"ha":838,"x_min":118,"x_max":775,"o":"m 775 0 l 118 0 l 118 993 l 775 993 l 775 899 l 225 899 l 225 94 l 775 94 l 775 0 m 749 461 l 211 461 l 211 556 l 749 556 l 749 461 m 661 1110 l 558 1110 l 399 1260 l 489 1260 l 329 1110 l 231 1110 l 400 1296 l 492 1296 l 661 1110 m 689 1215 l 503 1419 l 625 1419 l 774 1215 l 689 1215 z "},"Ồ":{"ha":1183,"x_min":76,"x_max":1107,"o":"m 592 -22 q 387 17 481 -22 q 223 126 293 56 q 115 291 153 196 q 76 497 76 386 q 115 703 76 608 q 223 867 153 797 q 387 976 293 938 q 592 1015 481 1015 q 797 976 703 1015 q 960 867 890 938 q 1069 703 1031 797 q 1107 497 1107 608 q 1069 291 1107 386 q 960 126 1031 196 q 797 17 890 56 q 592 -22 703 -22 m 592 75 q 802 129 711 75 q 944 279 893 183 q 996 497 996 375 q 944 715 996 619 q 802 864 893 810 q 592 918 711 918 q 382 864 474 918 q 239 715 290 810 q 188 497 188 619 q 239 279 188 375 q 382 129 290 183 q 592 75 474 75 m 807 1110 l 704 1110 l 544 1260 l 635 1260 l 475 1110 l 376 1110 l 546 1296 l 638 1296 l 807 1110 m 835 1215 l 649 1419 l 771 1419 l 919 1215 l 835 1215 z "},"Ẩ":{"ha":1010,"x_min":50,"x_max":960,"o":"m 771 278 l 231 278 l 231 372 l 771 372 l 771 278 m 960 0 l 847 0 l 479 929 l 526 929 l 158 0 l 50 0 l 447 993 l 563 993 l 960 0 m 289 1110 l 458 1296 l 550 1296 l 719 1110 l 617 1110 l 457 1260 l 547 1260 l 388 1110 l 289 1110 m 721 1190 l 690 1249 q 775 1339 775 1290 q 713 1390 775 1390 q 642 1363 676 1390 l 597 1417 q 724 1465 654 1465 q 819 1431 781 1465 q 857 1344 857 1396 q 822 1256 857 1296 q 721 1190 786 1215 z "},"Ể":{"ha":838,"x_min":118,"x_max":799,"o":"m 775 0 l 118 0 l 118 993 l 775 993 l 775 899 l 225 899 l 225 94 l 775 94 l 775 0 m 749 461 l 211 461 l 211 556 l 749 556 l 749 461 m 231 1110 l 400 1296 l 492 1296 l 661 1110 l 558 1110 l 399 1260 l 489 1260 l 329 1110 l 231 1110 m 663 1190 l 632 1249 q 717 1339 717 1290 q 654 1390 717 1390 q 583 1363 618 1390 l 539 1417 q 665 1465 596 1465 q 760 1431 722 1465 q 799 1344 799 1396 q 763 1256 799 1296 q 663 1190 728 1215 z "},"Ổ":{"ha":1183,"x_min":76,"x_max":1107,"o":"m 592 -22 q 387 17 481 -22 q 223 126 293 56 q 115 291 153 196 q 76 497 76 386 q 115 703 76 608 q 223 867 153 797 q 387 976 293 938 q 592 1015 481 1015 q 797 976 703 1015 q 960 867 890 938 q 1069 703 1031 797 q 1107 497 1107 608 q 1069 291 1107 386 q 960 126 1031 196 q 797 17 890 56 q 592 -22 703 -22 m 592 75 q 802 129 711 75 q 944 279 893 183 q 996 497 996 375 q 944 715 996 619 q 802 864 893 810 q 592 918 711 918 q 382 864 474 918 q 239 715 290 810 q 188 497 188 619 q 239 279 188 375 q 382 129 290 183 q 592 75 474 75 m 376 1110 l 546 1296 l 638 1296 l 807 1110 l 704 1110 l 544 1260 l 635 1260 l 475 1110 l 376 1110 m 808 1190 l 778 1249 q 863 1339 863 1290 q 800 1390 863 1390 q 729 1363 764 1390 l 685 1417 q 811 1465 742 1465 q 906 1431 868 1465 q 944 1344 944 1396 q 909 1256 944 1296 q 808 1190 874 1215 z "},"Ẫ":{"ha":1010,"x_min":50,"x_max":960,"o":"m 771 278 l 231 278 l 231 372 l 771 372 l 771 278 m 960 0 l 847 0 l 479 929 l 526 929 l 158 0 l 50 0 l 447 993 l 563 993 l 960 0 m 283 1110 l 453 1296 l 544 1296 l 714 1110 l 611 1110 l 451 1260 l 542 1260 l 382 1110 l 283 1110 m 344 1332 l 268 1364 q 314 1453 278 1419 q 399 1488 350 1488 q 450 1478 425 1488 q 518 1443 475 1469 q 570 1415 556 1421 q 599 1408 585 1408 q 640 1428 622 1408 q 663 1482 657 1447 l 739 1450 q 693 1360 729 1394 q 608 1326 657 1326 q 556 1335 582 1326 q 489 1368 529 1344 q 442 1396 460 1386 q 408 1406 425 1406 q 367 1386 385 1406 q 344 1332 350 1367 z "},"Ễ":{"ha":838,"x_min":118,"x_max":775,"o":"m 775 0 l 118 0 l 118 993 l 775 993 l 775 899 l 225 899 l 225 94 l 775 94 l 775 0 m 749 461 l 211 461 l 211 556 l 749 556 l 749 461 m 225 1110 l 394 1296 l 486 1296 l 656 1110 l 553 1110 l 393 1260 l 483 1260 l 324 1110 l 225 1110 m 286 1332 l 210 1364 q 256 1453 219 1419 q 340 1488 292 1488 q 392 1478 367 1488 q 460 1443 417 1469 q 512 1415 497 1421 q 540 1408 526 1408 q 581 1428 564 1408 q 604 1482 599 1447 l 681 1450 q 635 1360 671 1394 q 550 1326 599 1326 q 497 1335 524 1326 q 431 1368 471 1344 q 384 1396 401 1386 q 350 1406 367 1406 q 309 1386 326 1406 q 286 1332 292 1367 z "},"Ỗ":{"ha":1183,"x_min":76,"x_max":1107,"o":"m 592 -22 q 387 17 481 -22 q 223 126 293 56 q 115 291 153 196 q 76 497 76 386 q 115 703 76 608 q 223 867 153 797 q 387 976 293 938 q 592 1015 481 1015 q 797 976 703 1015 q 960 867 890 938 q 1069 703 1031 797 q 1107 497 1107 608 q 1069 291 1107 386 q 960 126 1031 196 q 797 17 890 56 q 592 -22 703 -22 m 592 75 q 802 129 711 75 q 944 279 893 183 q 996 497 996 375 q 944 715 996 619 q 802 864 893 810 q 592 918 711 918 q 382 864 474 918 q 239 715 290 810 q 188 497 188 619 q 239 279 188 375 q 382 129 290 183 q 592 75 474 75 m 371 1110 l 540 1296 l 632 1296 l 801 1110 l 699 1110 l 539 1260 l 629 1260 l 469 1110 l 371 1110 m 432 1332 l 356 1364 q 401 1453 365 1419 q 486 1488 438 1488 q 538 1478 513 1488 q 606 1443 563 1469 q 658 1415 643 1421 q 686 1408 672 1408 q 727 1428 710 1408 q 750 1482 744 1447 l 826 1450 q 781 1360 817 1394 q 696 1326 744 1326 q 643 1335 669 1326 q 576 1368 617 1344 q 530 1396 547 1386 q 496 1406 513 1406 q 455 1386 472 1406 q 432 1332 438 1367 z "},"Ậ":{"ha":1010,"x_min":50,"x_max":960,"o":"m 771 278 l 231 278 l 231 372 l 771 372 l 771 278 m 960 0 l 847 0 l 479 929 l 526 929 l 158 0 l 50 0 l 447 993 l 563 993 l 960 0 m 735 1110 l 629 1110 l 449 1288 l 557 1288 l 378 1110 l 274 1110 l 458 1310 l 550 1310 l 735 1110 m 504 -308 q 447 -286 469 -308 q 425 -231 425 -264 q 447 -174 425 -196 q 504 -151 469 -151 q 561 -174 539 -151 q 583 -231 583 -196 q 561 -286 583 -264 q 504 -308 539 -308 z "},"Ệ":{"ha":838,"x_min":118,"x_max":775,"o":"m 775 0 l 118 0 l 118 993 l 775 993 l 775 899 l 225 899 l 225 94 l 775 94 l 775 0 m 749 461 l 211 461 l 211 556 l 749 556 l 749 461 m 676 1110 l 571 1110 l 390 1288 l 499 1288 l 319 1110 l 215 1110 l 400 1310 l 492 1310 l 676 1110 m 446 -308 q 389 -286 411 -308 q 367 -231 367 -264 q 389 -174 367 -196 q 446 -151 411 -151 q 503 -174 481 -151 q 525 -231 525 -196 q 503 -286 525 -264 q 446 -308 481 -308 z "},"Ộ":{"ha":1183,"x_min":76,"x_max":1107,"o":"m 592 -22 q 387 17 481 -22 q 223 126 293 56 q 115 291 153 196 q 76 497 76 386 q 115 703 76 608 q 223 867 153 797 q 387 976 293 938 q 592 1015 481 1015 q 797 976 703 1015 q 960 867 890 938 q 1069 703 1031 797 q 1107 497 1107 608 q 1069 291 1107 386 q 960 126 1031 196 q 797 17 890 56 q 592 -22 703 -22 m 592 75 q 802 129 711 75 q 944 279 893 183 q 996 497 996 375 q 944 715 996 619 q 802 864 893 810 q 592 918 711 918 q 382 864 474 918 q 239 715 290 810 q 188 497 188 619 q 239 279 188 375 q 382 129 290 183 q 592 75 474 75 m 822 1110 l 717 1110 l 536 1288 l 644 1288 l 465 1110 l 361 1110 l 546 1310 l 638 1310 l 822 1110 m 592 -308 q 535 -286 557 -308 q 513 -231 513 -264 q 535 -174 513 -196 q 592 -151 557 -151 q 649 -174 626 -151 q 671 -231 671 -196 q 649 -286 671 -264 q 592 -308 626 -308 z "},"ấ":{"ha":764,"x_min":56,"x_max":813,"o":"m 676 0 l 578 0 l 578 133 l 576 172 l 576 428 q 521 565 576 514 q 371 617 465 617 q 248 588 303 617 q 151 508 193 558 l 79 578 q 208 672 136 639 q 371 706 279 706 q 531 672 463 706 q 638 576 600 638 q 676 432 676 515 l 676 0 m 317 -22 q 180 6 239 -22 q 88 83 121 35 q 56 194 56 132 q 96 317 56 267 q 206 394 136 368 q 365 421 276 421 l 590 421 l 590 338 l 379 338 q 224 303 286 338 q 163 197 163 269 q 208 100 163 136 q 329 64 254 64 q 460 92 401 64 q 553 172 518 121 q 593 290 589 224 l 635 267 q 594 118 635 183 q 481 15 553 53 q 317 -22 408 -22 m 156 815 l 325 1007 l 417 1007 l 586 815 l 483 815 l 324 971 l 414 971 l 254 815 l 156 815 m 540 940 l 690 1136 l 813 1136 l 625 940 l 540 940 z "},"ế":{"ha":835,"x_min":65,"x_max":868,"o":"m 675 194 l 747 126 q 617 17 693 57 q 442 -22 540 -22 q 248 25 333 -22 q 114 154 163 72 q 65 342 65 236 q 112 529 65 447 q 240 658 158 611 q 426 706 322 706 q 603 659 526 706 q 725 532 681 613 q 769 346 769 451 l 769 338 l 664 338 l 664 346 q 633 487 664 426 q 548 581 601 547 q 426 615 494 615 q 294 581 351 615 q 206 485 238 546 q 174 343 174 424 q 208 200 174 263 q 303 103 243 138 q 443 68 364 68 q 675 194 588 68 m 769 306 l 151 306 l 151 390 l 747 390 l 769 346 l 769 306 m 211 815 l 381 1007 l 472 1007 l 642 815 l 539 815 l 379 971 l 469 971 l 310 815 l 211 815 m 596 940 l 746 1136 l 868 1136 l 681 940 l 596 940 z "},"ố":{"ha":853,"x_min":65,"x_max":868,"o":"m 426 -22 q 240 25 322 -22 q 112 154 158 72 q 65 342 65 236 q 112 529 65 447 q 240 658 158 611 q 426 706 322 706 q 613 658 532 706 q 741 529 694 611 q 788 342 788 447 q 741 154 788 236 q 613 25 694 72 q 426 -22 532 -22 m 426 68 q 558 103 501 68 q 647 199 615 138 q 679 342 679 261 q 647 484 679 422 q 558 581 615 546 q 426 615 501 615 q 294 581 351 615 q 206 484 238 546 q 174 342 174 422 q 206 199 174 261 q 294 103 238 138 q 426 68 351 68 m 211 815 l 381 1007 l 472 1007 l 642 815 l 539 815 l 379 971 l 469 971 l 310 815 l 211 815 m 596 940 l 746 1136 l 868 1136 l 681 940 l 596 940 z "},"ầ":{"ha":764,"x_min":56,"x_max":676,"o":"m 676 0 l 578 0 l 578 133 l 576 172 l 576 428 q 521 565 576 514 q 371 617 465 617 q 248 588 303 617 q 151 508 193 558 l 79 578 q 208 672 136 639 q 371 706 279 706 q 531 672 463 706 q 638 576 600 638 q 676 432 676 515 l 676 0 m 317 -22 q 180 6 239 -22 q 88 83 121 35 q 56 194 56 132 q 96 317 56 267 q 206 394 136 368 q 365 421 276 421 l 590 421 l 590 338 l 379 338 q 224 303 286 338 q 163 197 163 269 q 208 100 163 136 q 329 64 254 64 q 460 92 401 64 q 553 172 518 121 q 593 290 589 224 l 635 267 q 594 118 635 183 q 481 15 553 53 q 317 -22 408 -22 m 156 815 l 325 1007 l 417 1007 l 586 815 l 483 815 l 324 971 l 414 971 l 254 815 l 156 815 m 581 940 l 393 1136 l 518 1136 l 668 940 l 581 940 z "},"ề":{"ha":835,"x_min":65,"x_max":769,"o":"m 675 194 l 747 126 q 617 17 693 57 q 442 -22 540 -22 q 248 25 333 -22 q 114 154 163 72 q 65 342 65 236 q 112 529 65 447 q 240 658 158 611 q 426 706 322 706 q 603 659 526 706 q 725 532 681 613 q 769 346 769 451 l 769 338 l 664 338 l 664 346 q 633 487 664 426 q 548 581 601 547 q 426 615 494 615 q 294 581 351 615 q 206 485 238 546 q 174 343 174 424 q 208 200 174 263 q 303 103 243 138 q 443 68 364 68 q 675 194 588 68 m 769 306 l 151 306 l 151 390 l 747 390 l 769 346 l 769 306 m 211 815 l 381 1007 l 472 1007 l 642 815 l 539 815 l 379 971 l 469 971 l 310 815 l 211 815 m 636 940 l 449 1136 l 574 1136 l 724 940 l 636 940 z "},"ồ":{"ha":853,"x_min":65,"x_max":788,"o":"m 426 -22 q 240 25 322 -22 q 112 154 158 72 q 65 342 65 236 q 112 529 65 447 q 240 658 158 611 q 426 706 322 706 q 613 658 532 706 q 741 529 694 611 q 788 342 788 447 q 741 154 788 236 q 613 25 694 72 q 426 -22 532 -22 m 426 68 q 558 103 501 68 q 647 199 615 138 q 679 342 679 261 q 647 484 679 422 q 558 581 615 546 q 426 615 501 615 q 294 581 351 615 q 206 484 238 546 q 174 342 174 422 q 206 199 174 261 q 294 103 238 138 q 426 68 351 68 m 211 815 l 381 1007 l 472 1007 l 642 815 l 539 815 l 379 971 l 469 971 l 310 815 l 211 815 m 636 940 l 449 1136 l 574 1136 l 724 940 l 636 940 z "},"ẩ":{"ha":764,"x_min":56,"x_max":717,"o":"m 676 0 l 578 0 l 578 133 l 576 172 l 576 428 q 521 565 576 514 q 371 617 465 617 q 248 588 303 617 q 151 508 193 558 l 79 578 q 208 672 136 639 q 371 706 279 706 q 531 672 463 706 q 638 576 600 638 q 676 432 676 515 l 676 0 m 317 -22 q 180 6 239 -22 q 88 83 121 35 q 56 194 56 132 q 96 317 56 267 q 206 394 136 368 q 365 421 276 421 l 590 421 l 590 338 l 379 338 q 224 303 286 338 q 163 197 163 269 q 208 100 163 136 q 329 64 254 64 q 460 92 401 64 q 553 172 518 121 q 593 290 589 224 l 635 267 q 594 118 635 183 q 481 15 553 53 q 317 -22 408 -22 m 156 815 l 325 1007 l 417 1007 l 586 815 l 483 815 l 324 971 l 414 971 l 254 815 l 156 815 m 582 901 l 551 960 q 613 999 592 978 q 635 1042 635 1019 q 575 1090 635 1090 q 503 1063 538 1090 l 460 1117 q 585 1164 513 1164 q 678 1130 640 1164 q 717 1046 717 1096 q 682 963 717 1001 q 582 901 647 925 z "},"ể":{"ha":835,"x_min":65,"x_max":772,"o":"m 675 194 l 747 126 q 617 17 693 57 q 442 -22 540 -22 q 248 25 333 -22 q 114 154 163 72 q 65 342 65 236 q 112 529 65 447 q 240 658 158 611 q 426 706 322 706 q 603 659 526 706 q 725 532 681 613 q 769 346 769 451 l 769 338 l 664 338 l 664 346 q 633 487 664 426 q 548 581 601 547 q 426 615 494 615 q 294 581 351 615 q 206 485 238 546 q 174 343 174 424 q 208 200 174 263 q 303 103 243 138 q 443 68 364 68 q 675 194 588 68 m 769 306 l 151 306 l 151 390 l 747 390 l 769 346 l 769 306 m 211 815 l 381 1007 l 472 1007 l 642 815 l 539 815 l 379 971 l 469 971 l 310 815 l 211 815 m 638 901 l 607 960 q 669 999 647 978 q 690 1042 690 1019 q 631 1090 690 1090 q 558 1063 593 1090 l 515 1117 q 640 1164 568 1164 q 734 1130 696 1164 q 772 1046 772 1096 q 738 963 772 1001 q 638 901 703 925 z "},"ổ":{"ha":853,"x_min":65,"x_max":788,"o":"m 426 -22 q 240 25 322 -22 q 112 154 158 72 q 65 342 65 236 q 112 529 65 447 q 240 658 158 611 q 426 706 322 706 q 613 658 532 706 q 741 529 694 611 q 788 342 788 447 q 741 154 788 236 q 613 25 694 72 q 426 -22 532 -22 m 426 68 q 558 103 501 68 q 647 199 615 138 q 679 342 679 261 q 647 484 679 422 q 558 581 615 546 q 426 615 501 615 q 294 581 351 615 q 206 484 238 546 q 174 342 174 422 q 206 199 174 261 q 294 103 238 138 q 426 68 351 68 m 211 815 l 381 1007 l 472 1007 l 642 815 l 539 815 l 379 971 l 469 971 l 310 815 l 211 815 m 638 901 l 607 960 q 669 999 647 978 q 690 1042 690 1019 q 631 1090 690 1090 q 558 1063 593 1090 l 515 1117 q 640 1164 568 1164 q 734 1130 696 1164 q 772 1046 772 1096 q 738 963 772 1001 q 638 901 703 925 z "},"ẫ":{"ha":764,"x_min":56,"x_max":676,"o":"m 676 0 l 578 0 l 578 133 l 576 172 l 576 428 q 521 565 576 514 q 371 617 465 617 q 248 588 303 617 q 151 508 193 558 l 79 578 q 208 672 136 639 q 371 706 279 706 q 531 672 463 706 q 638 576 600 638 q 676 432 676 515 l 676 0 m 317 -22 q 180 6 239 -22 q 88 83 121 35 q 56 194 56 132 q 96 317 56 267 q 206 394 136 368 q 365 421 276 421 l 590 421 l 590 338 l 379 338 q 224 303 286 338 q 163 197 163 269 q 208 100 163 136 q 329 64 254 64 q 460 92 401 64 q 553 172 518 121 q 593 290 589 224 l 635 267 q 594 118 635 183 q 481 15 553 53 q 317 -22 408 -22 m 156 815 l 325 1007 l 417 1007 l 586 815 l 483 815 l 324 971 l 414 971 l 254 815 l 156 815 m 235 1049 l 169 1076 q 208 1166 179 1135 q 282 1197 238 1197 q 337 1187 313 1197 q 388 1156 361 1176 q 428 1127 414 1135 q 453 1119 442 1119 q 508 1194 497 1119 l 574 1167 q 535 1077 564 1108 q 461 1046 506 1046 q 408 1056 431 1046 q 356 1088 385 1065 q 315 1116 329 1108 q 290 1124 301 1124 q 254 1104 268 1124 q 235 1049 240 1085 z "},"ễ":{"ha":835,"x_min":65,"x_max":769,"o":"m 675 194 l 747 126 q 617 17 693 57 q 442 -22 540 -22 q 248 25 333 -22 q 114 154 163 72 q 65 342 65 236 q 112 529 65 447 q 240 658 158 611 q 426 706 322 706 q 603 659 526 706 q 725 532 681 613 q 769 346 769 451 l 769 338 l 664 338 l 664 346 q 633 487 664 426 q 548 581 601 547 q 426 615 494 615 q 294 581 351 615 q 206 485 238 546 q 174 343 174 424 q 208 200 174 263 q 303 103 243 138 q 443 68 364 68 q 675 194 588 68 m 769 306 l 151 306 l 151 390 l 747 390 l 769 346 l 769 306 m 211 815 l 381 1007 l 472 1007 l 642 815 l 539 815 l 379 971 l 469 971 l 310 815 l 211 815 m 290 1049 l 225 1076 q 264 1166 235 1135 q 338 1197 293 1197 q 392 1187 368 1197 q 443 1156 417 1176 q 483 1127 469 1135 q 508 1119 497 1119 q 564 1194 553 1119 l 629 1167 q 590 1077 619 1108 q 517 1046 561 1046 q 463 1056 486 1046 q 411 1088 440 1065 q 371 1116 385 1108 q 346 1124 357 1124 q 310 1104 324 1124 q 290 1049 296 1085 z "},"ỗ":{"ha":853,"x_min":65,"x_max":788,"o":"m 426 -22 q 240 25 322 -22 q 112 154 158 72 q 65 342 65 236 q 112 529 65 447 q 240 658 158 611 q 426 706 322 706 q 613 658 532 706 q 741 529 694 611 q 788 342 788 447 q 741 154 788 236 q 613 25 694 72 q 426 -22 532 -22 m 426 68 q 558 103 501 68 q 647 199 615 138 q 679 342 679 261 q 647 484 679 422 q 558 581 615 546 q 426 615 501 615 q 294 581 351 615 q 206 484 238 546 q 174 342 174 422 q 206 199 174 261 q 294 103 238 138 q 426 68 351 68 m 211 815 l 381 1007 l 472 1007 l 642 815 l 539 815 l 379 971 l 469 971 l 310 815 l 211 815 m 290 1049 l 225 1076 q 264 1166 235 1135 q 338 1197 293 1197 q 392 1187 368 1197 q 443 1156 417 1176 q 483 1127 469 1135 q 508 1119 497 1119 q 564 1194 553 1119 l 629 1167 q 590 1077 619 1108 q 517 1046 561 1046 q 463 1056 486 1046 q 411 1088 440 1065 q 371 1116 385 1108 q 346 1124 357 1124 q 310 1104 324 1124 q 290 1049 296 1085 z "},"ậ":{"ha":764,"x_min":56,"x_max":676,"o":"m 676 0 l 578 0 l 578 133 l 576 172 l 576 428 q 521 565 576 514 q 371 617 465 617 q 248 588 303 617 q 151 508 193 558 l 79 578 q 208 672 136 639 q 371 706 279 706 q 531 672 463 706 q 638 576 600 638 q 676 432 676 515 l 676 0 m 317 -22 q 180 6 239 -22 q 88 83 121 35 q 56 194 56 132 q 96 317 56 267 q 206 394 136 368 q 365 421 276 421 l 590 421 l 590 338 l 379 338 q 224 303 286 338 q 163 197 163 269 q 208 100 163 136 q 329 64 254 64 q 460 92 401 64 q 553 172 518 121 q 593 290 589 224 l 635 267 q 594 118 635 183 q 481 15 553 53 q 317 -22 408 -22 m 589 815 l 492 815 l 324 1035 l 414 1035 l 246 815 l 153 815 l 325 1057 l 417 1057 l 589 815 m 371 -329 q 318 -308 340 -329 q 296 -256 296 -286 q 318 -202 296 -224 q 371 -181 340 -181 q 424 -202 403 -181 q 446 -256 446 -224 q 424 -308 446 -286 q 371 -329 403 -329 z "},"ệ":{"ha":835,"x_min":65,"x_max":769,"o":"m 675 194 l 747 126 q 617 17 693 57 q 442 -22 540 -22 q 248 25 333 -22 q 114 154 163 72 q 65 342 65 236 q 112 529 65 447 q 240 658 158 611 q 426 706 322 706 q 603 659 526 706 q 725 532 681 613 q 769 346 769 451 l 769 338 l 664 338 l 664 346 q 633 487 664 426 q 548 581 601 547 q 426 615 494 615 q 294 581 351 615 q 206 485 238 546 q 174 343 174 424 q 208 200 174 263 q 303 103 243 138 q 443 68 364 68 q 675 194 588 68 m 769 306 l 151 306 l 151 390 l 747 390 l 769 346 l 769 306 m 644 815 l 547 815 l 379 1035 l 469 1035 l 301 815 l 208 815 l 381 1057 l 472 1057 l 644 815 m 426 -329 q 374 -308 396 -329 q 351 -256 351 -286 q 374 -202 351 -224 q 426 -181 396 -181 q 480 -202 458 -181 q 501 -256 501 -224 q 480 -308 501 -286 q 426 -329 458 -329 z "},"ộ":{"ha":853,"x_min":65,"x_max":788,"o":"m 426 -22 q 240 25 322 -22 q 112 154 158 72 q 65 342 65 236 q 112 529 65 447 q 240 658 158 611 q 426 706 322 706 q 613 658 532 706 q 741 529 694 611 q 788 342 788 447 q 741 154 788 236 q 613 25 694 72 q 426 -22 532 -22 m 426 68 q 558 103 501 68 q 647 199 615 138 q 679 342 679 261 q 647 484 679 422 q 558 581 615 546 q 426 615 501 615 q 294 581 351 615 q 206 484 238 546 q 174 342 174 422 q 206 199 174 261 q 294 103 238 138 q 426 68 351 68 m 644 815 l 547 815 l 379 1035 l 469 1035 l 301 815 l 208 815 l 381 1057 l 472 1057 l 644 815 m 426 -329 q 374 -308 396 -329 q 351 -256 351 -286 q 374 -202 351 -224 q 426 -181 396 -181 q 480 -202 458 -181 q 501 -256 501 -224 q 480 -308 501 -286 q 426 -329 458 -329 z "},"Ắ":{"ha":1010,"x_min":50,"x_max":960,"o":"m 771 278 l 231 278 l 231 372 l 771 372 l 771 278 m 960 0 l 847 0 l 479 929 l 526 929 l 158 0 l 50 0 l 447 993 l 563 993 l 960 0 m 504 1104 q 351 1158 413 1104 q 281 1297 289 1211 l 369 1297 q 413 1217 376 1246 q 504 1188 450 1188 q 595 1217 558 1188 q 639 1297 632 1246 l 728 1297 q 658 1158 719 1211 q 504 1104 596 1104 m 451 1290 l 608 1494 l 732 1494 l 538 1290 l 451 1290 z "},"Ằ":{"ha":1010,"x_min":50,"x_max":960,"o":"m 771 278 l 231 278 l 231 372 l 771 372 l 771 278 m 960 0 l 847 0 l 479 929 l 526 929 l 158 0 l 50 0 l 447 993 l 563 993 l 960 0 m 504 1104 q 351 1158 413 1104 q 281 1297 289 1211 l 369 1297 q 413 1217 376 1246 q 504 1188 450 1188 q 595 1217 558 1188 q 639 1297 632 1246 l 728 1297 q 658 1158 719 1211 q 504 1104 596 1104 m 483 1290 l 297 1494 l 419 1494 l 568 1290 l 483 1290 z "},"Ẳ":{"ha":1010,"x_min":50,"x_max":960,"o":"m 771 278 l 231 278 l 231 372 l 771 372 l 771 278 m 960 0 l 847 0 l 479 929 l 526 929 l 158 0 l 50 0 l 447 993 l 563 993 l 960 0 m 504 1104 q 351 1158 413 1104 q 281 1297 289 1211 l 369 1297 q 413 1217 376 1246 q 504 1188 450 1188 q 595 1217 558 1188 q 639 1297 632 1246 l 728 1297 q 658 1158 719 1211 q 504 1104 596 1104 m 486 1265 l 456 1324 q 540 1414 540 1365 q 478 1465 540 1465 q 407 1438 442 1465 l 363 1492 q 489 1540 419 1540 q 584 1506 546 1540 q 622 1419 622 1471 q 587 1331 622 1371 q 486 1265 551 1290 z "},"Ẵ":{"ha":1010,"x_min":50,"x_max":960,"o":"m 771 278 l 231 278 l 231 372 l 771 372 l 771 278 m 960 0 l 847 0 l 479 929 l 526 929 l 158 0 l 50 0 l 447 993 l 563 993 l 960 0 m 504 1104 q 351 1158 413 1104 q 281 1297 289 1211 l 369 1297 q 413 1217 376 1246 q 504 1188 450 1188 q 595 1217 558 1188 q 639 1297 632 1246 l 728 1297 q 658 1158 719 1211 q 504 1104 596 1104 m 346 1342 l 269 1374 q 315 1463 279 1429 q 400 1497 351 1497 q 451 1488 426 1497 q 519 1453 476 1478 q 572 1424 557 1431 q 600 1418 586 1418 q 641 1438 624 1418 q 664 1492 658 1457 l 740 1460 q 694 1370 731 1404 q 610 1336 658 1336 q 557 1345 583 1336 q 490 1378 531 1354 q 444 1406 461 1396 q 410 1415 426 1415 q 369 1396 386 1415 q 346 1342 351 1376 z "},"Ặ":{"ha":1010,"x_min":50,"x_max":960,"o":"m 771 278 l 231 278 l 231 372 l 771 372 l 771 278 m 960 0 l 847 0 l 479 929 l 526 929 l 158 0 l 50 0 l 447 993 l 563 993 l 960 0 m 504 1104 q 351 1158 413 1104 q 281 1297 289 1211 l 369 1297 q 413 1217 376 1246 q 504 1188 450 1188 q 595 1217 558 1188 q 639 1297 632 1246 l 728 1297 q 658 1158 719 1211 q 504 1104 596 1104 m 504 -308 q 447 -286 469 -308 q 425 -231 425 -264 q 447 -174 425 -196 q 504 -151 469 -151 q 561 -174 539 -151 q 583 -231 583 -196 q 561 -286 583 -264 q 504 -308 539 -308 z "},"Ẽ":{"ha":838,"x_min":118,"x_max":775,"o":"m 775 0 l 118 0 l 118 993 l 775 993 l 775 899 l 225 899 l 225 94 l 775 94 l 775 0 m 749 461 l 211 461 l 211 556 l 749 556 l 749 461 m 610 1265 l 689 1232 q 631 1135 675 1165 q 542 1104 586 1104 q 485 1116 514 1104 q 428 1147 457 1128 q 381 1176 397 1167 q 347 1186 364 1186 q 306 1168 325 1186 q 281 1110 288 1150 l 201 1143 q 260 1240 215 1210 q 349 1271 304 1271 q 405 1259 376 1271 q 463 1228 433 1247 q 510 1199 493 1208 q 543 1189 526 1189 q 585 1208 565 1189 q 610 1265 604 1226 z "},"Ỹ":{"ha":899,"x_min":28,"x_max":871,"o":"m 503 0 l 396 0 l 396 438 l 28 993 l 151 993 l 469 497 l 433 497 l 751 993 l 871 993 l 503 435 l 503 0 m 613 1265 l 692 1232 q 633 1135 678 1165 q 544 1104 589 1104 q 488 1116 517 1104 q 431 1147 460 1128 q 383 1176 400 1167 q 350 1186 367 1186 q 309 1168 328 1186 q 283 1110 290 1150 l 204 1143 q 263 1240 218 1210 q 351 1271 307 1271 q 408 1259 379 1271 q 465 1228 436 1247 q 513 1199 496 1208 q 546 1189 529 1189 q 588 1208 568 1189 q 613 1265 607 1226 z "},"ắ":{"ha":764,"x_min":56,"x_max":676,"o":"m 676 0 l 578 0 l 578 133 l 576 172 l 576 428 q 521 565 576 514 q 371 617 465 617 q 248 588 303 617 q 151 508 193 558 l 79 578 q 208 672 136 639 q 371 706 279 706 q 531 672 463 706 q 638 576 600 638 q 676 432 676 515 l 676 0 m 317 -22 q 180 6 239 -22 q 88 83 121 35 q 56 194 56 132 q 96 317 56 267 q 206 394 136 368 q 365 421 276 421 l 590 421 l 590 338 l 379 338 q 224 303 286 338 q 163 197 163 269 q 208 100 163 136 q 329 64 254 64 q 460 92 401 64 q 553 172 518 121 q 593 290 589 224 l 635 267 q 594 118 635 183 q 481 15 553 53 q 317 -22 408 -22 m 371 808 q 229 865 289 808 q 161 1017 169 922 l 247 1017 q 290 920 256 953 q 371 888 324 888 q 452 920 418 888 q 494 1017 486 953 l 581 1017 q 513 865 572 922 q 371 808 453 808 m 310 1008 l 460 1204 l 582 1204 l 394 1008 l 310 1008 z "},"ằ":{"ha":764,"x_min":56,"x_max":676,"o":"m 676 0 l 578 0 l 578 133 l 576 172 l 576 428 q 521 565 576 514 q 371 617 465 617 q 248 588 303 617 q 151 508 193 558 l 79 578 q 208 672 136 639 q 371 706 279 706 q 531 672 463 706 q 638 576 600 638 q 676 432 676 515 l 676 0 m 317 -22 q 180 6 239 -22 q 88 83 121 35 q 56 194 56 132 q 96 317 56 267 q 206 394 136 368 q 365 421 276 421 l 590 421 l 590 338 l 379 338 q 224 303 286 338 q 163 197 163 269 q 208 100 163 136 q 329 64 254 64 q 460 92 401 64 q 553 172 518 121 q 593 290 589 224 l 635 267 q 594 118 635 183 q 481 15 553 53 q 317 -22 408 -22 m 371 808 q 229 865 289 808 q 161 1017 169 922 l 247 1017 q 290 920 256 953 q 371 888 324 888 q 452 920 418 888 q 494 1017 486 953 l 581 1017 q 513 865 572 922 q 371 808 453 808 m 343 1008 l 156 1204 l 281 1204 l 431 1008 l 343 1008 z "},"ẳ":{"ha":764,"x_min":56,"x_max":676,"o":"m 676 0 l 578 0 l 578 133 l 576 172 l 576 428 q 521 565 576 514 q 371 617 465 617 q 248 588 303 617 q 151 508 193 558 l 79 578 q 208 672 136 639 q 371 706 279 706 q 531 672 463 706 q 638 576 600 638 q 676 432 676 515 l 676 0 m 317 -22 q 180 6 239 -22 q 88 83 121 35 q 56 194 56 132 q 96 317 56 267 q 206 394 136 368 q 365 421 276 421 l 590 421 l 590 338 l 379 338 q 224 303 286 338 q 163 197 163 269 q 208 100 163 136 q 329 64 254 64 q 460 92 401 64 q 553 172 518 121 q 593 290 589 224 l 635 267 q 594 118 635 183 q 481 15 553 53 q 317 -22 408 -22 m 371 808 q 229 865 289 808 q 161 1017 169 922 l 247 1017 q 290 920 256 953 q 371 888 324 888 q 452 920 418 888 q 494 1017 486 953 l 581 1017 q 513 865 572 922 q 371 808 453 808 m 351 969 l 321 1028 q 383 1067 361 1046 q 404 1110 404 1088 q 344 1158 404 1158 q 272 1131 307 1158 l 229 1185 q 354 1232 282 1232 q 448 1198 410 1232 q 486 1114 486 1164 q 451 1031 486 1069 q 351 969 417 993 z "},"ẵ":{"ha":764,"x_min":56,"x_max":676,"o":"m 676 0 l 578 0 l 578 133 l 576 172 l 576 428 q 521 565 576 514 q 371 617 465 617 q 248 588 303 617 q 151 508 193 558 l 79 578 q 208 672 136 639 q 371 706 279 706 q 531 672 463 706 q 638 576 600 638 q 676 432 676 515 l 676 0 m 317 -22 q 180 6 239 -22 q 88 83 121 35 q 56 194 56 132 q 96 317 56 267 q 206 394 136 368 q 365 421 276 421 l 590 421 l 590 338 l 379 338 q 224 303 286 338 q 163 197 163 269 q 208 100 163 136 q 329 64 254 64 q 460 92 401 64 q 553 172 518 121 q 593 290 589 224 l 635 267 q 594 118 635 183 q 481 15 553 53 q 317 -22 408 -22 m 371 808 q 229 865 289 808 q 161 1017 169 922 l 247 1017 q 290 920 256 953 q 371 888 324 888 q 452 920 418 888 q 494 1017 486 953 l 581 1017 q 513 865 572 922 q 371 808 453 808 m 233 1074 l 168 1101 q 207 1191 178 1160 q 281 1222 236 1222 q 335 1212 311 1222 q 386 1181 360 1201 q 426 1152 413 1160 q 451 1144 440 1144 q 507 1219 496 1144 l 572 1192 q 533 1102 563 1133 q 460 1071 504 1071 q 406 1081 429 1071 q 354 1113 383 1090 q 314 1141 328 1133 q 289 1149 300 1149 q 253 1129 267 1149 q 233 1074 239 1110 z "},"ặ":{"ha":764,"x_min":56,"x_max":676,"o":"m 676 0 l 578 0 l 578 133 l 576 172 l 576 428 q 521 565 576 514 q 371 617 465 617 q 248 588 303 617 q 151 508 193 558 l 79 578 q 208 672 136 639 q 371 706 279 706 q 531 672 463 706 q 638 576 600 638 q 676 432 676 515 l 676 0 m 317 -22 q 180 6 239 -22 q 88 83 121 35 q 56 194 56 132 q 96 317 56 267 q 206 394 136 368 q 365 421 276 421 l 590 421 l 590 338 l 379 338 q 224 303 286 338 q 163 197 163 269 q 208 100 163 136 q 329 64 254 64 q 460 92 401 64 q 553 172 518 121 q 593 290 589 224 l 635 267 q 594 118 635 183 q 481 15 553 53 q 317 -22 408 -22 m 371 808 q 229 865 289 808 q 161 1017 169 922 l 247 1017 q 290 920 256 953 q 371 888 324 888 q 452 920 418 888 q 494 1017 486 953 l 581 1017 q 513 865 572 922 q 371 808 453 808 m 371 -329 q 318 -308 340 -329 q 296 -256 296 -286 q 318 -202 296 -224 q 371 -181 340 -181 q 424 -202 403 -181 q 446 -256 446 -224 q 424 -308 446 -286 q 371 -329 403 -329 z "},"ẽ":{"ha":835,"x_min":65,"x_max":769,"o":"m 675 194 l 747 126 q 617 17 693 57 q 442 -22 540 -22 q 248 25 333 -22 q 114 154 163 72 q 65 342 65 236 q 112 529 65 447 q 240 658 158 611 q 426 706 322 706 q 603 659 526 706 q 725 532 681 613 q 769 346 769 451 l 769 338 l 664 338 l 664 346 q 633 487 664 426 q 548 581 601 547 q 426 615 494 615 q 294 581 351 615 q 206 485 238 546 q 174 343 174 424 q 208 200 174 263 q 303 103 243 138 q 443 68 364 68 q 675 194 588 68 m 769 306 l 151 306 l 151 390 l 747 390 l 769 346 l 769 306 m 576 1000 l 653 965 q 603 859 639 889 q 526 829 568 829 q 467 842 496 829 q 408 876 438 854 q 365 908 381 899 q 333 917 349 917 q 297 895 313 917 q 275 829 281 874 l 199 864 q 248 970 213 940 q 325 1000 283 1000 q 385 988 357 1000 q 443 953 414 975 q 488 922 471 931 q 518 913 504 913 q 555 934 539 913 q 576 1000 571 956 z "},"ỹ":{"ha":746,"x_min":28,"x_max":718,"o":"m 613 683 l 718 683 l 371 -124 q 299 -231 342 -192 q 168 -269 256 -269 l 100 -269 l 100 -181 l 168 -181 q 241 -158 213 -181 q 288 -93 269 -136 l 324 -3 l 28 683 l 139 683 l 397 54 l 353 54 l 613 683 m 524 1000 l 600 965 q 551 859 586 889 q 474 829 515 829 q 414 842 443 829 q 356 876 385 854 q 312 908 328 899 q 281 917 296 917 q 244 895 260 917 q 222 829 228 874 l 146 864 q 195 970 160 940 q 272 1000 231 1000 q 333 988 304 1000 q 390 953 361 975 q 435 922 418 931 q 465 913 451 913 q 502 934 486 913 q 524 1000 518 956 z "},"̛":{"ha":0,"x_min":0,"x_max":275,"o":"m 0 596 l 0 683 l 50 683 q 146 709 118 683 q 174 789 174 735 l 174 850 l 275 850 l 275 799 q 220 645 275 694 q 42 596 165 596 l 0 596 z "},"Ơ":{"ha":1200,"x_min":76,"x_max":1172,"o":"m 592 -22 q 387 17 481 -22 q 223 126 293 56 q 115 291 153 196 q 76 497 76 386 q 115 703 76 608 q 223 867 153 797 q 387 976 293 938 q 592 1015 481 1015 q 646 1013 619 1015 q 707 1003 672 1010 q 796 994 743 997 q 889 990 849 990 q 983 1000 944 990 q 1044 1039 1022 1010 q 1065 1126 1065 1068 l 1065 1201 l 1172 1201 l 1172 1139 q 1117 965 1172 1025 q 960 906 1063 906 q 917 908 938 906 q 881 913 896 910 l 883 931 q 1047 750 986 863 q 1107 497 1107 638 q 1069 291 1107 386 q 960 126 1031 196 q 797 17 890 56 q 592 -22 703 -22 m 592 75 q 802 129 711 75 q 944 279 893 183 q 996 497 996 375 q 944 715 996 619 q 802 864 893 810 q 592 918 711 918 q 382 864 474 918 q 239 715 290 810 q 188 497 188 619 q 239 279 188 375 q 382 129 290 183 q 592 75 474 75 z "},"Ư":{"ha":1036,"x_min":104,"x_max":1119,"o":"m 501 -22 q 210 87 317 -22 q 104 392 104 196 l 104 993 l 211 993 l 211 392 q 288 156 211 238 q 501 75 364 75 q 717 156 640 75 q 793 392 793 238 l 793 993 l 878 993 q 978 1028 943 993 q 1013 1126 1013 1063 l 1013 1201 l 1119 1201 l 1119 1139 q 1049 957 1119 1017 q 847 906 979 897 l 899 968 l 899 392 q 793 87 899 196 q 501 -22 688 -22 z "},"Ớ":{"ha":1200,"x_min":76,"x_max":1172,"o":"m 592 -22 q 387 17 481 -22 q 223 126 293 56 q 115 291 153 196 q 76 497 76 386 q 115 703 76 608 q 223 867 153 797 q 387 976 293 938 q 592 1015 481 1015 q 646 1013 619 1015 q 707 1003 672 1010 q 796 994 743 997 q 889 990 849 990 q 983 1000 944 990 q 1044 1039 1022 1010 q 1065 1126 1065 1068 l 1065 1201 l 1172 1201 l 1172 1139 q 1117 965 1172 1025 q 960 906 1063 906 q 917 908 938 906 q 881 913 896 910 l 883 931 q 1047 750 986 863 q 1107 497 1107 638 q 1069 291 1107 386 q 960 126 1031 196 q 797 17 890 56 q 592 -22 703 -22 m 592 75 q 802 129 711 75 q 944 279 893 183 q 996 497 996 375 q 944 715 996 619 q 802 864 893 810 q 592 918 711 918 q 382 864 474 918 q 239 715 290 810 q 188 497 188 619 q 239 279 188 375 q 382 129 290 183 q 592 75 474 75 m 836 1310 l 621 1110 l 514 1110 l 700 1310 l 836 1310 z "},"Ứ":{"ha":1036,"x_min":104,"x_max":1119,"o":"m 501 -22 q 210 87 317 -22 q 104 392 104 196 l 104 993 l 211 993 l 211 392 q 288 156 211 238 q 501 75 364 75 q 717 156 640 75 q 793 392 793 238 l 793 993 l 878 993 q 978 1028 943 993 q 1013 1126 1013 1063 l 1013 1201 l 1119 1201 l 1119 1139 q 1049 957 1119 1017 q 847 906 979 897 l 899 968 l 899 392 q 793 87 899 196 q 501 -22 688 -22 m 746 1310 l 531 1110 l 424 1110 l 610 1310 l 746 1310 z "}}}
